<?xml version="1.0" standalone="no"?>
<!DOCTYPE svg PUBLIC "-//W3C//DTD SVG 1.1//EN" "http://www.w3.org/Graphics/SVG/1.1/DTD/svg11.dtd" >
<svg xmlns="http://www.w3.org/2000/svg">
<metadata></metadata>
<defs>
<font id="latin_modern_roman10_italic" horiz-adv-x="511" >
<font-face units-per-em="1000" ascent="806" descent="-194" />
<missing-glyph horiz-adv-x="358" />
<glyph unicode="IJ" horiz-adv-x="872" d="M57 13q0 12 6 15t24 3q49 0 63.5 7.5t20.5 33.5l136 544q3 9 3 19q0 11 -15 14t-48 3q-12 0 -16.5 0.5t-7.5 3.5t-3 9q0 18 19 18q21 0 63 -1.5t62 -1.5q21 0 62 1.5t61 1.5q14 0 14 -12q0 -13 -6.5 -16t-24.5 -3q-49 0 -63 -7.5t-20 -33.5l-135 -540l-4 -22q0 -7 2 -10 t16.5 -5.5t43.5 -2.5q12 0 16.5 -0.5t8 -3t3.5 -8.5q0 -19 -20 -19t-61.5 1.5t-62.5 1.5t-62 -1.5t-61 -1.5q-14 0 -14 13zM441 86q0 22 6.5 37.5t14.5 23t18.5 11.5t15 4.5t7.5 0.5q17 0 29 -10.5t12 -28.5q0 -21 -16.5 -40t-43.5 -19q-9 0 -11 1q6 -30 29.5 -48t54.5 -18 q40 0 78 43.5t53 101.5l116 466q4 14 4 20q0 7 -3.5 11t-8.5 5t-18 3q-18 2 -46 2h-12q-10 0 -14 0.5t-7.5 3t-3.5 8.5q0 19 21 19q22 0 67.5 -1.5t68.5 -1.5q17 0 52 1.5t51 1.5q14 0 14 -12q0 -13 -6 -16t-20 -3q-33 0 -43 -7t-16 -29l-117 -472q-17 -69 -77.5 -117.5 t-130.5 -48.5q-50 0 -84 29.5t-34 78.5z" />
<glyph unicode="ij" horiz-adv-x="583" d="M83 288q0 2 3 13t9 29t17 37t24 36t33 28t42 11q19 0 35.5 -8t28 -27t11.5 -45q0 -21 -12 -56l-64 -171q-26 -74 -26 -96q0 -28 22 -28q59 0 93 125q3 12 5.5 14.5t11.5 2.5q15 0 15 -10q0 -3 -4 -17.5t-14 -38t-23.5 -45.5t-36.5 -37.5t-49 -15.5q-37 0 -56.5 24 t-19.5 56q0 20 18 69q41 108 67 182q18 49 18 72q0 28 -22 28q-59 0 -93 -126q-3 -11 -6 -13.5t-12 -2.5q-15 0 -15 10zM227 591q0 16 9.5 30.5t24 23.5t30.5 9q21 0 33 -13t12 -30q0 -16 -9.5 -30.5t-24 -23.5t-30.5 -9q-21 0 -33 12.5t-12 30.5zM241 -147q0 26 16 39.5 t33 13.5q18 0 26.5 -10t8.5 -22q0 -5 -2 -12.5t-11 -19t-25 -16.5q18 -9 34 -9q42 0 72 41t42 90l95 381q7 28 7 51q0 40 -27 40q-36 0 -66 -35.5t-51 -89.5q-5 -12 -7.5 -14.5t-11.5 -2.5q-15 0 -15 10q0 3 6 18.5t19 38.5t30.5 44.5t43 37t53.5 15.5q40 0 63 -26.5 t23 -63.5q0 -18 -5 -33l-93 -374q-10 -42 -37.5 -76.5t-64.5 -54t-75 -19.5q-34 0 -57.5 15.5t-23.5 42.5zM534 591q0 16 9.5 30.5t24 23.5t30.5 9q11 0 19.5 -3.5t14 -10t8.5 -14t3 -15.5q0 -16 -9.5 -30.5t-24 -23.5t-30.5 -9q-21 0 -33 12.5t-12 30.5z" />
<glyph unicode="fk" horiz-adv-x="792" d="M-25 -139q0 25 15 40t35 15q13 0 23.5 -8.5t10.5 -23.5q0 -17 -11.5 -31t-32.5 -18q13 -18 39 -18q36 0 57 83q17 72 33.5 153t37 189.5t30.5 157.5h-62q-10 0 -14 0.5t-7.5 3t-3.5 8.5q0 13 6.5 16t21.5 3h65l10.5 55.5t10.5 48.5t12.5 45t15.5 36.5t20 32t25 23.5 t33 19t40.5 10t50.5 4q52 0 84 -14q40 -17 40 -52h1l9 35q5 14 8.5 17t19.5 3h15q24 0 24 -10q-2 -12 -3 -15l-102 -408q26 12 45 30t63 69q70 82 130 82q31 0 47 -18.5t16 -41.5q0 -26 -15.5 -41t-34.5 -15q-18 0 -26.5 10t-8.5 22q0 7 2.5 15.5t14 20t30.5 14.5 q-8 12 -27 12q-24 0 -49.5 -16.5t-41 -32.5t-50.5 -56q-42 -48 -71 -66q133 -19 133 -104q0 -13 -6.5 -40.5t-6.5 -50.5q0 -43 29 -43q16 0 28.5 10.5t21.5 31t14.5 36.5t11.5 41q4 16 7 19.5t12 3.5q15 0 15 -10q0 -3 -4 -19t-13 -41t-19 -42q-30 -52 -77 -52 q-33 0 -58.5 24t-25.5 73q0 5 3.5 29t3.5 30q0 27 -18.5 46t-39 27t-43.5 11l-51 -203q-8 -37 -39 -37q-13 0 -20.5 8t-7.5 18q1 11 2 13l94 372h-225l-62 -320q-54 -285 -161 -285q-30 0 -54.5 17t-24.5 49zM283 431h227l43 176h-1q-12 -23 -42 -23q-13 0 -23.5 8.5 t-10.5 23.5t10.5 29t28.5 19q-25 19 -78 19q-89 0 -112 -65q-13 -36 -42 -187z" />
<glyph unicode="ff" horiz-adv-x="613" d="M-25 -139q0 25 15 40t35 15q13 0 23.5 -8.5t10.5 -23.5q0 -17 -11.5 -31t-32.5 -18q6 -8 15.5 -12.5t16.5 -4.5l7 -1q36 0 55 76q13 46 30 133l73 374h-62q-10 0 -14 0.5t-7.5 3t-3.5 8.5q0 13 6 16t21 3h66l20 103q6 33 15.5 58.5t29 53.5t54.5 43.5t83 15.5 q46 0 77 -17t31 -50q0 -24 -14.5 -39t-35.5 -15q-13 0 -23.5 8.5t-10.5 23.5q0 20 13.5 33t26.5 16q-23 18 -63 18q-33 0 -57.5 -15t-31.5 -29q-18 -35 -50 -208h233q20 106 29 142t24 65q15 28 43.5 47.5t59.5 19.5q35 0 61 -17.5t26 -48.5q0 -25 -15 -40t-35 -15 q-13 0 -23.5 8.5t-10.5 23.5q0 18 12 31.5t30 17.5q-16 18 -45 18q-19 0 -32 -17t-17.5 -32t-11.5 -46q-10 -45 -16 -82t-14 -75h77q10 0 14.5 -0.5t8 -3t3.5 -8.5q0 -13 -6.5 -16t-21.5 -3h-81l-69 -351q-17 -91 -50 -154q-20 -37 -61 -68.5t-88 -31.5q-36 0 -66 16.5 t-30 50.5q0 24 14.5 39t35.5 15q13 0 23.5 -8.5t10.5 -23.5q0 -18 -12 -31.5t-30 -17.5q19 -18 55 -18q23 0 45.5 17t32 30.5t14.5 23.5q19 42 42 162l68 350h-233l-61 -319q-55 -286 -161 -286q-30 0 -54.5 17t-24.5 49z" />
<glyph unicode="fi" horiz-adv-x="562" d="M-25 -139q0 25 15 40t35 15q13 0 23.5 -8.5t10.5 -23.5q0 -17 -11.5 -31t-32.5 -18q6 -8 15.5 -12.5t16.5 -4.5l7 -1q13 0 22.5 7.5t16.5 23t10 24t7 24.5q17 73 33.5 153.5t38 193t30.5 157.5h-62q-10 0 -14 0.5t-7.5 3t-3.5 8.5q0 13 6.5 16t21.5 3h65l18 94 q19 101 71.5 140.5t145.5 39.5q143 0 143 -75q0 -26 -15.5 -41t-34.5 -15q-18 0 -26.5 10t-8.5 22q0 4 1 11t12 20.5t31 17.5q-28 28 -100 28q-36 0 -61.5 -8.5t-40 -19t-25.5 -35t-15.5 -42t-12.5 -54.5l-18 -93h239q15 0 19.5 -1.5t4.5 -9.5q-2 -7 -3 -13l-76 -304 q-7 -28 -7 -51q0 -41 26 -41q37 0 67 119q4 16 7 19.5t12 3.5q15 0 15 -10q-12 -60 -30 -98q-27 -56 -73 -56q-36 0 -60 25.5t-24 64.5q0 14 5 34l72 287h-200l-60 -314q-12 -61 -25 -108t-32.5 -91t-46 -68t-58.5 -24q-30 0 -54.5 17t-24.5 49z" />
<glyph unicode="fl" horiz-adv-x="588" d="M-25 -139q0 25 15 40t35 15q13 0 23.5 -8.5t10.5 -23.5q0 -17 -11.5 -31t-32.5 -18q13 -18 39 -18q36 0 57 83q17 72 33.5 153t37 189.5t30.5 157.5h-62q-10 0 -14 0.5t-7.5 3t-3.5 8.5q0 13 6.5 16t21.5 3h65l10.5 55.5t10.5 48.5t12.5 45t15.5 36.5t20 32t25 23.5 t33 19t40.5 10t50.5 4q52 0 84 -14q40 -17 40 -52h1l9 35q5 14 8.5 17t19.5 3h15q24 0 24 -10q0 -4 -3 -13l-142 -568q-7 -28 -7 -51q0 -41 26 -41q37 0 67 119q4 16 7 19.5t12 3.5q15 0 15 -10q-12 -60 -30 -98q-27 -56 -73 -56q-36 0 -60 25.5t-24 64.5q0 14 5 34l72 287 h-225l-62 -320q-54 -285 -161 -285q-30 0 -54.5 17t-24.5 49zM283 431h227l43 176h-1q-12 -23 -42 -23q-13 0 -23.5 8.5t-10.5 23.5t10.5 29t28.5 19q-25 19 -78 19q-89 0 -112 -65q-13 -36 -42 -187z" />
<glyph unicode="ffi" horiz-adv-x="882" d="M-25 -139q0 25 15 40t35 15q13 0 23.5 -8.5t10.5 -23.5q0 -17 -11.5 -31t-32.5 -18q14 -18 39 -18q16 0 28.5 15.5t17.5 30t11 38.5q12 45 30 135l71 364h-62q-10 0 -14.5 0.5t-7.5 3.5t-3 9q0 12 6 15t21 3h66l18 95q17 87 60 133t137 46q47 0 84 -15t37 -52 q0 -24 -14.5 -39t-35.5 -15q-13 0 -23.5 8.5t-10.5 23.5t10.5 29t28.5 19q-25 19 -75 19q-84 0 -109 -62q-8 -21 -43 -190h243q21 107 31 142.5t31 62.5q33 41 77 55t102 14q150 0 150 -74q0 -28 -16 -42.5t-34 -14.5t-26.5 10t-8.5 22q0 4 1.5 11t12 20.5t29.5 17.5 q-26 28 -105 28q-86 0 -118 -39q-28 -34 -49 -149q-4 -18 -12 -64h251q15 0 19.5 -1.5t4.5 -9.5q-2 -7 -3 -13l-76 -304q-7 -28 -7 -51q0 -41 26 -41q37 0 67 119q4 16 7 19.5t12 3.5q15 0 15 -10q-12 -60 -30 -98q-27 -56 -73 -56q-36 0 -60 25.5t-24 64.5q0 14 5 34 l72 287h-212l-62 -320q-2 -12 -8.5 -41.5t-23 -80t-33.5 -77.5q-10 -14 -24.5 -29.5t-50 -36t-71.5 -20.5q-39 0 -70 16t-31 51q0 24 14.5 39t35.5 15q13 0 23.5 -8.5t10.5 -23.5q0 -19 -12.5 -32.5t-28.5 -16.5q23 -18 59 -18q34 0 67 33q27 27 42 74q15 49 32 133l66 343 h-243l-61 -318q-55 -287 -161 -287q-31 0 -55 17t-24 49z" />
<glyph unicode="ffl" horiz-adv-x="894" d="M-25 -139q0 25 15 40t35 15q13 0 23.5 -8.5t10.5 -23.5q0 -17 -11.5 -31t-32.5 -18q14 -18 39 -18q36 0 56 82q20 80 31 137l70 364h-61q-10 0 -14.5 0.5t-8 3t-3.5 8.5q0 13 6 16t22 3h65l20 101q7 35 16.5 60.5t29 53.5t54.5 43.5t83 15.5q46 0 77 -17t31 -50 q0 -24 -14.5 -39t-35.5 -15q-13 0 -23.5 8.5t-10.5 23.5q0 20 13.5 33t26.5 16q-23 18 -63 18q-48 0 -79 -31q-17 -15 -34 -88l-26 -133h243q6 33 9 49t9 43.5t10.5 41.5t12.5 35t16 31.5t19.5 25t25 21.5t31 14.5t38.5 10t46 2.5q52 0 84 -14q40 -17 40 -52h1l9 35 q5 14 8.5 17t19.5 3h15q24 0 24 -10q0 -4 -3 -13l-142 -568q-7 -28 -7 -51q0 -41 26 -41q37 0 67 119q4 16 7 19.5t12 3.5q15 0 15 -10q-12 -60 -30 -98q-27 -56 -73 -56q-36 0 -60 25.5t-24 64.5q0 14 5 34l72 287h-225l-60 -314q-34 -159 -72 -213q-67 -78 -140 -78 q-39 0 -70.5 16.5t-31.5 50.5q0 24 14.5 39t35.5 15q13 0 23.5 -8.5t10.5 -23.5q0 -14 -9.5 -28.5t-31.5 -19.5q21 -19 59 -19q25 0 48.5 17.5t34 31.5t15.5 24q19 42 44 171l66 339h-243l-62 -321q-54 -284 -160 -284q-30 0 -54.5 17t-24.5 49zM589 431h227l43 176h-1 q-12 -23 -42 -23q-13 0 -23.5 8.5t-10.5 23.5t10.5 29t28.5 19q-25 19 -77 19q-35 0 -59 -9t-37 -28.5t-18.5 -34t-11.5 -40.5q-4 -13 -29 -140z" />
<glyph unicode=" "  horiz-adv-x="358" />
<glyph unicode="&#x09;" horiz-adv-x="358" />
<glyph unicode="&#xa0;" horiz-adv-x="358" />
<glyph unicode="!" horiz-adv-x="307" d="M113 43q0 25 20 44t44 19q21 0 33 -13t12 -30q0 -24 -20 -43.5t-45 -19.5q-19 0 -31.5 12t-12.5 31zM188 199q0 3 2 12l75 445q4 26 21 41t27 17t17 2q21 0 33 -12.5t12 -28.5q0 -7 -5 -21l-149 -450q-5 -12 -7.5 -14.5t-10.5 -2.5q-15 0 -15 12z" />
<glyph unicode="&#x22;" horiz-adv-x="401" d="M244 423l46 250q2 13 14 22.5t26 9.5t21 -9.5t3 -22.5l-80 -250h-30zM338 423l46 250q2 13 14 22.5t26 9.5t21 -9.5t3 -22.5l-80 -250h-30z" />
<glyph unicode="#" horiz-adv-x="818" d="M115 153q0 20 34 20h157l76 154h-185q-33 0 -33 20t33 20h206l159 321q6 6 15 6q20 0 20 -20q0 -4 -5 -17l-144 -290h165l159 321q6 6 15 6q20 0 20 -20q0 -4 -5 -17l-144 -290h136q34 0 34 -20t-34 -20h-157l-76 -154h185q33 0 33 -20t-33 -20h-206l-159 -321 q-6 -6 -15 -6q-20 0 -20 20q0 4 5 17l144 290h-165l-159 -321q-6 -6 -15 -6q-20 0 -20 20q0 4 5 17l144 290h-136q-34 0 -34 20zM351 173h165l76 154h-165z" />
<glyph unicode="$" horiz-adv-x="500" d="M95 144q9 85 62 85q14 0 26.5 -9.5t11.5 -30.5q-2 -20 -17.5 -36t-40.5 -16q-11 0 -17 3q-3 -56 30.5 -86.5t88.5 -33.5l75 299q-41 11 -61.5 20.5t-39.5 31.5q-39 43 -34 112q3 32 18 66t41.5 66.5t70 56.5t96.5 32q4 1 5.5 3.5t2 7.5t1.5 7l7 28h31l-10 -46 q70 -3 107 -42t32 -102q-10 -81 -62 -81q-17 0 -28 10t-10 29q2 22 18.5 37.5t38.5 15.5q10 0 17 -3q0 51 -34.5 77.5t-87.5 28.5l-68 -272q28 -7 40.5 -11t29.5 -15t32 -29q35 -53 30 -118q-8 -90 -77.5 -161t-157.5 -78l-11 -46h-31l11 46q-63 3 -102.5 41.5t-33.5 112.5z M239 522q-7 -88 97 -112l66 263q-64 -7 -111 -52t-52 -99zM271 21q45 6 83 33t59.5 63.5t24.5 73.5q4 54 -23.5 82.5t-71.5 37.5z" />
<glyph unicode="%" horiz-adv-x="818" d="M145 -36q0 7 11 20l573 665v1q-63 -29 -122 -29q-77 0 -131 42q3 -14 3 -39q0 -98 -57 -187.5t-122 -89.5q-42 0 -68.5 36t-26.5 97q0 97 61 183.5t129 86.5q37 0 60 -32q55 -75 153 -75q55 0 108 25t86 64q15 18 25 18q8 0 13.5 -6t5.5 -14q0 -7 -11 -21l-649 -752 q-11 -13 -21 -13q-8 0 -14 6t-6 14zM256 449q0 -80 46 -80q49 0 98 85t49 175q0 40 -13 69.5t-41 29.5q-30 0 -57.5 -33t-44.5 -79.5t-27 -92t-10 -74.5zM513 77q0 96 60.5 183t130.5 87q44 0 64 -39.5t20 -86.5q0 -94 -56.5 -185.5t-123.5 -91.5q-43 0 -69 37.5t-26 95.5z M564 46q0 -80 46 -80q31 0 65.5 38.5t58 100t23.5 121.5q0 44 -14 71.5t-39 27.5q-41 0 -75 -57t-49.5 -120t-15.5 -102z" />
<glyph unicode="&#x26;" horiz-adv-x="767" d="M126 176q0 37 22.5 96t70.5 111l3 6q0 2 -2 7q-9 28 -9 60q0 95 66.5 177.5t146.5 82.5q50 0 78 -33.5t28 -81.5q0 -79 -53 -79q-18 0 -26.5 10t-8.5 22q0 2 0.5 5.5t3.5 11.5t8.5 14.5t17 12t27.5 5.5q-1 49 -23.5 70t-51.5 21q-44 0 -80.5 -46t-54.5 -106t-20 -115 q51 34 98 34q28 0 45.5 -16t17.5 -44q0 -35 -29 -63t-67 -28q-49 0 -81 32q-18 -33 -34.5 -89.5t-16.5 -96.5q0 -43 16.5 -75t44.5 -49t58 -24.5t62 -7.5q74 0 133 24.5t93 60.5t56 80.5t29.5 79.5t7.5 63q0 73 -52 140q-78 -48 -103.5 -73t-25.5 -65q0 -14 3 -22 q12 32 45 32q32 0 32 -31q0 -19 -13.5 -33t-34.5 -14q-27 0 -45 19.5t-18 51.5t21 62t41 44.5t54 35.5t55 36.5t51 50t46 74.5q-34 2 -34 31q0 21 15 34t32 13q13 0 23 -8t10 -23q0 -13 -10.5 -43t-42 -76t-74.5 -77q57 -75 57 -156q0 -34 -9.5 -73.5t-35 -86.5t-63 -84.5 t-101.5 -63t-143 -25.5q-119 0 -187.5 58t-68.5 140zM276 379q17 -47 60 -47q27 0 45.5 23t18.5 51q0 33 -33 33q-45 0 -91 -60z" />
<glyph unicode="'" horiz-adv-x="307" d="M244 423l46 250q2 13 14 22.5t26 9.5t21 -9.5t3 -22.5l-80 -250h-30z" />
<glyph unicode="(" horiz-adv-x="409" d="M152 47q0 98 33 227.5t108 252.5q39 64 90 119t83.5 79.5t39.5 24.5q10 0 10 -10q0 -3 -15 -18q-84 -72 -147 -176t-93.5 -207.5t-44.5 -185.5t-14 -142q0 -143 62 -237l7 -14q0 -10 -10 -10q-11 0 -37.5 38.5t-44.5 86.5q-27 75 -27 172z" />
<glyph unicode=")" horiz-adv-x="409" d="M18 -240q0 3 15 18q84 72 147 176t93.5 207.5t44.5 185.5t14 142q0 143 -62 237l-7 14q0 10 10 10q11 0 37.5 -38.5t44.5 -86.5q27 -75 27 -172q0 -98 -33 -227.5t-108 -252.5q-39 -64 -90 -119t-83.5 -79.5t-39.5 -24.5q-10 0 -10 10z" />
<glyph unicode="*" d="M195 435q0 19 24 30l150 70l-113 69q-14 9 -14 18q0 12 10 22t22 10q8 0 19 -11l90 -88l27 161q5 34 33 34q8 0 14 -5t6 -13l-4 -16l-53 -161l140 93q9 6 17 6q20 0 20 -20t-24 -30l-150 -70l113 -68q15 -9 15 -19q0 -12 -10.5 -22t-21.5 -10q-9 0 -20 11l-90 88 l-27 -161q-4 -34 -32 -34q-21 0 -21 18l4 16l54 161l-141 -93q-10 -6 -17 -6q-20 0 -20 20z" />
<glyph unicode="+" horiz-adv-x="767" d="M140 250q0 20 33 20h258l65 262q6 25 22 25q9 0 14.5 -6t5.5 -14q0 -5 -4 -19l-62 -248h247q33 0 33 -20t-33 -20h-257l-65 -262q-7 -25 -22 -25q-20 0 -20 21l4 19l62 247h-248q-33 0 -33 20z" />
<glyph unicode="," horiz-adv-x="307" d="M73 -183q0 4 13 17q92 78 112 181q-19 -15 -41 -15q-44 0 -44 42q0 24 18.5 44t46.5 20q46 0 46 -59q0 -54 -32 -113t-65 -93t-44 -34q-10 0 -10 10z" />
<glyph unicode="-" horiz-adv-x="358" d="M86 200q0 9 7 30q3 9 7 11t19 2h195q10 0 14 -0.5t7.5 -3t3.5 -8.5q0 -8 -8 -32q-2 -8 -6.5 -10t-20.5 -2h-192q-11 0 -15.5 0.5t-7.5 3.5t-3 9z" />
<glyph unicode="." horiz-adv-x="307" d="M113 43q0 24 20.5 43.5t44.5 19.5q20 0 32 -13t12 -30q0 -23 -20 -43t-45 -20q-20 0 -32 12t-12 31z" />
<glyph unicode="/" d="M20 -230q0 6 7 19l547 943q11 18 23 18q8 0 13.5 -6t5.5 -14q0 -6 -7 -19l-547 -943q-11 -18 -23 -18q-8 0 -13.5 6t-5.5 14z" />
<glyph unicode="0" d="M117 148q0 68 28 178.5t64 178.5q43 82 98.5 121.5t113.5 39.5q37 0 63.5 -14.5t39.5 -33.5t20.5 -45.5t9 -42.5t1.5 -34q0 -60 -24 -161t-55 -171q-44 -99 -105 -142.5t-120 -43.5q-32 0 -56.5 10t-38 28t-22.5 35t-12 40t-4 33.5t-1 23.5zM181 98q0 -53 22.5 -75.5 t52.5 -22.5q37 0 71.5 29.5t52.5 68.5q32 71 72.5 233.5t40.5 218.5q0 46 -22 70t-55 24q-31 0 -65.5 -23t-59.5 -74q-27 -56 -68.5 -222.5t-41.5 -226.5z" />
<glyph unicode="1" d="M117 12q0 13 6.5 16t21.5 3h8q56 0 72 8t22 34l118 474q-55 -41 -111 -41q-16 0 -16 12q0 16 16 19q99 10 176 113q13 16 19 16q12 0 12 -12q-2 -10 -3 -13l-143 -571q-3 -12 -3 -19q0 -10 5 -13t23 -5q26 -2 43 -2h8q10 0 14.5 -0.5t8 -3t3.5 -8.5q0 -19 -20 -19 q-22 0 -67 1.5t-67 1.5q-21 0 -65 -1.5t-66 -1.5q-15 0 -15 12z" />
<glyph unicode="2" d="M84 -12q1 8 5 22t24.5 55t51.5 78q20 24 44.5 45t38.5 30t46 28q86 51 136 119.5t50 168.5q0 57 -26 83.5t-62 26.5q-56 0 -104 -51t-70.5 -108t-22.5 -94q0 -33 22 -33q40 0 69 51.5t29 83.5q0 17 -10 37l-1 6q0 11 11 11q9 0 15.5 -18.5t6.5 -34.5q0 -23 -13 -58 t-42.5 -67.5t-65.5 -32.5q-51 0 -51 63q0 21 9.5 53t29 69t46 69.5t65 54t80.5 21.5q64 0 110 -44t46 -125q0 -47 -15 -84.5t-51 -71t-74.5 -59t-104.5 -63.5q-105 -61 -154 -145q6 3 22 3q30 0 91 -14.5t98 -14.5q45 0 75.5 34t44.5 74q3 12 5.5 14.5t11.5 2.5q15 0 15 -10 q0 -7 -9.5 -34t-27 -62t-51 -62t-73.5 -27q-39 0 -97 40q-54 37 -85 37q-38 0 -56 -64q-2 -8 -5 -10.5t-12 -2.5q-15 0 -15 10z" />
<glyph unicode="3" d="M95 106q0 78 53 78q16 0 25 -9.5t9 -22.5q0 -16 -14 -33.5t-42 -14.5q1 -52 31 -78t71 -26q70 0 119 59q33 38 47 93t14 84q0 83 -77 83h-28q-10 0 -14.5 0.5t-7.5 2.5t-3 7q0 10 3.5 14.5t8 5.5t14.5 1h23q46 0 81 20t52 46.5t27.5 59.5t12.5 50.5t2 27.5 q0 49 -25.5 69.5t-59.5 20.5q-71 0 -129.5 -56t-58.5 -117q0 -37 26 -37q23 0 42 18.5t19 43.5q0 14 -6 24.5t-6 15.5q0 11 11 11q8 0 15.5 -17.5t7.5 -32.5q0 -36 -26.5 -60.5t-56.5 -24.5q-27 0 -41.5 18t-14.5 46q0 67 67 128.5t153 61.5q61 0 102 -36t41 -98 q0 -60 -43.5 -118.5t-118.5 -83.5q80 -37 80 -127q0 -89 -78 -157t-174 -68q-61 0 -97 37t-36 91z" />
<glyph unicode="4" d="M44 18q0 10 14 20.5t25 15.5q10 8 29.5 25t63.5 68t79 108q93 151 148 361q5 18 8 26t11.5 16t22.5 8q27 0 27 -26q-2 -13 -7.5 -36.5t-30.5 -93t-58 -135.5t-94.5 -152.5t-137.5 -156.5q13 1 27 1q39 0 76 -11q10 -3 14.5 -5.5t46.5 -17.5l42 166q10 43 40 43q4 0 9 -1 t11.5 -7.5t6.5 -18.5q0 -5 -4 -20l-44 -178q5 -1 16 -1q32 0 60 11l14 4q6 0 10.5 -6t4.5 -11q0 -11 -34 -20t-59 -9q-14 0 -20 1l-37 -146q-9 -34 -38 -34q-27 0 -27 26q0 6 4 21l37 149l-59 23q-35 11 -73 11q-60 0 -77 -15q-27 -20 -32 -20t-10 6.5t-5 10.5z" />
<glyph unicode="5" d="M107 117q0 91 58 91q17 0 26.5 -9.5t9.5 -24.5q0 -19 -14.5 -35.5t-38.5 -16.5q-7 0 -10 1q1 -65 31.5 -91t66.5 -26q34 0 72 24t68 79q17 32 33.5 96t16.5 104q0 89 -61 89q-76 0 -135 -69q-10 -10 -16 -10q-13 0 -13 12q1 10 2 13l76 304q5 17 12 17q4 0 14 -5 q47 -26 112 -26q66 0 129 28q8 3 12 3q9 0 9 -9t-25.5 -31.5t-74 -44.5t-98.5 -22q-38 0 -62 9l-13 3q-2 -1 -5 -12l-46 -184q59 46 124 46q62 0 96.5 -45.5t34.5 -109.5q0 -112 -82 -199.5t-180 -87.5q-61 0 -95 40.5t-34 98.5z" />
<glyph unicode="6" d="M120 158q0 71 25 170t82 179q54 76 118 117.5t126 41.5q45 0 71 -21t26 -58q0 -29 -13.5 -47.5t-38.5 -18.5q-18 0 -26 9.5t-8 22.5q0 7 2.5 16t15.5 20.5t35 11.5q-11 40 -65 40q-76 0 -145 -87q-57 -73 -93 -215q59 87 135 87q40 0 69 -17t43.5 -43t21 -50t6.5 -46 q0 -112 -79 -202t-174 -90q-38 0 -65.5 17t-40 38t-19.5 51t-8 44t-1 30zM185 97q0 -32 16 -61.5t55 -29.5q74 0 124 90q15 30 35 108.5t20 112.5q0 39 -18 63q-17 24 -53 24q-47 0 -83.5 -36t-56 -88.5t-29.5 -100.5t-10 -82z" />
<glyph unicode="7" d="M144 432q0 3 6 15l96 204q5 11 8 13t11 2q15 0 15 -10q0 -3 -23 -53q66 63 134 63q19 0 30 -10.5t13.5 -22t5.5 -35.5q2 -28 7.5 -38.5t20.5 -10.5q51 0 115 94l15 20q4 3 13 3q14 0 14 -10q0 -4 -9 -17q-77 -118 -126 -224q-79 -168 -131 -371q-5 -21 -9.5 -33 t-16.5 -22.5t-30 -10.5q-14 0 -24.5 8.5t-10.5 24.5q0 6 7.5 35.5t34.5 103t68 154.5q34 68 135 234q-22 -11 -45 -11q-30 0 -49 34q-14 22 -20.5 28.5t-20.5 6.5q-17 0 -37.5 -6t-48.5 -22t-59.5 -51.5t-57.5 -86.5q-5 -8 -16 -8q-15 0 -15 10z" />
<glyph unicode="8" d="M97 115q0 21 6.5 43.5t24 54t58 64t100.5 60.5q-46 41 -52 49q-24 31 -24 77q0 76 64.5 139.5t145.5 63.5q56 0 95 -31.5t39 -86.5t-41 -103.5t-116 -84.5q62 -54 68 -61q29 -39 29 -91q0 -87 -74 -158.5t-168 -71.5q-66 0 -110.5 38t-44.5 99zM147 113q0 -48 30 -77.5 t78 -29.5q69 0 124.5 50t55.5 110q0 21 -8 38t-15.5 25t-24.5 23l-82 69q-72 -34 -115 -92.5t-43 -115.5zM265 509q0 -38 28 -61l76 -64l9 -7q3 0 16 7.5t32.5 23.5t38 35.5t31.5 48.5t13 58q0 43 -25.5 67t-66.5 24q-58 0 -105 -41t-47 -91z" />
<glyph unicode="9" d="M104 58q0 28 13.5 46.5t38.5 18.5q18 0 26 -9.5t8 -22.5q0 -6 -2 -14.5t-14.5 -20.5t-34.5 -14q16 -36 75 -36q68 0 131 78q59 75 95 222q-57 -87 -135 -87q-33 0 -58.5 12t-40.5 30t-24.5 40.5t-13 40.5t-3.5 34q0 111 80 200.5t178 89.5q37 0 63.5 -16.5t39 -37.5 t19 -50.5t7.5 -43.5t1 -30q0 -34 -6.5 -82.5t-34.5 -132t-73 -147.5q-42 -60 -102 -104t-125 -44q-48 0 -78 20.5t-30 59.5zM237 328q0 -87 71 -87q48 0 85.5 37.5t56.5 91t28.5 101t9.5 79.5q0 38 -16 64.5t-51 26.5q-32 0 -61.5 -19.5t-42.5 -36.5t-22 -34 q-20 -35 -39 -113t-19 -110z" />
<glyph unicode=":" horiz-adv-x="307" d="M113 43q0 24 20.5 43.5t44.5 19.5q20 0 32 -13t12 -30q0 -23 -20 -43t-45 -20q-20 0 -32 12t-12 31zM194 368q0 24 20 43.5t45 19.5q20 0 32 -12.5t12 -30.5q0 -24 -20 -43.5t-45 -19.5q-20 0 -32 12.5t-12 30.5z" />
<glyph unicode=";" horiz-adv-x="307" d="M73 -182q0 6 7 10q86 83 110 181q-18 -9 -33 -9q-44 0 -44 42q0 24 18.5 44t46.5 20q40 0 40 -53q0 -42 -18.5 -88.5t-42.5 -80t-45.5 -55.5t-28.5 -22q-10 0 -10 11zM194 368q0 24 20 43.5t45 19.5q20 0 32 -12.5t12 -30.5q0 -24 -20 -43.5t-45 -19.5q-20 0 -32 12.5 t-12 30.5z" />
<glyph unicode="&#x3c;" horiz-adv-x="778" d="M146 250q3 13 24 22l619 261q15 7 20 7q8 0 12.5 -6t2.5 -14q-3 -12 -24 -22l-587 -248l463 -248q16 -10 13 -22q-2 -8 -9.5 -14t-15.5 -6q-5 0 -16 7l-489 261q-16 8 -13 22z" />
<glyph unicode="=" horiz-adv-x="767" d="M115 153q0 20 34 20h546q33 0 33 -20t-33 -20h-546q-34 0 -34 20zM164 347q0 20 33 20h546q34 0 34 -20t-34 -20h-546q-33 0 -33 20z" />
<glyph unicode="&#x3e;" horiz-adv-x="778" d="M78 -20q3 12 25 22l587 248l-463 248q-17 9 -14 22q2 8 9.5 14t15.5 6q5 0 16 -7l489 -261q17 -9 14 -22t-25 -22l-619 -261q-15 -7 -20 -7q-8 0 -12.5 6t-2.5 14z" />
<glyph unicode="?" d="M194 463q0 14 9.5 42.5t30 65t47.5 69t67 54.5t83 22q54 0 87 -35t33 -89q0 -34 -10.5 -63.5t-30.5 -53t-33.5 -36.5t-35.5 -30l-78 -63q-53 -41 -67.5 -58.5t-14.5 -44.5q0 -34 25 -34q24 0 47 19t33 49q3 10 5.5 12.5t11.5 2.5q15 0 15 -10q0 -24 -33.5 -59.5 t-78.5 -35.5q-29 0 -44.5 21t-15.5 49q0 29 14 55t24 36t31 27l121 95q22 19 35 31.5t29 42t16 62.5q0 42 -24.5 65t-60.5 23q-59 0 -111.5 -52t-80.5 -130q38 0 38 -32q0 -20 -14.5 -34.5t-34.5 -14.5q-34 0 -34 32zM215 43q0 25 20 44t44 19q21 0 33 -13t12 -30 q0 -24 -20 -43.5t-45 -19.5q-19 0 -31.5 12t-12.5 31z" />
<glyph unicode="@" horiz-adv-x="767" d="M151 248q0 85 35.5 169t92 147t130.5 102t148 39q99 0 165.5 -70t66.5 -190q0 -75 -43 -204q-41 -113 -118 -113q-14 0 -28.5 4t-30 19.5t-16.5 41.5q-68 -65 -136 -65q-59 0 -98.5 43t-39.5 115q0 106 76.5 193t166.5 87q79 0 113 -85h26q10 0 13.5 -0.5t6.5 -2.5t3 -7 q-1 -10 -2 -13l-65 -263q-3 -18 -3 -20q0 -25 18 -25q31 0 57 39t40.5 92.5t22 99t7.5 67.5q0 102 -55.5 168.5t-147.5 66.5q-88 0 -175 -61.5t-143 -164t-56 -211.5q0 -101 54 -168t153 -67q127 0 258 60q16 7 34 7q11 0 15.5 -0.5t7 -2.5t2.5 -7q0 -10 -57 -29.5 t-91 -27.5q-87 -22 -170 -22q-113 0 -175 75.5t-62 183.5zM340 270q0 -44 19 -82t61 -38q46 0 94 43t56 75l40 162l3 14q0 8 -4 22t-13 32.5t-28.5 32t-45.5 13.5q-64 0 -123 -88t-59 -186z" />
<glyph unicode="A" horiz-adv-x="743" d="M59 12q1 18 12 19q17 1 28.5 3.5t28.5 9.5t33 24.5t31 44.5l332 585q10 18 26 18q12 0 14.5 -4t3.5 -21l43 -626q2 -21 11 -27.5t46 -6.5q10 0 14 -0.5t7 -3.5t3 -9q0 -18 -18 -18q-17 0 -52 1.5t-53 1.5q-19 0 -58 -1.5t-57 -1.5q-15 0 -15 12q0 19 23 19q67 0 67 32 l-11 166h-228l-72 -126q-14 -26 -14 -38q0 -27 42 -34q16 -2 16 -12q0 -19 -18 -19q-15 0 -46 1.5t-47 1.5q-13 0 -40.5 -1.5t-39.5 -1.5t-12 12zM307 260h209l-23 327z" />
<glyph unicode="B" horiz-adv-x="704" d="M65 12q0 13 6 16t21 3q49 0 62.5 7.5t19.5 34.5l135 543q4 14 4 19q0 11 -14 14t-44 3q-11 0 -15.5 0.5t-8 3t-3.5 8.5q0 13 6 16t21 3h311q78 0 123 -39.5t45 -96.5q0 -60 -54 -115t-142 -75q59 -7 99 -43t40 -95q0 -81 -77 -150t-180 -69h-330q-10 0 -14 0.5t-7.5 3 t-3.5 8.5zM243 41q0 -4 1 -6t8 -3t22 -1h124q79 0 134.5 62.5t55.5 138.5q0 15 -3 29.5t-11.5 35.5t-30.5 34t-54 13h-172l-70 -281q0 -1 -2 -9.5t-2 -12.5zM323 366h132q81 0 136 59.5t55 127.5q0 15 -3 29t-12 31.5t-29.5 28t-49.5 10.5h-118q-26 0 -34.5 -5t-14.5 -31z " />
<glyph unicode="C" horiz-adv-x="716" d="M150 245q0 114 62 222t160 173t199 65q98 0 151 -85l63 74q4 5 8 7.5t6 2.5l2 1q4 0 7 -2.5t4 -4.5v-3q0 -6 -2 -14l-61 -243q-3 -12 -6 -15t-12 -3q-15 0 -15 10q0 1 1 11t2.5 24.5t1.5 25.5q0 75 -34.5 129t-107.5 54q-60 0 -124 -35.5t-113 -102.5q-53 -73 -79 -170 t-26 -159q0 -99 50.5 -148.5t121.5 -49.5q73 0 148.5 58.5t110.5 174.5q3 8 16 8q15 0 15 -10q0 -21 -21 -62t-57 -86.5t-97 -79.5t-129 -34q-106 0 -175.5 73t-69.5 194z" />
<glyph unicode="D" horiz-adv-x="755" d="M63 12q0 13 6 16t21 3q49 0 62.5 7.5t19.5 34.5l135 543q4 14 4 19q0 11 -14 14t-44 3q-11 0 -15.5 0.5t-8 3t-3.5 8.5q0 13 6 16t21 3h312q96 0 153 -68t57 -177q0 -110 -55 -212t-143.5 -164t-181.5 -62h-307q-10 0 -14 0.5t-7.5 3t-3.5 8.5zM244 41q0 -4 1 -6t8 -3 t22 -1h103q115 0 200 99q56 66 85 174t29 172q0 91 -46 133.5t-114 42.5h-97q-26 0 -34.5 -5.5t-14.5 -30.5l-138 -553q0 -1 -2 -9.5t-2 -12.5z" />
<glyph unicode="E" horiz-adv-x="678" d="M62 12q0 13 6 16t21 3q49 0 62.5 7.5t19.5 34.5l134 536l4 23q0 6 -2 9t-15.5 5.5t-40.5 2.5q-12 0 -16.5 0.5t-7.5 3.5t-3 9q0 12 6 15t21 3h467q10 0 13 -0.5t8 -3t3.5 -7.5t-0.5 -15l-23 -177q-1 -10 -2 -14t-4.5 -6t-10.5 -2q-15 0 -15 12q0 7 2 17q5 40 5 64 q0 56 -27.5 78.5t-105.5 22.5h-125q-26 0 -34 -5t-14 -29l-61 -246h81q59 0 81.5 19t37.5 74q6 22 11 23q3 1 8 1q16 0 16 -12q-2 -10 -3 -13l-55 -220q-3 -13 -6 -16.5t-12 -3.5q-16 0 -16 12l2 11q9 33 9 51q0 23 -14 33t-61 10h-87l-69 -275q0 -1 -2 -9.5t-2 -12.5t1 -6 t8 -3t22 -1h122q47 0 82 9t58.5 22t44 41.5t34 55.5t33.5 75q7 17 10 20.5t11 3.5q15 0 15 -11q-3 -10 -4 -12l-89 -219q-5 -11 -9 -13.5t-19 -2.5h-479q-10 0 -14 0.5t-7.5 3t-3.5 8.5z" />
<glyph unicode="F" horiz-adv-x="653" d="M62 12q0 13 6 16t21 3q49 0 62.5 7.5t19.5 34.5l134 536l4 23q0 6 -2 9t-15.5 5.5t-40.5 2.5q-12 0 -16.5 0.5t-7.5 3.5t-3 9q0 12 6 15t21 3h455q10 0 13 -0.5t8 -3t3.5 -7.5t-0.5 -15l-23 -177q-1 -10 -2 -14t-4.5 -6t-10.5 -2q-15 0 -15 12l1 16q6 46 6 66 q0 55 -26 77.5t-103 22.5h-117q-26 0 -34 -5t-14 -29l-64 -259h78q59 0 81 19.5t36 76.5q4 14 7 17.5t12 3.5q15 0 15 -11q0 -6 -2 -14l-55 -220q-4 -14 -7 -17t-12 -3q-15 0 -15 12q0 3 3 14q8 32 8 49q0 22 -14 32t-60 10h-83l-63 -252q-4 -15 -4 -21q0 -8 2.5 -11.5 t19 -6.5t51.5 -3h10q10 0 14 -0.5t7.5 -3t3.5 -8.5q0 -19 -21 -19q-22 0 -68.5 1.5t-69.5 1.5q-20 0 -61 -1.5t-61 -1.5q-14 0 -14 12z" />
<glyph unicode="G" horiz-adv-x="774" d="M150 245q0 114 62 222t160 173t199 65q98 0 151 -85l63 74q4 5 8 7.5t6 2.5l2 1q4 0 7 -2.5t4 -4.5v-3q0 -6 -2 -14l-61 -243q-3 -12 -6 -15t-12 -3q-15 0 -15 10q0 1 1 11t2.5 24.5t1.5 25.5q0 75 -34.5 129t-107.5 54q-60 0 -124 -35.5t-113 -102.5 q-54 -74 -79.5 -170.5t-25.5 -157.5q0 -95 50.5 -147t126.5 -52q80 0 136 51q22 20 29.5 38.5t24.5 89.5q8 28 8 34q0 7 -3.5 10.5t-8 4.5t-17.5 3q-26 2 -43 2h-8q-26 0 -26 11q0 20 21 20t65 -1.5t66 -1.5q16 0 49 1.5t48 1.5q13 0 13 -13q0 -12 -6 -15t-18 -3 q-21 0 -32 -4t-13.5 -9.5t-6.5 -19.5l-48 -191q-5 -17 -12 -17q-8 0 -21.5 20t-20.5 40q-25 -32 -78 -57.5t-116 -25.5q-108 0 -177 73.5t-69 193.5z" />
<glyph unicode="H" horiz-adv-x="743" d="M62 12q0 13 6 16t21 3q49 0 62.5 7.5t19.5 34.5l135 543q4 14 4 19q0 11 -14 14t-44 3q-11 0 -15.5 0.5t-8 3t-3.5 8.5q0 19 19 19t59.5 -1.5t60.5 -1.5t59.5 1.5t58.5 1.5q14 0 14 -13q0 -12 -6 -15t-24 -3q-46 0 -59.5 -7.5t-19.5 -32.5l-60 -241h274l61 245q4 14 4 19 q0 11 -14 14t-44 3q-11 0 -15.5 0.5t-8 3t-3.5 8.5q0 19 19 19t59.5 -1.5t60.5 -1.5t59.5 1.5t58.5 1.5q14 0 14 -13q0 -12 -6 -15t-24 -3q-46 0 -59.5 -7.5t-19.5 -32.5l-135 -541l-4 -23q0 -6 2 -9t15.5 -5.5t40.5 -2.5q12 0 16.5 -0.5t7.5 -3.5t3 -9q0 -18 -19 -18 t-59.5 1.5t-60.5 1.5t-59.5 -1.5t-58.5 -1.5q-14 0 -14 12q0 13 6 16t21 3q49 0 62.5 7.5t19.5 34.5l66 267h-274l-67 -272q-4 -14 -4 -20t2 -9t15.5 -5.5t40.5 -2.5q12 0 16.5 -0.5t7.5 -3.5t3 -9q0 -18 -19 -18t-59.5 1.5t-60.5 1.5t-59.5 -1.5t-58.5 -1.5q-14 0 -14 12z " />
<glyph unicode="I" horiz-adv-x="386" d="M57 13q0 12 6 15t24 3q49 0 63.5 7.5t20.5 33.5l136 544q3 9 3 19q0 11 -15 14t-48 3q-12 0 -16.5 0.5t-7.5 3.5t-3 9q0 18 19 18q21 0 63 -1.5t62 -1.5q21 0 62 1.5t61 1.5q14 0 14 -12q0 -13 -6.5 -16t-24.5 -3q-49 0 -63 -7.5t-20 -33.5l-135 -540l-4 -22q0 -7 2 -10 t16.5 -5.5t43.5 -2.5q12 0 16.5 -0.5t8 -3t3.5 -8.5q0 -19 -20 -19t-61.5 1.5t-62.5 1.5t-62 -1.5t-61 -1.5q-14 0 -14 13z" />
<glyph unicode="J" horiz-adv-x="525" d="M94 86q0 22 6.5 37.5t14.5 23t18.5 11.5t15 4.5t7.5 0.5q17 0 29 -10.5t12 -28.5q0 -21 -16.5 -40t-43.5 -19q-9 0 -11 1q6 -30 29.5 -48t54.5 -18q40 0 78 43.5t53 101.5l116 466q4 14 4 20q0 7 -3.5 11t-8.5 5t-18 3q-18 2 -46 2h-12q-10 0 -14 0.5t-7.5 3t-3.5 8.5 q0 19 21 19q22 0 67.5 -1.5t68.5 -1.5q17 0 52 1.5t51 1.5q14 0 14 -12q0 -13 -6 -16t-20 -3q-32 0 -43 -7t-16 -29l-117 -472q-17 -69 -77.5 -117.5t-130.5 -48.5q-50 0 -84 29.5t-34 78.5z" />
<glyph unicode="K" horiz-adv-x="769" d="M62 12q0 13 6 16t21 3q49 0 62.5 7.5t19.5 34.5l135 543q4 14 4 19q0 11 -14 14t-44 3q-11 0 -15.5 0.5t-8 3t-3.5 8.5q0 19 19 19t59.5 -1.5t60.5 -1.5t59.5 1.5t58.5 1.5q14 0 14 -13q0 -12 -6 -15t-24 -3q-46 0 -59.5 -7.5t-19.5 -32.5l-79 -319l352 293q33 27 33 46 q0 18 -26 20q-14 0 -14 12q0 19 19 19q17 0 53 -1.5t54 -1.5q12 0 35.5 1.5t33.5 1.5q11 0 11 -12q0 -17 -18 -19q-65 -6 -157 -82l-184 -153l131 -347q9 -23 21 -30.5t39 -8.5q18 0 18 -12q0 -19 -17 -19q-14 0 -45 1.5t-46 1.5q-19 0 -56.5 -1.5t-55.5 -1.5q-14 0 -14 13 q0 18 19 18q51 0 51 33q0 5 -6 20l-104 279l-139 -115l-35 -144q-13 -47 -13 -56q0 -6 2 -9t15.5 -5.5t40.5 -2.5q12 0 16.5 -0.5t7.5 -3.5t3 -9q0 -18 -19 -18t-59.5 1.5t-60.5 1.5t-59.5 -1.5t-58.5 -1.5q-14 0 -14 12z" />
<glyph unicode="L" horiz-adv-x="627" d="M62 12q0 13 6 16t21 3q34 0 50 4t22 11.5t10 26.5l135 543q4 14 4 19q0 11 -14 14t-44 3h-12.5t-7.5 1.5t-5.5 4t-1.5 6.5q0 5 1.5 9t3.5 6t5 3t4.5 1h4.5q20 0 61 -1.5t62 -1.5q23 0 69.5 1.5t68.5 1.5q15 0 15 -12q0 -13 -6.5 -16t-21.5 -3h-10q-31 0 -48 -2t-27 -8 t-13.5 -13t-7.5 -22l-136 -544q0 -2 -1 -6.5t-2 -8.5t-1 -7q0 -4 1 -6t8 -3t22 -1h81q32 0 60 7t48 17.5t38.5 29t29.5 33t22.5 39.5t17.5 39.5t15 39.5q6 15 8.5 18.5t11.5 3.5q15 0 15 -12q-11 -34 -25 -73t-29.5 -83t-25.5 -72q-5 -13 -9 -15.5t-20 -2.5h-428 q-10 0 -14 0.5t-7.5 3t-3.5 8.5z" />
<glyph unicode="M" horiz-adv-x="897" d="M66 12q0 19 19 19q39 2 63 16.5t34 53.5l128 515q4 14 4 19q0 11 -14 14t-44 3q-11 0 -15.5 0.5t-8 3t-3.5 8.5q0 13 6 16t21 3h133q19 0 23 -3t5 -19l56 -561l340 565q8 13 13.5 15.5t22.5 2.5h128q10 0 14.5 -0.5t7.5 -3.5t3 -9q0 -12 -6 -15t-24 -3q-46 0 -59.5 -7.5 t-19.5 -32.5l-135 -541l-4 -23q0 -6 2 -9t15.5 -5.5t40.5 -2.5q12 0 16.5 -0.5t7.5 -3.5t3 -9q0 -18 -19 -18q-18 0 -57.5 1.5t-58.5 1.5t-57.5 -1.5t-56.5 -1.5q-14 0 -14 12q0 13 6 16t21 3q49 0 62.5 7.5t19.5 34.5l141 566h-1l-373 -621q-10 -18 -24 -18q-7 0 -10.5 3 t-4.5 6.5t-2 14.5l-61 606h-1l-133 -531q-4 -16 -4 -25q0 -8 1.5 -13.5t6.5 -12.5t18 -11.5t33 -5.5q19 0 19 -13q0 -18 -18 -18q-15 0 -48.5 1.5t-49.5 1.5t-48 -1.5t-47 -1.5q-13 0 -13 12z" />
<glyph unicode="N" horiz-adv-x="743" d="M62 12q0 19 19 19q80 3 97 70l132 530l3 13q0 8 -61 8q-11 0 -15.5 0.5t-8 3t-3.5 8.5q0 13 6 16t21 3h125q16 0 19.5 -2.5t8.5 -14.5l187 -520l110 439q4 16 4 24q0 41 -60 43q-18 0 -18 12q0 19 18 19q15 0 48 -1.5t49 -1.5t48.5 1.5t47.5 1.5q13 0 13 -13 q0 -18 -15 -18q-85 -3 -101 -68l-140 -564q-2 -9 -5 -13.5t-6 -5.5t-9 -1q-10 0 -13 2.5t-7 14.5l-215 597l-129 -515q-4 -16 -4 -25q0 -8 1.5 -13.5t6.5 -12.5t18 -11.5t33 -5.5q19 0 19 -13q0 -18 -18 -18q-15 0 -48.5 1.5t-49.5 1.5t-48 -1.5t-47 -1.5q-13 0 -13 12z" />
<glyph unicode="O" horiz-adv-x="767" d="M148 236q0 113 59.5 222.5t156 178t196.5 68.5q98 0 163 -70.5t65 -190.5q0 -117 -60.5 -226t-155.5 -174.5t-194 -65.5q-102 0 -166 72t-64 186zM238 205q0 -90 39.5 -145.5t107.5 -55.5q58 0 120 44.5t109 125.5q39 67 64 156t25 156q0 95 -43.5 144.5t-106.5 49.5 q-64 0 -127 -47t-104 -120q-46 -80 -65 -167.5t-19 -140.5z" />
<glyph unicode="P" horiz-adv-x="678" d="M63 12q0 13 6 16t21 3q49 0 62.5 7.5t19.5 34.5l135 543q4 14 4 19q0 11 -14 14t-44 3q-11 0 -15.5 0.5t-8 3t-3.5 8.5q0 13 6 16t21 3h300q80 0 128.5 -42t48.5 -106q0 -86 -82 -152.5t-179 -66.5h-155l-61 -248q-4 -14 -4 -20t2 -9t15.5 -5.5t40.5 -2.5q12 0 16.5 -0.5 t7.5 -3.5t3 -9q0 -18 -19 -18t-59.5 1.5t-60.5 1.5t-59.5 -1.5t-58.5 -1.5q-14 0 -14 12zM318 342h126q93 0 145 58q25 29 39 83t14 79q0 46 -32.5 68t-88.5 22h-86q-27 0 -35 -5t-14 -31z" />
<glyph unicode="Q" horiz-adv-x="767" d="M148 236q0 113 59.5 222.5t156 178t196.5 68.5q98 0 163 -70.5t65 -190.5q0 -135 -81.5 -259.5t-204.5 -178.5q1 -63 16 -84.5t44 -21.5q31 0 62.5 24.5t47.5 73.5q4 13 12 13q11 0 11 -12q-1 -4 -2.5 -11t-8 -27t-14.5 -38t-21.5 -40.5t-28.5 -38.5t-36.5 -27t-45.5 -11 q-79 0 -79 92q0 30 10 95q-45 -15 -91 -15q-102 0 -166 72t-64 186zM233 202q0 -61 22.5 -112.5t71.5 -74.5q-5 13 -5 28q0 38 28.5 71.5t68.5 33.5q73 0 80 -106q56 36 99 98t64.5 127.5t31.5 119.5t10 93q0 90 -41 145t-110 55q-56 0 -115.5 -39.5t-104.5 -108.5 q-50 -77 -75 -172.5t-25 -157.5zM344 43q0 -40 41 -40q42 0 88 23q1 8 1 28t-1.5 32t-14.5 26t-38 14q-31 0 -53.5 -27t-22.5 -56z" />
<glyph unicode="R" horiz-adv-x="729" d="M63 12q0 13 6 16t21 3q49 0 62.5 7.5t19.5 34.5l135 543q4 14 4 19q0 11 -14 14t-44 3q-11 0 -15.5 0.5t-8 3t-3.5 8.5q0 13 6 16t21 3h264q91 0 146 -43t55 -105q0 -59 -54.5 -114.5t-155.5 -81.5q39 -14 62.5 -44.5t23.5 -71.5q0 -26 -7 -81.5t-7 -82.5q0 -19 2 -30 t9.5 -20t21.5 -9q24 0 44.5 23.5t33.5 64.5q2 7 3 10t4.5 5t9.5 2q15 0 15 -13q0 -9 -10 -33.5t-38 -52.5t-66 -28q-52 0 -88 27t-36 79q0 16 15 80q17 68 17 79q0 49 -27.5 68.5t-66.5 19.5h-108l-65 -263q-4 -14 -4 -20t2 -9t15.5 -5.5t40.5 -2.5q12 0 16.5 -0.5t7.5 -3.5 t3 -9q0 -18 -19 -18q-20 0 -60 1.5t-59 1.5t-58 -1.5t-58 -1.5q-14 0 -14 12zM321 353h101q94 0 148 52q24 24 38.5 63t17 59t2.5 31q0 27 -11.5 46t-26 28t-40.5 14t-41.5 5.5t-42.5 0.5q-51 0 -58 -2q-15 -4 -22 -34z" />
<glyph unicode="S" horiz-adv-x="562" d="M74 -12q0 2 3 13l52 209q3 11 6 14t12 3q15 0 15 -11q-9 -54 -9 -67q0 -72 43.5 -106t106.5 -34q65 0 116 60.5t51 130.5q0 44 -22 72q-12 13 -24.5 18.5t-52.5 17.5l-49 14q-36 10 -43 13q-80 37 -80 132q0 88 71 163t161 75t130 -68l45 56q10 12 15 12q4 0 7 -2.5 t4 -4.5v-3q0 -6 -2 -14l-52 -207q-3 -12 -6 -15t-12 -3q-15 0 -15 10l1 14q5 27 5 55q0 63 -28.5 102.5t-93.5 39.5q-63 0 -112.5 -54t-49.5 -117q0 -66 51 -88q11 -4 55 -16q75 -22 94.5 -31t37.5 -31q33 -41 33 -102q0 -97 -72 -178.5t-165 -81.5q-106 0 -153 69 q-27 -36 -47 -57q-10 -12 -16 -12q-11 0 -11 10z" />
<glyph unicode="T" horiz-adv-x="716" d="M175 463q0 4 5 17l59 179q4 13 8.5 15.5t20.5 2.5h513q10 0 14 -0.5t7.5 -3t3.5 -8.5q0 -9 -1 -13l-30 -179q-2 -14 -5 -17.5t-13 -3.5q-15 0 -15 13q0 4 2 15q10 59 10 90q0 47 -24.5 61.5t-102.5 14.5q-44 0 -52 -2q-16 -2 -23 -33l-134 -538q-4 -14 -4 -19 q0 -11 6 -15t27 -6q1 0 10 -0.5t21 -1t19 -0.5h15q25 0 25 -11q0 -20 -21 -20q-25 0 -78 1.5t-79 1.5q-25 0 -77 -1.5t-78 -1.5q-17 0 -17 12q0 13 6.5 16t21.5 3h16q63 0 81 8.5t25 36.5l134 537q4 12 4 22q0 4 -1 6t-6 3.5t-16 1.5h-34q-97 0 -133 -28.5t-71 -133.5 q-10 -26 -13 -29t-11 -3q-15 0 -15 11z" />
<glyph unicode="U" horiz-adv-x="743" d="M202 166q0 32 8 64l96 386q4 14 4 19q0 11 -14 14t-44 3q-11 0 -15.5 0.5t-8 3t-3.5 8.5q0 19 19 19t59.5 -1.5t60.5 -1.5t59.5 1.5t58.5 1.5q14 0 14 -13q0 -12 -6 -15t-24 -3q-46 0 -59.5 -7.5t-19.5 -32.5l-100 -402q-10 -44 -10 -76q0 -63 31.5 -94t75.5 -31 q72 0 140.5 62.5t91.5 157.5l89 356q4 16 4 24q0 41 -60 43q-18 0 -18 12q0 19 18 19q15 0 47.5 -1.5t48.5 -1.5t47.5 1.5t46.5 1.5q13 0 13 -13q0 -18 -15 -18q-85 -3 -101 -68l-91 -366q-22 -89 -98.5 -164.5t-166.5 -75.5q-74 0 -126 51t-52 137z" />
<glyph unicode="V" horiz-adv-x="743" d="M209 664q0 19 18 19q16 0 50.5 -1.5t51.5 -1.5q19 0 58 1.5t57 1.5q14 0 14 -12q0 -13 -6 -16t-19 -3q-63 0 -63 -31l51 -524l289 483q15 26 15 40q0 30 -40 32q-16 2 -16 12q0 19 18 19q14 0 45.5 -1.5t46.5 -1.5q13 0 38.5 1.5t37.5 1.5q5 0 8 -2.5t4 -5.5l1 -3 q0 -7 -1.5 -11t-5.5 -6t-5.5 -2t-6.5 -1q-33 -3 -59 -19t-53 -62l-343 -574q-8 -13 -13 -16t-15 -3q-11 0 -14 4.5t-5 19.5l-60 616q-1 15 -4 20.5t-14 9.5t-36 4q-24 0 -24 12z" />
<glyph unicode="W" horiz-adv-x="999" d="M208 664q0 19 18 19q15 0 48.5 -1.5t49.5 -1.5q18 0 56 1.5t57 1.5q14 0 14 -12q0 -13 -6 -16t-19 -3q-24 0 -38.5 -4t-19.5 -12.5t-6.5 -14t-0.5 -16.5l22 -489l233 428q6 10 6 20q-3 63 -4 67q-2 12 -10 16.5t-38 4.5q-21 0 -21 12q0 19 18 19q15 0 48.5 -1.5 t49.5 -1.5q19 0 57 1.5t56 1.5q14 0 14 -11q0 -9 -4 -14t-7 -5.5t-9 -0.5q-44 -1 -57.5 -11t-13.5 -26l1 -7l22 -492l253 466q11 20 11 32q0 35 -51 38q-16 0 -16 12q0 19 19 19q16 0 49.5 -1.5t49.5 -1.5q12 0 37 1.5t36 1.5q5 0 8 -2.5t4 -5.5v-3q0 -19 -14 -20 q-37 -3 -59 -19.5t-47 -62.5l-313 -574q-10 -18 -26 -18q-6 0 -9.5 1t-5.5 5t-2.5 7t-0.5 12l-22 498l-275 -503q-7 -12 -11 -16t-15 -4t-14 4.5t-4 20.5l-28 617q-1 14 -2.5 19.5t-11.5 9t-32 3.5q-24 0 -24 12z" />
<glyph unicode="X" horiz-adv-x="743" d="M51 12q1 18 12 19q18 1 30 3t33 8.5t42.5 22t42.5 39.5l208 237l-103 279q-5 13 -9 18.5t-17.5 9.5t-39.5 4q-9 0 -13 0.5t-7.5 3t-3.5 8.5q0 5 1.5 9t3.5 6t5 3t4.5 1h4.5q16 0 50.5 -1.5t51.5 -1.5q20 0 59 1.5t58 1.5q14 0 14 -13q0 -18 -16 -18q-13 -1 -24.5 -4.5 t-18 -8.5t-10.5 -9t-4 -7q15 -41 42.5 -116t34.5 -95l148 170q21 25 21 40q0 25 -36 30q-12 0 -12 12q0 19 18 19q16 0 51.5 -1.5t52.5 -1.5q15 0 44 1.5t43 1.5q13 0 13 -12q0 -14 -11.5 -17.5t-29.5 -3.5t-51 -17t-66 -53l-12 -10l-163 -187l119 -322q4 -12 8 -17t17.5 -9 t39.5 -4q10 0 14 -0.5t7 -3.5t3 -9q0 -18 -18 -18q-16 0 -51 1.5t-52 1.5q-19 0 -58 -1.5t-58 -1.5q-15 0 -15 12q0 17 16 19q25 1 41 11t16 19l-3 12l-88 239l-192 -219q-3 -6 -5 -8q-8 -11 -8 -24q0 -27 35 -30q13 -1 13 -11q0 -20 -19 -20q-16 0 -51 1.5t-52 1.5 q-15 0 -44.5 -1.5t-43.5 -1.5q-12 0 -12 12z" />
<glyph unicode="Y" horiz-adv-x="743" d="M202 664q0 19 19 19q16 0 51.5 -1.5t52.5 -1.5q20 0 59 1.5t58 1.5q14 0 14 -12q0 -13 -5.5 -16t-16.5 -3q-56 0 -56 -24q0 -3 4 -13l95 -300l219 267l3 4q3 4 6.5 9t7 11t6 12t2.5 11q0 21 -31 23q-15 0 -15 12q0 19 18 19q15 0 46 -1.5t47 -1.5q13 0 38.5 1.5t37.5 1.5 q5 0 8 -2.5t4 -5.5v-3q0 -13 -4.5 -16t-14.5 -4q-37 -3 -68 -21.5t-65 -60.5l-236 -287q-6 -7 -12 -27l-31 -123q-19 -79 -19 -85q0 -11 14 -14t44 -3q11 0 15.5 -0.5t8 -3t3.5 -8.5q0 -19 -19 -19t-59 1.5t-60 1.5q-19 0 -58 -1.5t-58 -1.5q-14 0 -14 12q0 13 6 16t19 3 q55 1 66.5 9t21.5 50q46 175 46 183q0 5 -4 15l-106 334q-5 18 -17.5 24t-46.5 6q-24 0 -24 12z" />
<glyph unicode="Z" horiz-adv-x="613" d="M80 9q0 12 11 25l517 618h-140q-57 0 -97.5 -13.5t-65 -41.5t-38 -54t-26.5 -67q-2 -7 -3 -9t-3 -5t-4.5 -3.5t-7.5 -0.5q-15 0 -15 11q2 11 3 13l54 181q5 14 9 17t20 3h387h11t6.5 -1t4.5 -3t1 -5q0 -12 -12 -26l-515 -614h147q51 0 89 11.5t61.5 27.5t42.5 47t28.5 55 t23.5 67q6 18 9 21.5t11 3.5q16 0 16 -12q-4 -14 -5 -16l-68 -221q-4 -13 -8 -15.5t-21 -2.5h-400q-23 0 -23 9z" />
<glyph unicode="[" horiz-adv-x="307" d="M73 -238q2 10 3 13l239 956q4 14 7.5 16.5t20.5 2.5h77q10 0 14.5 -0.5t8 -3t3.5 -8.5q-4 -18 -7 -23q-5 -5 -23 -5h-65l-230 -920h59q10 0 14.5 -0.5t8 -3t3.5 -8.5q-4 -18 -7 -23q-5 -5 -23 -5h-77q-10 0 -14.5 0.5t-8 3t-3.5 8.5z" />
<glyph unicode="\" horiz-adv-x="500" d="M239 712v18q1 8 9 14t16 6q14 0 16 -22l105 -940l1 -18q-2 -8 -9.5 -14t-15.5 -6q-15 0 -17 22z" />
<glyph unicode="]" horiz-adv-x="307" d="M-14 -238q4 18 7 23q5 5 23 5h65l230 920h-59q-10 0 -14.5 0.5t-8 3t-3.5 8.5q4 18 7 23q5 5 23 5h77q10 0 14.5 -0.5t8 -3t3.5 -8.5q-2 -10 -3 -13l-239 -956q-4 -14 -7.5 -16.5t-20.5 -2.5h-77q-10 0 -14.5 0.5t-8 3t-3.5 8.5z" />
<glyph unicode="^" horiz-adv-x="556" d="M141 584l323 160l243 -160l-17 -22l-242 123l-301 -123z" />
<glyph unicode="_" horiz-adv-x="743" d="M-46 -125q4 15 19 15h743q6 0 9.5 -4.5t1.5 -10.5q-4 -15 -19 -15h-743q-6 0 -9.5 4.5t-1.5 10.5z" />
<glyph unicode="`" d="M306 668q6 13 19 20.5t23 7.5q14 0 23 -17l71 -142q5 -10 2 -15q-3 -6 -11 -11.5t-13 -5.5t-10 8l-100 123q-13 13 -4 32z" />
<glyph unicode="a" d="M108 144q0 109 73 203.5t156 94.5q57 0 83 -59q8 39 40 39q27 0 27 -26q0 -7 -4 -21l-68 -272q-7 -28 -7 -51q0 -41 26 -41q37 0 67 119q4 16 7 19.5t12 3.5q15 0 15 -10q-12 -60 -30 -98q-27 -56 -73 -56q-29 0 -52 17.5t-31 52.5q-57 -70 -120 -70q-55 0 -88 44.5 t-33 110.5zM176 100q0 -33 12 -61t43 -28q37 0 77.5 41.5t47.5 71.5l47 189l3 13q0 35 -19 64.5t-50 29.5q-30 0 -61.5 -32t-50.5 -79q-15 -35 -32 -104.5t-17 -104.5z" />
<glyph unicode="b" horiz-adv-x="460" d="M115 141q0 49 11 82l99 395q3 14 3 17q0 6 -2 9t-13.5 5.5t-34.5 2.5q-24 0 -24 11q0 9 3.5 13.5t7.5 5.5t12 2l99 8q6 2 16 2q14 0 14 -12q-2 -10 -3 -13l-70 -280q56 53 106 53q49 0 84.5 -40.5t35.5 -115.5q0 -110 -72.5 -203.5t-156.5 -93.5q-53 0 -84 43.5 t-31 108.5zM172 107q0 -51 17.5 -73.5t40.5 -22.5q33 0 62 32t44 63q21 46 38.5 119t17.5 106t-12.5 61t-42.5 28q-51 0 -105 -74q-14 -19 -22 -46q-38 -149 -38 -193z" />
<glyph unicode="c" horiz-adv-x="460" d="M110 154q0 109 79.5 198.5t173.5 89.5q47 0 77 -24.5t30 -61.5q0 -27 -15 -43.5t-36 -16.5q-16 0 -25 9.5t-9 22.5q0 2 0.5 5t3 10.5t7 14t15 12t24.5 7.5q-16 43 -71 43q-35 0 -70 -26t-61 -74q-19 -36 -36 -101t-17 -105q0 -46 20 -74.5t59 -28.5q17 0 38.5 3.5t65 28 t76.5 66.5q9 11 13 11q6 0 11 -6t5 -10q0 -10 -24.5 -36t-76.5 -52.5t-110 -26.5q-66 0 -106.5 45.5t-40.5 119.5z" />
<glyph unicode="d" d="M108 144q0 109 73 203.5t156 94.5q56 0 84 -58l58 234q3 14 3 17q0 6 -2 9t-13.5 5.5t-34.5 2.5q-24 0 -24 11q0 9 3.5 13.5t7.5 5.5t12 2l99 8q6 2 16 2q14 0 14 -12q-2 -10 -3 -13l-143 -571q-6 -24 -6 -46q0 -41 26 -41q37 0 67 119q4 16 7 19.5t12 3.5q15 0 15 -10 q-12 -60 -30 -98q-27 -56 -73 -56q-29 0 -52 17.5t-31 52.5q-57 -70 -120 -70q-55 0 -88 44.5t-33 110.5zM176 100q0 -33 12 -61t43 -28q37 0 77 41t47 70l48 192q3 9 3 13q0 32 -20 64q-19 29 -49 29t-61.5 -32t-50.5 -79q-15 -35 -32 -104.5t-17 -104.5z" />
<glyph unicode="e" horiz-adv-x="460" d="M114 164q0 123 80 200.5t168 77.5q46 0 73.5 -24.5t27.5 -60.5q0 -5 -0.5 -10.5t-4.5 -19.5t-11.5 -26t-24 -25.5t-38.5 -22.5q-56 -22 -145 -22h-39q-17 -66 -17 -110q0 -25 5 -47t23 -42.5t48 -20.5q17 0 38.5 3.5t65 28t76.5 66.5q9 11 13 11q6 0 11 -6t5 -10 q0 -10 -24.5 -36t-76.5 -52.5t-110 -26.5q-68 0 -105.5 51.5t-37.5 123.5zM206 253h21q15 0 27 0.5t38.5 3t46.5 9.5t41.5 18t33 30.5t11.5 44.5q0 26 -17 43.5t-46 17.5q-7 0 -16 -1.5t-30.5 -10.5t-39.5 -25t-38 -50t-32 -80z" />
<glyph unicode="f" horiz-adv-x="307" d="M-25 -139q0 25 15 40t35 15q13 0 23.5 -8.5t10.5 -23.5q0 -17 -11.5 -31t-32.5 -18q13 -18 40 -18q37 0 57 86q12 43 28 124l73 373h-62q-25 0 -25 11q0 14 6 17t21 3h66l21 110q34 164 130 164q33 0 57.5 -17.5t24.5 -48.5q0 -25 -15 -40t-35 -15q-13 0 -23.5 8.5 t-10.5 23.5q0 17 11.5 31t32.5 18q-15 18 -42 18q-17 0 -29 -17t-16 -31.5t-10 -41.5l-32 -162h78q10 0 14.5 -0.5t7.5 -3.5t3 -9q0 -12 -6 -15t-21 -3h-82l-70 -359q-6 -29 -13.5 -56.5t-25.5 -77.5t-47.5 -81t-65.5 -31q-31 0 -55.5 17.5t-24.5 48.5z" />
<glyph unicode="g" horiz-adv-x="460" d="M53 -147q0 26 16 39.5t33 13.5q18 0 26.5 -10t8.5 -22q0 -13 -9 -26.5t-23 -19.5q27 -11 71 -11q55 0 95 47q20 24 28 44t18 61l21 84q-53 -53 -106 -53q-55 0 -88.5 44t-33.5 109q0 106 71.5 197.5t155.5 91.5q56 0 84 -57q3 19 15 28t24 9q27 0 27 -26q0 -6 -4 -21 l-109 -438q-15 -60 -69.5 -101t-130.5 -41q-121 0 -121 58zM178 109q0 -9 1.5 -19t6 -27.5t17 -29t31.5 -11.5q37 0 77 40.5t47 69.5l45 182l3 14q0 6 -2.5 18.5t-9 30t-21.5 30.5t-36 13q-28 0 -58.5 -28.5t-49.5 -70.5q-16 -37 -33.5 -107t-17.5 -105z" />
<glyph unicode="h" d="M75 15q1 11 2 13l148 590q3 14 3 17q0 6 -2 9t-13.5 5.5t-34.5 2.5q-24 0 -24 11q0 9 3.5 13.5t7.5 5.5t12 2l99 8q6 2 16 2q14 0 14 -12q-2 -10 -3 -13l-73 -292q22 21 34.5 31.5t40 22t58.5 11.5q44 0 74 -24t30 -80q0 -61 -61 -223q-18 -54 -18 -75q0 -29 22 -29 q56 0 93 125q3 12 5.5 14.5t11.5 2.5q15 0 15 -10q0 -3 -4 -18t-14 -38.5t-24 -45t-36.5 -37t-48.5 -15.5q-35 0 -55.5 23t-20.5 57q0 22 16 64q58 166 58 221q0 66 -46 66q-74 0 -133 -95q-19 -34 -28 -70q-3 -11 -8 -32.5t-8 -32.5l-43 -173q-3 -10 -13 -19t-24 -9 q-13 0 -20.5 8t-7.5 18z" />
<glyph unicode="i" horiz-adv-x="307" d="M83 288q0 2 3 13t9 29t17 37t24 36t33 28t42 11q19 0 35.5 -8t28 -27t11.5 -45q0 -21 -12 -56l-64 -171q-26 -74 -26 -96q0 -28 22 -28q59 0 93 125q3 12 5.5 14.5t11.5 2.5q15 0 15 -10q0 -3 -4 -17.5t-14 -38t-23.5 -45.5t-36.5 -37.5t-49 -15.5q-37 0 -56.5 24 t-19.5 56q0 20 18 69q41 108 67 182q18 49 18 72q0 28 -22 28q-59 0 -93 -126q-3 -11 -6 -13.5t-12 -2.5q-15 0 -15 10zM249 591q0 16 9.5 30.5t24 23.5t30.5 9q21 0 33 -13t12 -30q0 -16 -9.5 -30.5t-24 -23.5t-30.5 -9q-21 0 -33 12.5t-12 30.5z" />
<glyph unicode="j" horiz-adv-x="307" d="M-35 -146q0 24 16 38t33 14q18 0 26.5 -10t8.5 -22q-1 -36 -36 -47q18 -10 40 -10q33 0 59 32.5t35 57.5t11 37l96 385q7 28 7 51q0 40 -27 40q-67 0 -117 -125q-3 -9 -5 -12t-4.5 -4t-9.5 -1q-15 0 -15 10q0 3 6 18.5t19 38.5t30.5 44.5t43 37t53.5 15.5q40 0 63 -26.5 t23 -63.5q0 -18 -5 -33l-93 -374q-15 -60 -63 -105t-108 -45q-33 0 -60 14t-27 45zM249 591q0 24 20 43.5t44 19.5q21 0 33 -13t12 -30q0 -24 -20 -43.5t-44 -19.5q-21 0 -33 12.5t-12 30.5z" />
<glyph unicode="k" horiz-adv-x="460" d="M75 15q1 11 2 13l148 590q3 14 3 17q0 6 -2 9t-13.5 5.5t-34.5 2.5q-24 0 -24 11q0 9 3.5 13.5t7.5 5.5t12 2l99 8q6 2 16 2q14 0 14 -12q-2 -10 -3 -13l-102 -408q26 12 45 30t63 69q70 82 130 82q31 0 47 -18.5t16 -41.5q0 -26 -15.5 -41t-34.5 -15q-18 0 -26.5 10 t-8.5 22q0 7 2.5 15.5t14 20t30.5 14.5q-8 12 -27 12q-24 0 -49.5 -16.5t-41 -32.5t-50.5 -56q-42 -48 -71 -66q133 -19 133 -104q0 -13 -6.5 -40.5t-6.5 -50.5q0 -43 29 -43q16 0 28.5 10.5t21.5 31t14.5 36.5t11.5 41q4 16 7 19.5t12 3.5q15 0 15 -10q0 -3 -4 -19t-13 -41 t-19 -42q-30 -52 -77 -52q-33 0 -58.5 24t-25.5 73q0 5 3.5 29t3.5 30q0 27 -18.5 46t-39 27t-43.5 11l-51 -203q-8 -37 -39 -37q-13 0 -20.5 8t-7.5 18z" />
<glyph unicode="l" horiz-adv-x="256" d="M94 79q0 15 6 39l125 500q3 14 3 17q0 6 -2 9t-13.5 5.5t-34.5 2.5q-24 0 -24 11q0 9 3.5 13.5t7.5 5.5t12 2l99 8q6 2 16 2q14 0 14 -12q-2 -10 -3 -13l-143 -571q-6 -24 -6 -46q0 -41 26 -41q37 0 64 112l7 25q3 5 14 5q15 0 15 -10q0 -2 -4 -19t-11.5 -42t-15.5 -41 q-27 -52 -71 -52q-36 0 -60 25.5t-24 64.5z" />
<glyph unicode="m" horiz-adv-x="818" d="M83 288q13 61 32 101q28 53 72 53q33 0 56 -21.5t28 -57.5q58 79 143 79q40 0 70 -20.5t35 -67.5q60 88 150 88q43 0 74 -23.5t31 -80.5q0 -61 -61 -223q-18 -54 -18 -75q0 -29 22 -29q56 0 93 125q3 12 5.5 14.5t11.5 2.5q15 0 15 -10q0 -3 -4 -18t-14 -38.5t-24 -45 t-36.5 -37t-48.5 -15.5q-35 0 -55.5 23t-20.5 57q0 22 16 64q58 166 58 221q0 66 -46 66q-78 0 -141 -108q-11 -19 -25 -72q-3 -11 -8.5 -32.5t-7.5 -32.5l-40 -160q-10 -26 -36 -26q-14 0 -21 8t-7 18q0 5 3 14l65 260q9 41 9 65q0 66 -46 66q-78 0 -141 -108 q-11 -19 -25 -72q-2 -11 -8 -32.5t-8 -32.5l-40 -160q-10 -26 -36 -26q-14 0 -21 8t-7 18q0 5 3 14l75 300q7 28 7 51q0 40 -26 40q-22 0 -37.5 -30t-30.5 -89q-4 -16 -6.5 -19.5t-12.5 -3.5q-15 0 -15 10z" />
<glyph unicode="n" horiz-adv-x="562" d="M83 288q13 61 32 101q28 53 72 53q33 0 56 -21.5t28 -57.5q10 15 24.5 30t48 32t70.5 17q44 0 74 -24t30 -80q0 -61 -61 -223q-18 -54 -18 -75q0 -29 22 -29q56 0 93 125q3 12 5.5 14.5t11.5 2.5q15 0 15 -10q0 -3 -4 -18t-14 -38.5t-24 -45t-36.5 -37t-48.5 -15.5 q-35 0 -55.5 23t-20.5 57q0 22 16 64q58 166 58 221q0 66 -46 66q-77 0 -135 -99q-17 -28 -30 -81q-2 -11 -8 -32.5t-8 -32.5l-40 -160q-10 -26 -36 -26q-14 0 -21 8t-7 18q0 5 3 14l75 300q7 28 7 51q0 40 -26 40q-22 0 -37.5 -30t-30.5 -89q-4 -16 -6.5 -19.5t-12.5 -3.5 q-15 0 -15 10z" />
<glyph unicode="o" d="M110 154q0 109 79.5 198.5t173.5 89.5q65 0 105.5 -46t40.5 -118q0 -109 -79.5 -199t-173.5 -90q-64 0 -105 44.5t-41 120.5zM180 114q0 -51 22 -77t54 -26q36 0 71 28.5t58 71.5q22 42 38 106t16 100q0 45 -20.5 74t-56.5 29q-31 0 -64 -23.5t-60 -67.5 q-23 -39 -40.5 -107t-17.5 -108z" />
<glyph unicode="p" d="M14 -182q0 19 21 19q30 1 39.5 6.5t15.5 28.5l114 458q7 28 7 50q0 40 -26 40q-22 0 -37.5 -30t-30.5 -89q-4 -16 -6.5 -19.5t-12.5 -3.5q-15 0 -15 10q13 61 32 101q28 53 72 53q25 0 49.5 -15.5t32.5 -54.5q60 70 121 70q49 0 84.5 -40.5t35.5 -115.5 q0 -111 -72.5 -204t-155.5 -93q-34 0 -55 19t-29 39l-36 -146q-11 -44 -11 -48q0 -6 2 -9t13.5 -5t35.5 -2t24 -12q0 -19 -19 -19q-15 0 -48 1.5t-49 1.5q-14 0 -42.5 -1.5t-41.5 -1.5q-12 0 -12 12zM213 104q0 -10 4 -28.5t21 -41.5t43 -23q33 0 62 32t44 63 q21 46 38.5 119t17.5 106t-12.5 61t-42.5 28q-38 0 -78 -41t-47 -72l-47 -189q-3 -12 -3 -14z" />
<glyph unicode="q" horiz-adv-x="460" d="M108 144q0 109 73 203.5t156 94.5q60 0 86 -64q12 21 33.5 42t29.5 21q11 0 11 -11q-2 -10 -3 -13l-137 -546l-3 -18q0 -6 2 -9t13.5 -5t35.5 -2t24 -12q0 -19 -19 -19q-16 0 -50 1.5t-51 1.5t-50.5 -1.5t-49.5 -1.5q-13 0 -13 12q0 13 6 16t18 3q47 1 57 8t19 40 q9 37 18.5 76.5t20.5 80.5q-55 -53 -106 -53q-55 0 -88 44.5t-33 110.5zM176 100q0 -33 12 -61t43 -28q37 0 77 41t47 70l48 192q3 9 3 13q0 32 -20 64q-19 29 -49 29t-61.5 -32t-50.5 -79q-15 -35 -32 -104.5t-17 -104.5z" />
<glyph unicode="r" horiz-adv-x="422" d="M83 288q13 61 32 101q28 53 72 53q28 0 51.5 -17.5t31.5 -54.5q52 72 121 72q35 0 66.5 -14.5t31.5 -48.5q0 -26 -16 -39.5t-33 -13.5q-18 0 -26.5 10t-8.5 22q0 5 2 12.5t11 19t25 16.5q-20 14 -53 14q-24 0 -46.5 -14t-37 -31.5t-26.5 -39.5t-16 -32l-6 -15l-65 -262 q-9 -37 -39 -37q-14 0 -21 8t-7 18q0 5 3 14l75 300q7 28 7 51q0 40 -26 40q-22 0 -37.5 -30t-30.5 -89q-4 -16 -6.5 -19.5t-12.5 -3.5q-15 0 -15 10z" />
<glyph unicode="s" horiz-adv-x="409" d="M76 86q0 31 15.5 46.5t35.5 15.5q16 0 25 -9t9 -23q0 -5 -1.5 -12.5t-14 -21t-35.5 -15.5q18 -56 96 -56q29 0 53 8.5t37.5 21.5t23 29t13 29t3.5 24q0 19 -7 32.5t-22 21.5t-26.5 11.5t-33.5 8.5q-13 3 -21 5t-23.5 9.5t-24.5 17t-16.5 26.5t-7.5 39q0 50 40 99t118 49 q48 0 77.5 -24.5t29.5 -60.5q0 -29 -13.5 -42t-29.5 -13t-23 8.5t-7 19.5t9.5 24.5t30.5 16.5q-14 49 -75 49q-52 0 -76.5 -32t-24.5 -60q0 -20 11.5 -32.5t22.5 -16.5t30 -8q17 -4 28.5 -7t30.5 -12t30.5 -20t20.5 -30.5t9 -44.5q0 -16 -5 -35.5t-18.5 -43.5t-33.5 -43.5 t-54 -32.5t-77 -13q-55 0 -92 26.5t-37 70.5z" />
<glyph unicode="t" horiz-adv-x="332" d="M91 412q0 13 6.5 16t21.5 3h85l39 159q10 36 39 36q27 0 27 -26q0 -7 -4 -21l-37 -148h80q10 0 14 -0.5t7.5 -3t3.5 -8.5q0 -13 -6.5 -16t-21.5 -3h-85l-74 -297q-7 -28 -7 -51q0 -41 27 -41q38 0 67.5 38t47.5 85q6 14 8.5 16.5t11.5 2.5q15 0 15 -10q0 -3 -6 -18 t-19 -38.5t-30 -45t-43 -37t-54 -15.5q-38 0 -61.5 26t-23.5 64q0 14 5 34l72 287h-80q-10 0 -14 0.5t-7.5 3t-3.5 8.5z" />
<glyph unicode="u" horiz-adv-x="537" d="M83 288q0 3 4 18t14.5 38.5t24 45t36.5 37t49 15.5q33 0 54.5 -22t21.5 -59q0 -20 -13 -54q-58 -158 -58 -219q0 -77 54 -77q53 0 92 58q8 12 14 33l73 292q9 37 39 37q14 0 21 -8t7 -18q0 -5 -3 -14l-72 -288q-7 -28 -7 -51q0 -41 26 -41q37 0 67 119q4 16 7 19.5 t12 3.5q15 0 15 -10q-12 -60 -30 -98q-27 -56 -73 -56q-60 0 -80 60q-48 -60 -111 -60q-47 0 -79.5 28t-32.5 88q0 56 52 196q24 67 24 90q0 29 -22 29q-60 0 -93 -126q-3 -11 -6 -13.5t-12 -2.5q-15 0 -15 10z" />
<glyph unicode="v" horiz-adv-x="460" d="M83 288q0 3 4 18t14.5 38.5t24 45t36.5 37t49 15.5q33 0 54.5 -22t21.5 -59q0 -15 -11 -50q-59 -157 -59 -217q0 -32 14.5 -57.5t50.5 -25.5q40 0 73.5 39t51.5 91t27.5 93t9.5 56q0 50 -27 79q-13 15 -13 27q0 17 15.5 31.5t32.5 14.5q21 0 31 -18.5t10 -47.5 q0 -12 -6 -50t-21.5 -97t-38 -111.5t-62 -90.5t-86.5 -38q-51 0 -87 28.5t-36 91.5q0 52 51 192q24 67 24 90q0 29 -22 29q-60 0 -93 -126q-3 -11 -6 -13.5t-12 -2.5q-15 0 -15 10z" />
<glyph unicode="w" horiz-adv-x="664" d="M83 288q0 3 4 18t14.5 38.5t24 45t36.5 37t49 15.5q33 0 54.5 -22t21.5 -59q0 -20 -12 -53q-57 -151 -57 -210q0 -10 1.5 -20t7 -27.5t21.5 -28.5t40 -11q34 0 59 38.5t25 55.5q0 31 8 63l57 228q9 35 38 35q14 0 21 -8t7 -18q0 -7 -16 -66l-42 -168q-12 -48 -12 -77 q0 -36 15.5 -59.5t50.5 -23.5q61 0 100 93q15 36 32 97t17 89q0 50 -27 79q-13 15 -13 27q0 17 15.5 31.5t32.5 14.5q21 0 31 -18.5t10 -47.5q0 -40 -23 -132t-46 -143q-47 -112 -132 -112q-43 0 -72.5 17.5t-41.5 46.5q-38 -64 -97 -64t-94 31q-34 31 -34 92q0 53 50 189 q24 67 24 90q0 29 -22 29q-60 0 -93 -126q-3 -11 -6 -13.5t-12 -2.5q-15 0 -15 10z" />
<glyph unicode="x" horiz-adv-x="464" d="M53 51q0 24 15 39t35 15q34 0 34 -32q0 -14 -9.5 -28.5t-29.5 -19.5q17 -14 44 -14q21 0 37.5 12t28 37t17.5 44.5t14 51.5l23 91q21 86 21 110q0 30 -13 46.5t-35 16.5q-33 0 -66.5 -32t-52.5 -93q-4 -12 -6 -14.5t-12 -2.5q-15 0 -15 10t10.5 34t28.5 51.5t49 48 t66 20.5q71 0 96 -68q12 23 37 45.5t61 22.5q30 0 58.5 -14.5t28.5 -48.5q0 -26 -16 -39.5t-33 -13.5q-18 0 -26.5 10t-8.5 22q0 4 1 10.5t11 20t28 17.5q-16 14 -44 14q-59 0 -88 -107l-34 -137q-19 -81 -19 -101q0 -35 14 -49.5t33 -14.5q34 0 67 32t52 93q4 12 6.5 14.5 t11.5 2.5q15 0 15 -10q0 -9 -10 -32.5t-28 -51.5t-49 -49t-67 -21q-27 0 -54.5 15t-40.5 53q-39 -68 -98 -68q-36 0 -62 17t-26 45z" />
<glyph unicode="y" horiz-adv-x="486" d="M83 288q0 3 4 18t14.5 38.5t24 45t36.5 37t49 15.5q33 0 54.5 -22t21.5 -59q0 -20 -13 -54q-58 -158 -58 -219q0 -77 54 -77q40 0 69.5 30.5t36.5 58.5l73 294q9 37 39 37q14 0 21 -8t7 -18q0 -2 -1.5 -6.5t-1.5 -7.5l-98 -394q-20 -79 -83 -140.5t-137 -61.5 q-42 0 -69 23.5t-27 62.5q0 25 11 40.5t21 18.5t19 3q14 0 24 -8.5t10 -23.5t-11 -30t-32 -18l-8 -3q0 -4 5 -13.5t20 -19.5t37 -10q46 0 91 48.5t71 160.5q-37 -37 -90 -37q-47 0 -79.5 28t-32.5 88q0 56 52 196q24 67 24 90q0 29 -22 29q-60 0 -93 -126q-3 -11 -6 -13.5 t-12 -2.5q-15 0 -15 10z" />
<glyph unicode="z" horiz-adv-x="409" d="M62 -1q0 9 33 55.5t71 83.5l164 163q10 10 40 44q-26 0 -59 15q-40 18 -60 18q-26 0 -46.5 -14.5t-27.5 -32.5q-4 -9 -6.5 -11.5t-11.5 -2.5q-15 0 -15 11q0 25 34.5 69.5t82.5 44.5q32 0 61 -39q26 -36 47 -36q14 0 26.5 11.5t35.5 50.5q5 9 7.5 11t11.5 2q14 0 14 -10 q0 -5 -14 -27.5t-40 -55.5t-53 -60l-145 -143q-21 -21 -56 -61q5 1 18 1q23 0 62 -17q36 -16 56 -16q33 0 64.5 23.5t44.5 60.5q3 10 5.5 13t11.5 3q15 0 15 -10q0 -16 -16.5 -50.5t-53.5 -69t-81 -34.5q-14 0 -26.5 6.5t-18.5 13t-17 19.5q-15 21 -24 28.5t-24 7.5 q-13 0 -25 -6t-24.5 -20.5t-15.5 -19t-14 -20.5q-5 -9 -16 -9q-15 0 -15 10z" />
<glyph unicode="{" horiz-adv-x="500" d="M135 250q2 11 16 11q63 4 116 45q24 20 33 42t27 96l46 183q15 53 80 88t142 35h8.5t6 -1t3 -3.5t-0.5 -6.5q-3 -9 -12 -11q-71 -4 -122 -46q-22 -17 -30.5 -38t-23.5 -81l-45 -180q-4 -17 -9.5 -29t-20.5 -34t-46 -40t-75 -30q93 -29 90 -103q-2 -20 -21 -91l-37 -150 q-10 -38 -9 -48q0 -32 25 -57.5t78 -28.5q7 -1 8.5 -1t4.5 -2.5t0 -7.5q-2 -11 -22 -11q-84 0 -130 38q-29 25 -31 56.5t11 72.5l50 198q9 30 3.5 51t-14.5 35t-26.5 22t-31 11.5t-28.5 4.5q-7 1 -8.5 1t-4.5 2.5t0 7.5z" />
<glyph unicode="|" horiz-adv-x="278" d="M65 -217l233 934q9 33 29 33t11 -33l-233 -934q-9 -33 -28 -33q-21 0 -12 33z" />
<glyph unicode="}" horiz-adv-x="500" d="M12 -239q3 9 12 11q33 2 59.5 10.5t36.5 15.5t27 20q21 17 29.5 38t23.5 81l45 180q4 17 9.5 29t20.5 34t46.5 40t75.5 30q-94 28 -91 103q0 2 21 91l38 150q9 39 9 48q0 32 -25 57.5t-79 28.5q-7 1 -8.5 1t-4.5 2.5t0 7.5q3 11 23 11q82 0 129 -38q29 -25 31 -56.5 t-11 -72.5l-50 -198q-9 -30 -3.5 -51t14.5 -35t26.5 -22t31 -11.5t28.5 -4.5q5 -1 6.5 -1t5 -1t2.5 -3t0 -6q-3 -11 -17 -11q-65 -4 -115 -45q-24 -20 -33 -41.5t-28 -96.5l-46 -183q-15 -53 -79.5 -88t-141.5 -35q-7 0 -10 0.5t-6 3t-2 7.5z" />
<glyph unicode="~" horiz-adv-x="556" d="M52 210l65 44q24 16 66 35q45 18 78 18q40 0 94 -35.5t92 -35.5q67 0 171 71l9 -17l-65 -44q-22 -16 -65 -35q-45 -18 -78 -18q-41 0 -94.5 35.5t-91.5 35.5q-69 0 -171 -71z" />
<glyph unicode="&#xa0;" />
<glyph unicode="&#xa1;" horiz-adv-x="307" d="M58 -175q0 7 5 21l149 450q5 12 7.5 14.5t10.5 2.5q15 0 15 -12q0 -3 -2 -12l-75 -445q-4 -26 -21 -41t-27 -17t-17 -2q-21 0 -33 12.5t-12 28.5zM211 437q0 24 20 43.5t45 19.5q19 0 31.5 -12t12.5 -31q0 -25 -20 -44t-44 -19q-21 0 -33 13t-12 30z" />
<glyph unicode="&#xa2;" horiz-adv-x="460" d="M110 154q0 104 74 191.5t164 95.5l5 20q4 15 19 15q6 0 9.5 -4.5t1.5 -10.5l-5 -20q42 -4 67 -27.5t25 -57.5q0 -27 -15 -43.5t-36 -16.5q-16 0 -25 9.5t-9 22.5q0 2 0.5 5t3 10.5t7 14t15 12t24.5 7.5q-13 37 -62 43l-102 -408q35 2 81 23.5t87 73.5q9 11 13 11 q6 0 11 -6t5 -10q0 -5 -9 -17.5t-27 -28.5t-41.5 -31t-57 -26t-68.5 -12l-4 -19q-6 -15 -19 -15q-7 0 -10 4.5t-1 10.5l5 20q-57 8 -91.5 52t-34.5 112zM180 114q0 -88 61 -101l101 404q-64 -15 -109 -97q-19 -36 -36 -101t-17 -105z" />
<glyph unicode="&#xa3;" horiz-adv-x="769" d="M88 38q0 36 39 68.5t92 32.5q31 0 59 -12q4 11 28 101l26 104h-52q-24 0 -24 10t3.5 14.5t8 5.5t15.5 1h57l39 160q18 74 77.5 128.5t125.5 54.5q56 0 86 -38t30 -95q0 -93 -55 -93q-13 0 -23.5 8.5t-10.5 23.5q0 22 18 38q12 10 40 10v17q0 51 -22.5 79t-61.5 28 q-38 0 -76 -35.5t-59 -109.5l-44 -176h77q24 0 24 -10t-3.5 -14.5t-8 -5.5t-15.5 -1h-82l-40 -163q-8 -32 -30 -69q62 -44 87 -57t57 -13q41 0 78 29.5t52 71.5q4 12 6.5 14.5t11.5 2.5q15 0 15 -10q0 -35 -53 -92t-128 -57q-36 0 -63.5 14t-91.5 59q-27 -33 -66.5 -53 t-75.5 -20q-28 0 -47.5 12.5t-19.5 36.5zM125 37q0 -10 7.5 -18t22.5 -8q25 0 53.5 19t49.5 55q-29 13 -57 13q-31 0 -53.5 -20t-22.5 -41z" />
<glyph unicode="&#xa4;" horiz-adv-x="767" d="M176 34q-16 11 14 34l75 60q-12 22 -16.5 45.5t-1.5 46t10 44.5t18.5 41.5t24 36t26.5 30.5l-48 63q-14 16 1 29q18 13 33 3q3 -2 10 -13l41 -53q63 42 131 42q70 0 111 -43l67 54q7 6 10.5 8t10 5.5t12.5 3t11 -4.5q16 -11 -14 -34l-76 -60q18 -31 19.5 -67t-10.5 -68.5 t-29.5 -59.5t-38.5 -48l48 -63q12 -18 -1 -29q-17 -14 -34 -3l-2 2t-3 4t-5 7l-40 53q-64 -43 -132 -43q-70 0 -111 43l-67 -54q-29 -23 -44 -12zM293 250q-16 -64 17.5 -108.5t97.5 -44.5q63 0 119 44.5t72 108.5t-17.5 108.5t-97.5 44.5q-42 0 -82 -20.5t-69.5 -55.5 t-39.5 -77z" />
<glyph unicode="&#xa5;" horiz-adv-x="743" d="M191 167q-15 0 -10.5 15t17.5 15h183q19 74 19 76q0 5 -4 15l-5 15h-166q-15 0 -10.5 15t17.5 15h150l-92 289q-5 18 -17.5 24t-46.5 6q-24 0 -24 12q0 19 19 19q16 0 51.5 -1.5t52.5 -1.5q20 0 59 1.5t58 1.5q14 0 14 -12q0 -13 -5.5 -16t-16.5 -3q-56 0 -56 -24 q0 -3 4 -13l89 -282h21l204 249l3 4q3 4 6.5 9t7 11t6 12t2.5 11q0 21 -31 23q-15 0 -15 12q0 19 18 19q15 0 46 -1.5t47 -1.5q13 0 38.5 1.5t37.5 1.5q5 0 8 -2.5t4 -5.5v-3q0 -13 -4.5 -16t-14.5 -4q-37 -3 -68 -21.5t-65 -60.5l-195 -237h151q6 0 9.5 -4.5t2.5 -10.5 q-4 -15 -19 -15h-169l-16 -20q-6 -7 -12 -27l-15 -59h185q6 0 9.5 -4.5t2.5 -10.5q-4 -15 -19 -15h-185l-9 -34q-19 -79 -19 -85q0 -11 14 -14t44 -3q11 0 15.5 -0.5t8 -3t3.5 -8.5q0 -19 -19 -19t-59 1.5t-60 1.5q-19 0 -58 -1.5t-58 -1.5q-14 0 -14 12q0 13 6 16t19 3 q55 1 66.5 9t21.5 50l20 77h-183z" />
<glyph unicode="&#xa6;" horiz-adv-x="278" d="M65 -217l93 374q3 15 24 15q8 0 12.5 -4t3.5 -11l-93 -374q-9 -33 -28 -33q-21 0 -12 33zM205 343l93 374q9 33 29 33t11 -33l-93 -374q-3 -15 -24 -15q-8 0 -12.5 4t-3.5 11z" />
<glyph unicode="&#xa7;" horiz-adv-x="490" d="M85 -29q4 16 18.5 28t31.5 12q16 0 25 -11.5t5 -28.5q-5 -17 -19.5 -28.5t-30.5 -11.5h-5q1 -43 26 -70.5t67 -27.5q48 0 88.5 38.5t53.5 90.5q19 75 -67 124l-81 48q-50 30 -76 74t-13 98q20 76 117 120q-26 53 -11 112q17 72 78.5 123.5t130.5 51.5q67 0 96.5 -54.5 t10.5 -129.5q-4 -16 -18.5 -28t-31.5 -12q-16 0 -25 11.5t-5 28.5q5 17 19.5 28.5t30.5 11.5h5q-1 43 -26 70.5t-67 27.5q-48 0 -88.5 -38.5t-53.5 -90.5q-19 -75 67 -124l81 -48q50 -30 76 -74t13 -98q-20 -76 -117 -120q27 -53 11 -112q-17 -72 -78.5 -123.5t-130.5 -51.5 q-67 0 -96.5 54.5t-10.5 129.5zM180 306q-17 -70 62 -115l81 -48q33 -21 52 -46q41 26 60 97q17 70 -62 115l-81 48q-30 18 -52 46q-41 -28 -60 -97z" />
<glyph unicode="&#xa8;" d="M268 592q0 22 18 39.5t40 17.5q19 0 29.5 -11.5t10.5 -27.5q0 -22 -18 -39.5t-39 -17.5q-19 0 -30 11.5t-11 27.5zM445 592q0 22 18 39.5t40 17.5q19 0 29.5 -11.5t10.5 -27.5q0 -22 -18 -39.5t-39 -17.5q-19 0 -30 11.5t-11 27.5z" />
<glyph unicode="&#xa9;" horiz-adv-x="683" d="M0 342q0 141 100 241t242 100q141 0 241 -100t100 -241q0 -142 -100 -242t-241 -100q-142 0 -242 100t-100 242zM40 342q0 -125 88.5 -213.5t213.5 -88.5t213 88.5t88 213.5q0 124 -88.5 212.5t-212.5 88.5q-125 0 -213.5 -88t-88.5 -213zM149 284q0 105 79 190t173 85 q58 0 90 -51l38 45l9 6q3 0 4.5 -1.5t1.5 -3.5l1 -1q0 -1 -0.5 -4t-0.5 -4l-37 -146q-2 -10 -11 -10t-9 6q3 21 3 36q0 45 -20.5 77.5t-64.5 32.5q-36 0 -74 -21.5t-67 -61.5q-32 -44 -47.5 -102t-15.5 -95q0 -59 30 -88.5t73 -29.5t88.5 35t66.5 104q2 5 9 5q9 0 9 -6 q0 -35 -53 -96t-129 -61q-63 0 -104.5 44t-41.5 116z" />
<glyph unicode="&#xaa;" horiz-adv-x="473" d="M155 348q2 10 18 10h306q14 0 13 -8q-5 -11 -18 -13h-307q-6 0 -9.5 3.5t-2.5 7.5zM185 497q-4 76 53.5 142t128.5 66q48 0 71 -41q7 27 33 27q22 0 23 -18q0 -5 -2 -15l-48 -190q-4 -16 -4 -36q0 -28 23 -28q31 0 52 83q2 7 3 9t2.5 4.5t3.5 2.5h6q13 0 13 -7 q-8 -42 -21 -69q-22 -39 -60 -39q-24 0 -44 12.5t-28 36.5q-46 -49 -98 -49q-46 0 -75.5 31.5t-31.5 77.5zM243 466q1 -23 12.5 -42.5t37.5 -19.5q31 0 63 29t38 50l33 132l2 9q-2 25 -19 45.5t-43 20.5q-25 0 -50 -22.5t-40 -55.5q-11 -24 -23 -72.5t-11 -73.5z" />
<glyph unicode="&#xab;" horiz-adv-x="562" d="M190 235q-4 8 4 13q112 99 186 228q4 7 11 7h2q11 0 7 -12q-58 -123 -145 -229q35 -108 30 -230q0 -4 -4 -8t-9 -4h-2q-8 0 -8 7q-8 127 -72 228zM343 235q-4 8 4 13q112 99 186 228q3 7 11 7h2q11 0 7 -12q-58 -123 -145 -229q35 -108 30 -230q0 -4 -4 -8t-9 -4h-2 q-8 0 -8 7q-8 127 -72 228z" />
<glyph unicode="&#xac;" horiz-adv-x="767" d="M163 347q2 8 9.5 14t15.5 6h575q8 0 12.5 -6t2.5 -14l-49 -194q-1 -8 -9 -14t-16 -6t-12.5 6t-2.5 14l44 174h-555q-8 0 -12.5 6t-2.5 14z" />
<glyph unicode="&#xad;" horiz-adv-x="358" d="M86 200q0 9 7 30q3 9 7 11t19 2h195q10 0 14 -0.5t7.5 -3t3.5 -8.5q0 -8 -8 -32q-2 -8 -6.5 -10t-20.5 -2h-192q-11 0 -15.5 0.5t-7.5 3.5t-3 9z" />
<glyph unicode="&#xae;" horiz-adv-x="683" d="M0 342q0 141 100 241t242 100q141 0 241 -100t100 -241q0 -142 -100 -242t-241 -100q-142 0 -242 100t-100 242zM40 342q0 -125 88.5 -213.5t213.5 -88.5t213 88.5t88 213.5q0 124 -88.5 212.5t-212.5 88.5q-125 0 -213.5 -88t-88.5 -213zM154 151q0 7 4 9t12 2 q16 0 24.5 1t13.5 4.5t7 7.5t4 13l81 325q2 8 2 11q0 10 -34 10q-7 0 -10 0.5t-5 2t-2 4.5q0 8 4 10t13 2h158q54 0 87 -26t33 -63q0 -36 -33 -69t-93 -48q24 -8 38 -26.5t14 -43.5q0 -16 -4.5 -49t-4.5 -49q0 -35 20 -35q31 0 47 53q5 10 10 10q9 0 9 -8q0 -5 -6 -20 t-23 -31.5t-39 -16.5q-31 0 -52.5 16t-21.5 47q0 11 8 48q11 42 11 47q0 53 -57 53h-64l-39 -157q-3 -9 -3 -12q0 -4 1 -6t9.5 -3.5t24.5 -1.5t16 -7q0 -11 -11 -11t-35.5 1t-35.5 1q-12 0 -35 -1t-35 -1q-8 0 -8 7zM308 355h61q55 0 88 31q11 11 19 27t11 30.5t4 22.5t1 12 q0 13 -4 23.5t-13 16t-17 9.5t-21.5 5t-21 1.5t-20.5 0.5q-30 0 -35 -1q-9 -2 -13 -20z" />
<glyph unicode="&#xaf;" d="M240 599q0 12 6 14.5t21 2.5h280q25 0 25 -11q0 -13 -6 -16t-21 -3h-280q-10 0 -14.5 0.5t-7.5 3.5t-3 9z" />
<glyph unicode="&#xb0;" horiz-adv-x="383" d="M203 556q13 52 60 89.5t100 37.5t80.5 -37.5t14.5 -89.5q-13 -53 -59.5 -90.5t-99.5 -37.5t-81 37.5t-15 90.5zM243 556q-9 -37 10 -62.5t56 -25.5q36 0 68 25.5t41 62.5q9 36 -10 61.5t-55 25.5q-37 0 -69 -25.5t-41 -61.5z" />
<glyph unicode="&#xb1;" horiz-adv-x="767" d="M83 20q0 20 33 20h257l62 247h-248q-33 0 -33 20t33 20h258l65 262q6 25 22 25q9 0 14.5 -6t5.5 -14q0 -5 -4 -19l-62 -248h247q33 0 33 -20t-33 -20h-257l-61 -247h247q33 0 33 -20t-33 -20h-546q-33 0 -33 20z" />
<glyph unicode="&#xb2;" horiz-adv-x="386" d="M137 299q6 42 54 93q28 30 90 61q130 68 125 173q-1 34 -21 50t-46 16q-58 0 -97 -56.5t-37 -95.5q1 -19 17 -19q29 0 48 31t18 50q0 12 -9 25q0 7 8 7q6 0 11.5 -11.5t5.5 -20.5q1 -25 -21.5 -60t-60.5 -35q-36 0 -39 38q-1 16 9 41.5t28.5 52.5t51 46.5t69.5 19.5 q46 0 80.5 -26t36.5 -75q3 -53 -36 -87.5t-132 -79.5q-74 -37 -106 -87q2 2 15 2q22 0 66.5 -8.5t70.5 -8.5q33 0 54 20t30 44q2 7 3.5 9t7.5 2q11 0 11 -6q1 -7 -8.5 -32t-37 -52t-64.5 -27q-30 0 -71 24q-42 22 -62 22q-28 0 -39 -39q-2 -7 -12 -7t-11 6z" />
<glyph unicode="&#xb3;" horiz-adv-x="359" d="M142 369q-4 47 35 47q24 0 26 -19q0 -10 -9.5 -20t-29.5 -9q3 -31 25 -46.5t52 -15.5q49 0 84 35q22 23 31 57t7 49q-2 50 -58 50h-20q-18 0 -18 6q-1 9 3 11t15 2h16q33 0 58 12t36.5 28t18 35t7.5 30.5t0 16.5q-3 54 -64 54q-51 0 -91.5 -33.5t-38.5 -70.5 q2 -22 20 -22q16 0 29.5 11t12.5 26q0 4 -1.5 8.5t-3.5 6.5l-2 3l-3 6q0 7 8 7q6 0 11.5 -10.5t6.5 -19.5q1 -21 -17.5 -36t-39.5 -15q-20 0 -31 11t-12 27q-2 40 44.5 77t108.5 37q44 0 75 -21.5t32 -58.5q2 -36 -28 -71t-82 -50q56 -21 61 -76q3 -53 -51.5 -94t-123.5 -41 q-44 0 -70.5 22t-28.5 54z" />
<glyph unicode="&#xb4;" d="M328 522q0 5 10 15l142 142q17 17 31 17q10 0 19 -7.5t9 -20.5q0 -19 -20 -32l-161 -123q-9 -8 -14 -8t-10.5 5.5t-5.5 11.5z" />
<glyph unicode="&#xb5;" d="M23 -190q0 2 3 17l144 574q9 40 40 40q11 0 19 -7t8 -19l-15 -63l-45 -180q-12 -48 -12 -78q0 -83 67 -83q45 0 80 37t43 69l69 275q10 38 39 38q27 0 27 -26q0 -10 -15 -63q-6 -28 -17 -68l-30 -123q-20 -82 -20 -99q0 -40 26 -40q18 0 33.5 24t33.5 96q4 15 7 18.5 t12 3.5q15 0 15 -10q0 -2 -4 -18.5t-11 -40.5t-14 -38q-23 -41 -46 -51q-13 -6 -27 -6q-27 0 -50.5 17t-30.5 50q-58 -67 -124 -67q-55 0 -89 29q-14 -55 -23.5 -92.5t-12 -49t-5 -20.5t-5.5 -20q-4 -18 -7.5 -27t-12 -17t-22.5 -8q-13 0 -20.5 8t-7.5 18z" />
<glyph unicode="&#xb6;" horiz-adv-x="611" d="M172 463q23 95 113.5 163t194.5 68h243q10 0 15.5 -0.5t10 -5.5t2.5 -14q-5 -20 -38 -20h-50l-204 -815q-9 -33 -28 -33q-21 0 -12 33l204 815h-70l-204 -815q-9 -33 -28 -33q-21 0 -12 33l98 391q-50 2 -96 17t-83.5 42t-53.5 72.5t-2 101.5z" />
<glyph unicode="&#xb7;" horiz-adv-x="767" d="M414 332q0 24 20.5 43.5t44.5 19.5q20 0 32 -13t12 -30q0 -23 -20 -43t-45 -20q-20 0 -32 12t-12 31z" />
<glyph unicode="&#xb8;" horiz-adv-x="460" d="M102 -181q0 11 25 11h10q135 0 135 62q0 33 -48 37q-15 2 -15 13q0 2 3.5 15t7 28.5t4.5 18.5q2 6 25 6h13q26 0 27 -7l-14 -57q61 -12 61 -55q0 -83 -196 -83h-25q-13 0 -13 11z" />
<glyph unicode="&#xb9;" horiz-adv-x="375" d="M160 313q0 11 20 11h6q40 0 51 5t15 21l71 284q-39 -25 -79 -25q-11 0 -12 8q0 8 9 11h2q72 7 124 68q8 9 13 9q8 0 9 -7q-1 -6 -2 -8l-86 -342q0 -1 -1 -5.5t0 -6.5q0 -9 20 -10q20 -2 31 -2h6q19 0 19 -7q1 -11 -14 -11q-16 0 -48 1t-48 1t-48 -1t-47 -1q-10 0 -11 7z " />
<glyph unicode="&#xba;" horiz-adv-x="429" d="M155 348q3 10 18 10h263q13 0 12 -8q-5 -11 -18 -13h-262q-7 0 -10.5 3t-2.5 8zM186 504q-4 76 59.5 138.5t142.5 62.5q55 0 90.5 -32t38.5 -82q4 -77 -60 -140t-143 -63q-53 0 -89 31.5t-39 84.5zM246 476q2 -36 21.5 -54t46.5 -18q30 0 58.5 20t45.5 50q17 29 28.5 74 t10.5 70q-2 32 -20 52t-49 20q-58 0 -101 -64q-18 -27 -30.5 -74.5t-10.5 -75.5z" />
<glyph unicode="&#xbb;" horiz-adv-x="562" d="M131 12q58 124 145 230q-35 107 -30 229q0 4 4 8t9 4h2q6 0 8 -7q8 -127 72 -228q4 -6 -4 -13q-112 -99 -186 -228q-3 -7 -11 -7h-2q-5 0 -7 4t0 8zM284 12q58 124 145 230q-35 107 -30 229q0 4 4 8t9 4h2q6 0 8 -7q8 -127 72 -228q4 -6 -4 -13q-112 -99 -186 -228 q-4 -7 -11 -7h-2q-5 0 -7 4t0 8z" />
<glyph unicode="&#xbc;" horiz-adv-x="807" d="M160 313q0 11 20 11h6q40 0 51.5 5t15.5 21l70 284q-39 -25 -79 -25q-12 0 -12 8t9 11h2q72 7 124 68q8 9 12 9q10 0 10 -7q-1 -6 -2 -8l-86 -342q-2 -6 -2 -12q1 -9 22 -10q16 -2 30 -2h6q19 0 19 -7q1 -11 -13 -11q-16 0 -48.5 1t-48.5 1t-47 -1t-47 -1q-11 0 -12 7z M230 31l570 643q8 9 19 9q13 0 15 -11.5t-6 -18.5l-569 -644q-9 -9 -20 -9q-12 0 -14.5 12t5.5 19zM422 11q-1 6 10 13t17 8q8 5 20.5 15t43 41t53.5 65q63 90 97 217q2 8 3 11.5t4 9t8 7.5t13 2q20 0 20 -16q-1 -4 -2.5 -11.5t-8.5 -30.5t-16 -46.5t-26.5 -57t-39 -65 t-54.5 -67t-71 -66.5h19q28 0 56 -6q5 -1 9 -3t35 -11q0 2 11.5 48t13.5 51l1 3.5t1 4.5t1 3.5t2 3.5t2.5 3.5t3.5 3.5l4 2t5 1.5t7 0.5q20 0 20 -16q1 -2 -2 -12l-26 -107h12q26 0 53 9q4 0 7.5 -4t3.5 -7q0 -6 -24 -11.5t-42 -5.5q-10 0 -15 1l-22 -88q-4 -20 -26 -20 q-20 0 -21 15q0 1 0.5 2.5t1 4t1.5 6.5l21 89l-42 14q-25 7 -53 7q-41 0 -55 -9q-19 -12 -23 -12q-2 0 -4 1t-3.5 2.5t-2.5 3.5t-1 3z" />
<glyph unicode="&#xbd;" horiz-adv-x="807" d="M158 31l569 643q7 9 19 9q20 0 15 -20q0 -3 -5 -10l-570 -644q-9 -9 -19 -9q-13 0 -15 11.5t6 19.5zM160 313q0 11 20 11h6q40 0 51.5 5t15.5 21l70 284q-39 -25 -79 -25q-12 0 -12 8t9 11h2q72 7 124 68q8 9 12 9q10 0 10 -7q-1 -6 -2 -8l-86 -342q-2 -6 -2 -12 q1 -9 22 -10q16 -2 30 -2h6q19 0 19 -7q1 -11 -13 -11q-16 0 -48.5 1t-48.5 1t-47 -1t-47 -1q-11 0 -12 7zM448 -7q1 5 3.5 13t16.5 32.5t35 47.5l12 12t13 11t12 9t13 8.5t12.5 7t14 7.5t12.5 7q60 30 94 71t31 101q-1 24 -11.5 39.5t-24.5 21t-30 5.5q-31 0 -58 -18 t-43 -43t-25 -49.5t-8 -40.5q1 -20 17 -20q28 0 47.5 31t18.5 50q0 4 -1.5 8t-4 9.5t-3.5 8.5q-1 2 1.5 4t5.5 2q6 0 11.5 -11.5t5.5 -20.5q2 -23 -20.5 -58.5t-60.5 -35.5q-15 0 -24.5 7t-12 14.5t-2.5 15.5q-1 12 5 31.5t19 42t31 42t45 32.5t57 13q46 0 80.5 -26.5 t37.5 -75.5q1 -28 -9 -50.5t-34.5 -42.5t-51 -35.5t-73.5 -38.5q-73 -33 -107 -87q2 2 16 2q22 0 66 -8.5t70 -8.5q33 0 54 20t30 45q2 10 12 10t11 -6q0 -8 -9.5 -32t-36.5 -51.5t-64 -27.5q-28 0 -68 23t-66 23t-38 -38q-2 -8 -12 -8q-11 0 -12 6z" />
<glyph unicode="&#xbe;" horiz-adv-x="807" d="M187 369q0 47 36 47q26 0 26 -19q0 -10 -9 -20t-30 -9q3 -31 25 -46.5t52 -15.5q50 0 83 35q39 39 39 106q-2 50 -58 50h-20q-18 0 -18 6q-1 9 3 11t15 2h16q39 0 65.5 15t37 39.5t14 37.5t4.5 28v2q-4 54 -65 54q-51 0 -91.5 -33.5t-38.5 -70.5q2 -22 20 -22 q16 0 29.5 11t12.5 26l-7 18l-2 4l-1 2q0 7 8 7q6 0 11.5 -10.5t6.5 -19.5q1 -21 -17.5 -36t-40.5 -15q-38 0 -42 38q-2 40 44.5 77t108.5 37q44 0 74.5 -21.5t32.5 -58.5t-28 -71.5t-83 -49.5q57 -21 62 -76q2 -53 -52 -94t-123 -41q-44 0 -71 22.5t-29 53.5zM230 31 l570 643q8 9 19 9q13 0 15 -11.5t-6 -18.5l-569 -644q-9 -9 -20 -9q-12 0 -14.5 12t5.5 19zM422 11q-1 6 10 13t17 8q8 5 20.5 15t43 41t53.5 65q63 90 97 217q2 8 3 11.5t4 9t8 7.5t13 2q20 0 20 -16q-1 -4 -2.5 -11.5t-8.5 -30.5t-16 -46.5t-26.5 -57t-39 -65t-54.5 -67 t-71 -66.5h19q28 0 56 -6q5 -1 9 -3t35 -11q0 2 11.5 48t13.5 51l1 3.5t1 4.5t1 3.5t2 3.5t2.5 3.5t3.5 3.5l4 2t5 1.5t7 0.5q20 0 20 -16q1 -2 -2 -12l-26 -107h12q26 0 53 9q4 0 7.5 -4t3.5 -7q0 -6 -24 -11.5t-42 -5.5q-10 0 -15 1l-22 -88q-4 -20 -26 -20q-20 0 -21 15 q0 1 0.5 2.5t1 4t1.5 6.5l21 89l-42 14q-25 7 -53 7q-41 0 -55 -9q-19 -12 -23 -12q-2 0 -4 1t-3.5 2.5t-2.5 3.5t-1 3z" />
<glyph unicode="&#xbf;" d="M85 -92q0 34 10.5 63.5t30.5 53t33.5 36.5t35.5 30l78 63q53 41 67.5 58.5t14.5 44.5q0 34 -25 34q-23 0 -46 -19.5t-33 -48.5q-3 -10 -5.5 -12.5t-11.5 -2.5q-15 0 -15 10q0 23 33 59t78 36q29 0 44.5 -21t15.5 -49q0 -29 -14 -55t-24 -36t-31 -27l-121 -95 q-22 -19 -35 -31.5t-29 -42t-16 -62.5q0 -42 24.5 -65t60.5 -23q59 0 111.5 52t80.5 130q-38 0 -38 32q0 20 14.5 34.5t34.5 14.5q34 0 34 -32q0 -14 -9.5 -42.5t-30 -65t-47.5 -69t-67 -54.5t-83 -22q-54 0 -87 35t-33 89zM313 437q0 24 20 43.5t45 19.5q19 0 31.5 -12 t12.5 -31q0 -25 -20 -44t-44 -19q-21 0 -33 13t-12 30z" />
<glyph unicode="&#xc0;" horiz-adv-x="743" d="M59 12q1 18 12 19q17 1 28.5 3.5t28.5 9.5t33 24.5t31 44.5l332 585q10 18 26 18q12 0 14.5 -4t3.5 -21l43 -626q2 -21 11 -27.5t46 -6.5q10 0 14 -0.5t7 -3.5t3 -9q0 -18 -18 -18q-17 0 -52 1.5t-53 1.5q-19 0 -58 -1.5t-57 -1.5q-15 0 -15 12q0 19 23 19q67 0 67 32 l-11 166h-228l-72 -126q-14 -26 -14 -38q0 -27 42 -34q16 -2 16 -12q0 -19 -18 -19q-15 0 -46 1.5t-47 1.5q-13 0 -40.5 -1.5t-39.5 -1.5t-12 12zM307 260h209l-23 327zM452 873q4 14 17.5 23.5t27.5 9.5q11 0 22 -11l107 -116q6 -7 6 -13q-2 -6 -9.5 -12t-13.5 -7 q-4 -1 -12 5l-134 93q-16 12 -11 28z" />
<glyph unicode="&#xc1;" horiz-adv-x="743" d="M59 12q1 18 12 19q17 1 28.5 3.5t28.5 9.5t33 24.5t31 44.5l332 585q10 18 26 18q12 0 14.5 -4t3.5 -21l43 -626q2 -21 11 -27.5t46 -6.5q10 0 14 -0.5t7 -3.5t3 -9q0 -18 -18 -18q-17 0 -52 1.5t-53 1.5q-19 0 -58 -1.5t-57 -1.5q-15 0 -15 12q0 19 23 19q67 0 67 32 l-11 166h-228l-72 -126q-14 -26 -14 -38q0 -27 42 -34q16 -2 16 -12q0 -19 -18 -19q-15 0 -46 1.5t-47 1.5q-13 0 -40.5 -1.5t-39.5 -1.5t-12 12zM307 260h209l-23 327zM494 766q2 6 12 13l165 116q17 11 28 11q14 0 22 -9.5t6 -23.5q-3 -17 -25 -28l-180 -93q-11 -6 -15 -5 q-5 1 -9.5 7t-3.5 12z" />
<glyph unicode="&#xc2;" horiz-adv-x="743" d="M59 12q1 18 12 19q17 1 28.5 3.5t28.5 9.5t33 24.5t31 44.5l332 585q10 18 26 18q12 0 14.5 -4t3.5 -21l43 -626q2 -21 11 -27.5t46 -6.5q10 0 14 -0.5t7 -3.5t3 -9q0 -18 -18 -18q-17 0 -52 1.5t-53 1.5q-19 0 -58 -1.5t-57 -1.5q-15 0 -15 12q0 19 23 19q67 0 67 32 l-11 166h-228l-72 -126q-14 -26 -14 -38q0 -27 42 -34q16 -2 16 -12q0 -19 -18 -19q-15 0 -46 1.5t-47 1.5q-13 0 -40.5 -1.5t-39.5 -1.5t-12 12zM307 260h209l-23 327zM423 755l155 98q7 3 12 0l106 -98q6 -5 -1 -13.5t-14 -4.5l-112 55l-140 -55q-6 -2 -10 1t-3 8.5t7 8.5 z" />
<glyph unicode="&#xc3;" horiz-adv-x="743" d="M59 12q1 18 12 19q17 1 28.5 3.5t28.5 9.5t33 24.5t31 44.5l332 585q10 18 26 18q12 0 14.5 -4t3.5 -21l43 -626q2 -21 11 -27.5t46 -6.5q10 0 14 -0.5t7 -3.5t3 -9q0 -18 -18 -18q-17 0 -52 1.5t-53 1.5q-19 0 -58 -1.5t-57 -1.5q-15 0 -15 12q0 19 23 19q67 0 67 32 l-11 166h-228l-72 -126q-14 -26 -14 -38q0 -27 42 -34q16 -2 16 -12q0 -19 -18 -19q-15 0 -46 1.5t-47 1.5q-13 0 -40.5 -1.5t-39.5 -1.5t-12 12zM307 260h209l-23 327zM406 747q0 5 13 18.5t27 24.5l13 11q47 36 74 36q18 0 29 -10t25 -33t29 -23q19 0 51 24.5t39 33.5 q7 7 13 7q11 0 11 -10t-49 -50t-79 -40q-27 0 -51 39q-16 27 -32 27q-13 0 -35.5 -14.5t-37.5 -29.5l-16 -14q-9 -7 -13 -7q-11 0 -11 10z" />
<glyph unicode="&#xc4;" horiz-adv-x="743" d="M59 12q1 18 12 19q17 1 28.5 3.5t28.5 9.5t33 24.5t31 44.5l332 585q10 18 26 18q12 0 14.5 -4t3.5 -21l43 -626q2 -21 11 -27.5t46 -6.5q10 0 14 -0.5t7 -3.5t3 -9q0 -18 -18 -18q-17 0 -52 1.5t-53 1.5q-19 0 -58 -1.5t-57 -1.5q-15 0 -15 12q0 19 23 19q67 0 67 32 l-11 166h-228l-72 -126q-14 -26 -14 -38q0 -27 42 -34q16 -2 16 -12q0 -19 -18 -19q-15 0 -46 1.5t-47 1.5q-13 0 -40.5 -1.5t-39.5 -1.5t-12 12zM307 260h209l-23 327zM414 775q0 22 18 39.5t40 17.5q19 0 29.5 -11.5t10.5 -27.5q0 -22 -18 -39.5t-39 -17.5q-19 0 -30 11.5 t-11 27.5zM623 775q0 22 18 39.5t40 17.5q19 0 29.5 -11.5t10.5 -27.5q0 -22 -18 -39.5t-39 -17.5q-19 0 -30 11.5t-11 27.5z" />
<glyph unicode="&#xc5;" horiz-adv-x="743" d="M59 12q1 18 12 19q17 1 28.5 3.5t28.5 9.5t33 24.5t31 44.5l332 585q10 18 26 18q12 0 14.5 -4t3.5 -21l43 -626q2 -21 11 -27.5t46 -6.5q10 0 14 -0.5t7 -3.5t3 -9q0 -18 -18 -18q-17 0 -52 1.5t-53 1.5q-19 0 -58 -1.5t-57 -1.5q-15 0 -15 12q0 19 23 19q67 0 67 32 l-11 166h-228l-72 -126q-14 -26 -14 -38q0 -27 42 -34q16 -2 16 -12q0 -19 -18 -19q-15 0 -46 1.5t-47 1.5q-13 0 -40.5 -1.5t-39.5 -1.5t-12 12zM307 260h209l-23 327zM477 784q0 43 36.5 75.5t80.5 32.5q36 0 55.5 -20.5t19.5 -46.5q0 -42 -36.5 -75.5t-81.5 -33.5 q-30 0 -52 17.5t-22 50.5zM515 781q0 -35 44 -35q20 0 34.5 8t21.5 20t11 24t4 20l1 8q0 36 -44 36q-32 0 -50 -20t-20 -40z" />
<glyph unicode="&#xc6;" horiz-adv-x="883" d="M59 13q0 11 5 14t15 4q36 3 62 20t52 62l312 538q-8 1 -29 1h-20q-10 0 -14.5 0.5t-8 3t-3.5 8.5q0 13 6 16t22 3h466q12 0 16.5 -1t6.5 -6.5t1 -17.5l-23 -177q-1 -8 -1.5 -11.5t-2.5 -6.5t-5 -4t-8 -1q-16 0 -16 12l2 13l6 69q5 60 -30 82q-27 18 -91 18h-90 q-27 0 -35 -5t-14 -31l-67 -272h76q58 0 79.5 19.5t35.5 76.5q4 14 7 17.5t12 3.5q15 0 15 -11q0 -7 -2 -13l-55 -221q-2 -9 -5 -13.5t-5.5 -5.5t-8.5 -1q-15 0 -15 12q0 5 5.5 27t5.5 37q0 22 -13 31.5t-58 9.5h-82l-63 -250q0 -1 -2 -9.5t-2 -12.5t1 -6t8 -3t22 -1h91 q53 0 88.5 11t61.5 38.5t41.5 56.5t38.5 84q2 4 4.5 11t4 10.5t4 7.5t6 6t8.5 2q15 0 15 -11q-3 -10 -4 -12l-89 -219q-5 -11 -9 -13.5t-19 -2.5h-404q-10 0 -14 0.5t-7.5 3t-3.5 8.5q0 19 23 19q36 0 46 6.5t16 31.5l61 244h-146l-124 -213q-13 -23 -13 -36q0 -30 41 -33 q16 -2 16 -12q0 -19 -18 -19q-15 0 -46 1.5t-47 1.5q-13 0 -40.5 -1.5t-39.5 -1.5t-12 13zM360 344h135l68 268q2 6 2 17q0 20 -28 20z" />
<glyph unicode="&#xc7;" horiz-adv-x="716" d="M150 245q0 114 62 222t160 173t199 65q98 0 151 -85l63 74q4 5 8 7.5t6 2.5l2 1q4 0 7 -2.5t4 -4.5v-3q0 -6 -2 -14l-61 -243q-3 -12 -6 -15t-12 -3q-15 0 -15 10q0 1 1 11t2.5 24.5t1.5 25.5q0 75 -34.5 129t-107.5 54q-60 0 -124 -35.5t-113 -102.5q-53 -73 -79 -170 t-26 -159q0 -99 50.5 -148.5t121.5 -49.5q73 0 148.5 58.5t110.5 174.5q3 8 16 8q15 0 15 -10q0 -21 -21 -62t-57 -86.5t-97 -79.5t-129 -34h-10l-8 -32q61 -12 61 -55q0 -83 -196 -83h-25q-13 0 -13 11t25 11h10q135 0 135 62q0 33 -48 37q-15 2 -15 13q0 1 2 8.5t4.5 19 t4.5 18.5q-78 23 -125 91t-47 166z" />
<glyph unicode="&#xc8;" horiz-adv-x="678" d="M62 12q0 13 6 16t21 3q49 0 62.5 7.5t19.5 34.5l134 536l4 23q0 6 -2 9t-15.5 5.5t-40.5 2.5q-12 0 -16.5 0.5t-7.5 3.5t-3 9q0 12 6 15t21 3h467q10 0 13 -0.5t8 -3t3.5 -7.5t-0.5 -15l-23 -177q-1 -10 -2 -14t-4.5 -6t-10.5 -2q-15 0 -15 12q0 7 2 17q5 40 5 64 q0 56 -27.5 78.5t-105.5 22.5h-125q-26 0 -34 -5t-14 -29l-61 -246h81q59 0 81.5 19t37.5 74q6 22 11 23q3 1 8 1q16 0 16 -12q-2 -10 -3 -13l-55 -220q-3 -13 -6 -16.5t-12 -3.5q-16 0 -16 12l2 11q9 33 9 51q0 23 -14 33t-61 10h-87l-69 -275q0 -1 -2 -9.5t-2 -12.5t1 -6 t8 -3t22 -1h122q47 0 82 9t58.5 22t44 41.5t34 55.5t33.5 75q7 17 10 20.5t11 3.5q15 0 15 -11q-3 -10 -4 -12l-89 -219q-5 -11 -9 -13.5t-19 -2.5h-479q-10 0 -14 0.5t-7.5 3t-3.5 8.5zM420 873q4 14 17.5 23.5t27.5 9.5q11 0 22 -11l107 -116q6 -7 6 -13q-2 -6 -9.5 -12 t-13.5 -7q-4 -1 -12 5l-134 93q-16 12 -11 28z" />
<glyph unicode="&#xc9;" horiz-adv-x="678" d="M62 12q0 13 6 16t21 3q49 0 62.5 7.5t19.5 34.5l134 536l4 23q0 6 -2 9t-15.5 5.5t-40.5 2.5q-12 0 -16.5 0.5t-7.5 3.5t-3 9q0 12 6 15t21 3h467q10 0 13 -0.5t8 -3t3.5 -7.5t-0.5 -15l-23 -177q-1 -10 -2 -14t-4.5 -6t-10.5 -2q-15 0 -15 12q0 7 2 17q5 40 5 64 q0 56 -27.5 78.5t-105.5 22.5h-125q-26 0 -34 -5t-14 -29l-61 -246h81q59 0 81.5 19t37.5 74q6 22 11 23q3 1 8 1q16 0 16 -12q-2 -10 -3 -13l-55 -220q-3 -13 -6 -16.5t-12 -3.5q-16 0 -16 12l2 11q9 33 9 51q0 23 -14 33t-61 10h-87l-69 -275q0 -1 -2 -9.5t-2 -12.5t1 -6 t8 -3t22 -1h122q47 0 82 9t58.5 22t44 41.5t34 55.5t33.5 75q7 17 10 20.5t11 3.5q15 0 15 -11q-3 -10 -4 -12l-89 -219q-5 -11 -9 -13.5t-19 -2.5h-479q-10 0 -14 0.5t-7.5 3t-3.5 8.5zM462 766q2 6 12 13l165 116q17 11 28 11q14 0 22 -9.5t6 -23.5q-3 -17 -25 -28 l-180 -93q-11 -6 -15 -5q-5 1 -9.5 7t-3.5 12z" />
<glyph unicode="&#xca;" horiz-adv-x="678" d="M62 12q0 13 6 16t21 3q49 0 62.5 7.5t19.5 34.5l134 536l4 23q0 6 -2 9t-15.5 5.5t-40.5 2.5q-12 0 -16.5 0.5t-7.5 3.5t-3 9q0 12 6 15t21 3h467q10 0 13 -0.5t8 -3t3.5 -7.5t-0.5 -15l-23 -177q-1 -10 -2 -14t-4.5 -6t-10.5 -2q-15 0 -15 12q0 7 2 17q5 40 5 64 q0 56 -27.5 78.5t-105.5 22.5h-125q-26 0 -34 -5t-14 -29l-61 -246h81q59 0 81.5 19t37.5 74q6 22 11 23q3 1 8 1q16 0 16 -12q-2 -10 -3 -13l-55 -220q-3 -13 -6 -16.5t-12 -3.5q-16 0 -16 12l2 11q9 33 9 51q0 23 -14 33t-61 10h-87l-69 -275q0 -1 -2 -9.5t-2 -12.5t1 -6 t8 -3t22 -1h122q47 0 82 9t58.5 22t44 41.5t34 55.5t33.5 75q7 17 10 20.5t11 3.5q15 0 15 -11q-3 -10 -4 -12l-89 -219q-5 -11 -9 -13.5t-19 -2.5h-479q-10 0 -14 0.5t-7.5 3t-3.5 8.5zM391 755l155 98q7 3 12 0l106 -98q6 -5 -1 -13.5t-14 -4.5l-112 55l-140 -55 q-6 -2 -10 1t-3 8.5t7 8.5z" />
<glyph unicode="&#xcb;" horiz-adv-x="678" d="M62 12q0 13 6 16t21 3q49 0 62.5 7.5t19.5 34.5l134 536l4 23q0 6 -2 9t-15.5 5.5t-40.5 2.5q-12 0 -16.5 0.5t-7.5 3.5t-3 9q0 12 6 15t21 3h467q10 0 13 -0.5t8 -3t3.5 -7.5t-0.5 -15l-23 -177q-1 -10 -2 -14t-4.5 -6t-10.5 -2q-15 0 -15 12q0 7 2 17q5 40 5 64 q0 56 -27.5 78.5t-105.5 22.5h-125q-26 0 -34 -5t-14 -29l-61 -246h81q59 0 81.5 19t37.5 74q6 22 11 23q3 1 8 1q16 0 16 -12q-2 -10 -3 -13l-55 -220q-3 -13 -6 -16.5t-12 -3.5q-16 0 -16 12l2 11q9 33 9 51q0 23 -14 33t-61 10h-87l-69 -275q0 -1 -2 -9.5t-2 -12.5t1 -6 t8 -3t22 -1h122q47 0 82 9t58.5 22t44 41.5t34 55.5t33.5 75q7 17 10 20.5t11 3.5q15 0 15 -11q-3 -10 -4 -12l-89 -219q-5 -11 -9 -13.5t-19 -2.5h-479q-10 0 -14 0.5t-7.5 3t-3.5 8.5zM382 775q0 22 18 39.5t40 17.5q19 0 29.5 -11.5t10.5 -27.5q0 -22 -18 -39.5 t-39 -17.5q-19 0 -30 11.5t-11 27.5zM591 775q0 22 18 39.5t40 17.5q19 0 29.5 -11.5t10.5 -27.5q0 -22 -18 -39.5t-39 -17.5q-19 0 -30 11.5t-11 27.5z" />
<glyph unicode="&#xcc;" horiz-adv-x="386" d="M57 13q0 12 6 15t24 3q49 0 63.5 7.5t20.5 33.5l136 544q3 9 3 19q0 11 -15 14t-48 3q-12 0 -16.5 0.5t-7.5 3.5t-3 9q0 18 19 18q21 0 63 -1.5t62 -1.5q21 0 62 1.5t61 1.5q14 0 14 -12q0 -13 -6.5 -16t-24.5 -3q-49 0 -63 -7.5t-20 -33.5l-135 -540l-4 -22q0 -7 2 -10 t16.5 -5.5t43.5 -2.5q12 0 16.5 -0.5t8 -3t3.5 -8.5q0 -19 -20 -19t-61.5 1.5t-62.5 1.5t-62 -1.5t-61 -1.5q-14 0 -14 13zM273 873q4 14 17.5 23.5t27.5 9.5q11 0 22 -11l107 -116q6 -7 6 -13q-2 -6 -9.5 -12t-13.5 -7q-4 -1 -12 5l-134 93q-16 12 -11 28z" />
<glyph unicode="&#xcd;" horiz-adv-x="386" d="M57 13q0 12 6 15t24 3q49 0 63.5 7.5t20.5 33.5l136 544q3 9 3 19q0 11 -15 14t-48 3q-12 0 -16.5 0.5t-7.5 3.5t-3 9q0 18 19 18q21 0 63 -1.5t62 -1.5q21 0 62 1.5t61 1.5q14 0 14 -12q0 -13 -6.5 -16t-24.5 -3q-49 0 -63 -7.5t-20 -33.5l-135 -540l-4 -22q0 -7 2 -10 t16.5 -5.5t43.5 -2.5q12 0 16.5 -0.5t8 -3t3.5 -8.5q0 -19 -20 -19t-61.5 1.5t-62.5 1.5t-62 -1.5t-61 -1.5q-14 0 -14 13zM315 766q2 6 12 13l165 116q16 11 28 11q14 0 22 -9.5t6 -23.5q-3 -17 -25 -28l-180 -93q-11 -6 -15 -5q-5 1 -9.5 7t-3.5 12z" />
<glyph unicode="&#xce;" horiz-adv-x="386" d="M57 13q0 12 6 15t24 3q49 0 63.5 7.5t20.5 33.5l136 544q3 9 3 19q0 11 -15 14t-48 3q-12 0 -16.5 0.5t-7.5 3.5t-3 9q0 18 19 18q21 0 63 -1.5t62 -1.5q21 0 62 1.5t61 1.5q14 0 14 -12q0 -13 -6.5 -16t-24.5 -3q-49 0 -63 -7.5t-20 -33.5l-135 -540l-4 -22q0 -7 2 -10 t16.5 -5.5t43.5 -2.5q12 0 16.5 -0.5t8 -3t3.5 -8.5q0 -19 -20 -19t-61.5 1.5t-62.5 1.5t-62 -1.5t-61 -1.5q-14 0 -14 13zM244 755l155 98q7 3 12 0l106 -98q6 -5 -1 -13.5t-14 -4.5l-112 55l-140 -55q-6 -2 -10 1t-3 8.5t7 8.5z" />
<glyph unicode="&#xcf;" horiz-adv-x="386" d="M57 13q0 12 6 15t24 3q49 0 63.5 7.5t20.5 33.5l136 544q3 9 3 19q0 11 -15 14t-48 3q-12 0 -16.5 0.5t-7.5 3.5t-3 9q0 18 19 18q21 0 63 -1.5t62 -1.5q21 0 62 1.5t61 1.5q14 0 14 -12q0 -13 -6.5 -16t-24.5 -3q-49 0 -63 -7.5t-20 -33.5l-135 -540l-4 -22q0 -7 2 -10 t16.5 -5.5t43.5 -2.5q12 0 16.5 -0.5t8 -3t3.5 -8.5q0 -19 -20 -19t-61.5 1.5t-62.5 1.5t-62 -1.5t-61 -1.5q-14 0 -14 13zM235 775q0 22 18 39.5t40 17.5q19 0 29.5 -11.5t10.5 -27.5q0 -22 -18 -39.5t-39 -17.5q-19 0 -30 11.5t-11 27.5zM444 775q0 22 18 39.5t40 17.5 q19 0 29.5 -11.5t10.5 -27.5q0 -22 -18 -39.5t-39 -17.5q-19 0 -30 11.5t-11 27.5z" />
<glyph unicode="&#xd0;" horiz-adv-x="755" d="M63 12q0 13 6 16t21 3q49 0 62.5 7.5t19.5 34.5l63 254h-94q-15 0 -10.5 15t17.5 15h95l64 259q4 14 4 19q0 11 -14 14t-44 3q-11 0 -15.5 0.5t-8 3t-3.5 8.5q0 13 6 16t21 3h312q96 0 153 -68t57 -177q0 -110 -55 -212t-143.5 -164t-181.5 -62h-307q-10 0 -14 0.5 t-7.5 3t-3.5 8.5zM244 41q0 -4 1 -6t8 -3t22 -1h103q115 0 200 99q56 66 85 174t29 172q0 91 -46 133.5t-114 42.5h-97q-26 0 -34.5 -5.5t-14.5 -30.5l-65 -259h146q6 0 9.5 -4.5t1.5 -10.5q-3 -15 -19 -15h-145l-66 -264q0 -1 -2 -9.5t-2 -12.5z" />
<glyph unicode="&#xd1;" horiz-adv-x="743" d="M62 12q0 19 19 19q80 3 97 70l132 530l3 13q0 8 -61 8q-11 0 -15.5 0.5t-8 3t-3.5 8.5q0 13 6 16t21 3h125q16 0 19.5 -2.5t8.5 -14.5l187 -520l110 439q4 16 4 24q0 41 -60 43q-18 0 -18 12q0 19 18 19q15 0 48 -1.5t49 -1.5t48.5 1.5t47.5 1.5q13 0 13 -13 q0 -18 -15 -18q-85 -3 -101 -68l-140 -564q-2 -9 -5 -13.5t-6 -5.5t-9 -1q-10 0 -13 2.5t-7 14.5l-215 597l-129 -515q-4 -16 -4 -25q0 -8 1.5 -13.5t6.5 -12.5t18 -11.5t33 -5.5q19 0 19 -13q0 -18 -18 -18q-15 0 -48.5 1.5t-49.5 1.5t-48 -1.5t-47 -1.5q-13 0 -13 12z M406 747q0 5 13 18.5t27 24.5l13 11q47 36 74 36q18 0 29 -10t25 -33t29 -23q19 0 51 24.5t39 33.5q7 7 13 7q11 0 11 -10t-49 -50t-79 -40q-27 0 -51 39q-16 27 -32 27q-13 0 -35.5 -14.5t-37.5 -29.5l-16 -14q-9 -7 -13 -7q-11 0 -11 10z" />
<glyph unicode="&#xd2;" horiz-adv-x="767" d="M148 236q0 113 59.5 222.5t156 178t196.5 68.5q98 0 163 -70.5t65 -190.5q0 -117 -60.5 -226t-155.5 -174.5t-194 -65.5q-102 0 -166 72t-64 186zM238 205q0 -90 39.5 -145.5t107.5 -55.5q58 0 120 44.5t109 125.5q39 67 64 156t25 156q0 95 -43.5 144.5t-106.5 49.5 q-64 0 -127 -47t-104 -120q-46 -80 -65 -167.5t-19 -140.5zM464 873q4 14 17.5 23.5t27.5 9.5q11 0 22 -11l107 -116q6 -7 6 -13q-2 -6 -9.5 -12t-13.5 -7q-4 -1 -12 5l-134 93q-16 12 -11 28z" />
<glyph unicode="&#xd3;" horiz-adv-x="767" d="M148 236q0 113 59.5 222.5t156 178t196.5 68.5q98 0 163 -70.5t65 -190.5q0 -117 -60.5 -226t-155.5 -174.5t-194 -65.5q-102 0 -166 72t-64 186zM238 205q0 -90 39.5 -145.5t107.5 -55.5q58 0 120 44.5t109 125.5q39 67 64 156t25 156q0 95 -43.5 144.5t-106.5 49.5 q-64 0 -127 -47t-104 -120q-46 -80 -65 -167.5t-19 -140.5zM506 766q2 6 12 13l165 116q17 11 28 11q14 0 22 -9.5t6 -23.5q-3 -17 -25 -28l-180 -93q-11 -6 -15 -5q-5 1 -9.5 7t-3.5 12z" />
<glyph unicode="&#xd4;" horiz-adv-x="767" d="M148 236q0 113 59.5 222.5t156 178t196.5 68.5q98 0 163 -70.5t65 -190.5q0 -117 -60.5 -226t-155.5 -174.5t-194 -65.5q-102 0 -166 72t-64 186zM238 205q0 -90 39.5 -145.5t107.5 -55.5q58 0 120 44.5t109 125.5q39 67 64 156t25 156q0 95 -43.5 144.5t-106.5 49.5 q-64 0 -127 -47t-104 -120q-46 -80 -65 -167.5t-19 -140.5zM435 755l155 98q7 3 12 0l106 -98q6 -5 -1 -13.5t-14 -4.5l-112 55l-140 -55q-6 -2 -10 1t-3 8.5t7 8.5z" />
<glyph unicode="&#xd5;" horiz-adv-x="767" d="M148 236q0 113 59.5 222.5t156 178t196.5 68.5q98 0 163 -70.5t65 -190.5q0 -117 -60.5 -226t-155.5 -174.5t-194 -65.5q-102 0 -166 72t-64 186zM238 205q0 -90 39.5 -145.5t107.5 -55.5q58 0 120 44.5t109 125.5q39 67 64 156t25 156q0 95 -43.5 144.5t-106.5 49.5 q-64 0 -127 -47t-104 -120q-46 -80 -65 -167.5t-19 -140.5zM418 747q0 5 13 18.5t27 24.5l13 11q47 36 74 36q18 0 29 -10t25 -33t29 -23q19 0 51 24.5t39 33.5q7 7 13 7q11 0 11 -10t-49 -50t-79 -40q-27 0 -51 39q-16 27 -32 27q-13 0 -35.5 -14.5t-37.5 -29.5l-16 -14 q-9 -7 -13 -7q-11 0 -11 10z" />
<glyph unicode="&#xd6;" horiz-adv-x="767" d="M148 236q0 113 59.5 222.5t156 178t196.5 68.5q98 0 163 -70.5t65 -190.5q0 -117 -60.5 -226t-155.5 -174.5t-194 -65.5q-102 0 -166 72t-64 186zM238 205q0 -90 39.5 -145.5t107.5 -55.5q58 0 120 44.5t109 125.5q39 67 64 156t25 156q0 95 -43.5 144.5t-106.5 49.5 q-64 0 -127 -47t-104 -120q-46 -80 -65 -167.5t-19 -140.5zM426 775q0 22 18 39.5t40 17.5q19 0 29.5 -11.5t10.5 -27.5q0 -22 -18 -39.5t-39 -17.5q-19 0 -30 11.5t-11 27.5zM635 775q0 22 18 39.5t40 17.5q19 0 29.5 -11.5t10.5 -27.5q0 -22 -18 -39.5t-39 -17.5 q-19 0 -30 11.5t-11 27.5z" />
<glyph unicode="&#xd7;" horiz-adv-x="767" d="M176 34q-16 11 14 34l228 182l-140 185q-14 16 1 29q18 13 33 3q3 -2 10 -13l132 -175l218 175q29 23 44 12q16 -11 -14 -34l-227 -181l140 -185q12 -18 -1 -29q-17 -14 -34 -3l-2 2t-3 4t-5 7l-131 175l-219 -176q-29 -23 -44 -12z" />
<glyph unicode="&#xd8;" horiz-adv-x="767" d="M116 -48q0 4 21 28l68 79q-57 71 -57 177q0 113 59.5 222.5t156 178t196.5 68.5q96 0 156 -63l79 92q7 9 15 9q4 0 8 -3.5t4 -8.5q0 -3 -10 -16l-80 -92q56 -67 56 -179q0 -117 -60.5 -226t-155.5 -174.5t-194 -65.5q-91 0 -157 62q-19 -23 -35 -41t-25 -28t-10 -11 q-19 -20 -23 -20t-8 3.5t-4 8.5zM221 194q0 -52 17 -97l448 512q-44 74 -132 74q-58 0 -118.5 -36.5t-105.5 -99.5q-54 -78 -81.5 -184t-27.5 -169zM251 73q43 -73 133 -73q59 0 119 35.5t103 96.5q56 78 83 185.5t27 169.5q0 54 -17 98z" />
<glyph unicode="&#xd9;" horiz-adv-x="743" d="M202 166q0 32 8 64l96 386q4 14 4 19q0 11 -14 14t-44 3q-11 0 -15.5 0.5t-8 3t-3.5 8.5q0 19 19 19t59.5 -1.5t60.5 -1.5t59.5 1.5t58.5 1.5q14 0 14 -13q0 -12 -6 -15t-24 -3q-46 0 -59.5 -7.5t-19.5 -32.5l-100 -402q-10 -44 -10 -76q0 -63 31.5 -94t75.5 -31 q72 0 140.5 62.5t91.5 157.5l89 356q4 16 4 24q0 41 -60 43q-18 0 -18 12q0 19 18 19q15 0 47.5 -1.5t48.5 -1.5t47.5 1.5t46.5 1.5q13 0 13 -13q0 -18 -15 -18q-85 -3 -101 -68l-91 -366q-22 -89 -98.5 -164.5t-166.5 -75.5q-74 0 -126 51t-52 137zM475 873q4 14 17.5 23.5 t27.5 9.5q11 0 22 -11l107 -116q6 -7 6 -13q-2 -6 -9.5 -12t-13.5 -7q-4 -1 -12 5l-134 93q-16 12 -11 28z" />
<glyph unicode="&#xda;" horiz-adv-x="743" d="M202 166q0 32 8 64l96 386q4 14 4 19q0 11 -14 14t-44 3q-11 0 -15.5 0.5t-8 3t-3.5 8.5q0 19 19 19t59.5 -1.5t60.5 -1.5t59.5 1.5t58.5 1.5q14 0 14 -13q0 -12 -6 -15t-24 -3q-46 0 -59.5 -7.5t-19.5 -32.5l-100 -402q-10 -44 -10 -76q0 -63 31.5 -94t75.5 -31 q72 0 140.5 62.5t91.5 157.5l89 356q4 16 4 24q0 41 -60 43q-18 0 -18 12q0 19 18 19q15 0 47.5 -1.5t48.5 -1.5t47.5 1.5t46.5 1.5q13 0 13 -13q0 -18 -15 -18q-85 -3 -101 -68l-91 -366q-22 -89 -98.5 -164.5t-166.5 -75.5q-74 0 -126 51t-52 137zM517 766q2 6 12 13 l165 116q16 11 28 11q14 0 22 -9.5t6 -23.5q-3 -17 -25 -28l-180 -93q-11 -6 -15 -5q-5 1 -9.5 7t-3.5 12z" />
<glyph unicode="&#xdb;" horiz-adv-x="743" d="M202 166q0 32 8 64l96 386q4 14 4 19q0 11 -14 14t-44 3q-11 0 -15.5 0.5t-8 3t-3.5 8.5q0 19 19 19t59.5 -1.5t60.5 -1.5t59.5 1.5t58.5 1.5q14 0 14 -13q0 -12 -6 -15t-24 -3q-46 0 -59.5 -7.5t-19.5 -32.5l-100 -402q-10 -44 -10 -76q0 -63 31.5 -94t75.5 -31 q72 0 140.5 62.5t91.5 157.5l89 356q4 16 4 24q0 41 -60 43q-18 0 -18 12q0 19 18 19q15 0 47.5 -1.5t48.5 -1.5t47.5 1.5t46.5 1.5q13 0 13 -13q0 -18 -15 -18q-85 -3 -101 -68l-91 -366q-22 -89 -98.5 -164.5t-166.5 -75.5q-74 0 -126 51t-52 137zM446 755l155 98 q7 3 12 0l106 -98q6 -5 -1 -13.5t-14 -4.5l-112 55l-140 -55q-6 -2 -10 1t-3 8.5t7 8.5z" />
<glyph unicode="&#xdc;" horiz-adv-x="743" d="M202 166q0 32 8 64l96 386q4 14 4 19q0 11 -14 14t-44 3q-11 0 -15.5 0.5t-8 3t-3.5 8.5q0 19 19 19t59.5 -1.5t60.5 -1.5t59.5 1.5t58.5 1.5q14 0 14 -13q0 -12 -6 -15t-24 -3q-46 0 -59.5 -7.5t-19.5 -32.5l-100 -402q-10 -44 -10 -76q0 -63 31.5 -94t75.5 -31 q72 0 140.5 62.5t91.5 157.5l89 356q4 16 4 24q0 41 -60 43q-18 0 -18 12q0 19 18 19q15 0 47.5 -1.5t48.5 -1.5t47.5 1.5t46.5 1.5q13 0 13 -13q0 -18 -15 -18q-85 -3 -101 -68l-91 -366q-22 -89 -98.5 -164.5t-166.5 -75.5q-74 0 -126 51t-52 137zM437 775q0 22 18 39.5 t40 17.5q19 0 29.5 -11.5t10.5 -27.5q0 -22 -18 -39.5t-39 -17.5q-19 0 -30 11.5t-11 27.5zM646 775q0 22 18 39.5t40 17.5q19 0 29.5 -11.5t10.5 -27.5q0 -22 -18 -39.5t-39 -17.5q-19 0 -30 11.5t-11 27.5z" />
<glyph unicode="&#xdd;" horiz-adv-x="743" d="M202 664q0 19 19 19q16 0 51.5 -1.5t52.5 -1.5q20 0 59 1.5t58 1.5q14 0 14 -12q0 -13 -5.5 -16t-16.5 -3q-56 0 -56 -24q0 -3 4 -13l95 -300l219 267l3 4q3 4 6.5 9t7 11t6 12t2.5 11q0 21 -31 23q-15 0 -15 12q0 19 18 19q15 0 46 -1.5t47 -1.5q13 0 38.5 1.5t37.5 1.5 q5 0 8 -2.5t4 -5.5v-3q0 -13 -4.5 -16t-14.5 -4q-37 -3 -68 -21.5t-65 -60.5l-236 -287q-6 -7 -12 -27l-31 -123q-19 -79 -19 -85q0 -11 14 -14t44 -3q11 0 15.5 -0.5t8 -3t3.5 -8.5q0 -19 -19 -19t-59 1.5t-60 1.5q-19 0 -58 -1.5t-58 -1.5q-14 0 -14 12q0 13 6 16t19 3 q55 1 66.5 9t21.5 50q46 175 46 183q0 5 -4 15l-106 334q-5 18 -17.5 24t-46.5 6q-24 0 -24 12zM494 766q2 6 12 13l165 116q17 11 28 11q14 0 22 -9.5t6 -23.5q-3 -17 -25 -28l-180 -93q-11 -6 -15 -5q-5 1 -9.5 7t-3.5 12z" />
<glyph unicode="&#xde;" horiz-adv-x="678" d="M57 13q0 12 6 15t24 3q49 0 63.5 7.5t20.5 33.5l136 544q3 9 3 19q0 11 -15 14t-48 3q-12 0 -16.5 0.5t-7.5 3.5t-3 9q0 18 19 18q21 0 63 -1.5t62 -1.5q21 0 62 1.5t61 1.5q14 0 14 -12q0 -13 -6.5 -16t-24.5 -3q-49 0 -63 -7.5t-20 -33.5l-21 -86h148q80 0 128.5 -42 t48.5 -106q0 -86 -82 -152.5t-179 -66.5h-156l-22 -87l-4 -22q0 -7 2 -10t16.5 -5.5t43.5 -2.5q12 0 16.5 -0.5t8 -3t3.5 -8.5q0 -19 -20 -19t-61.5 1.5t-62.5 1.5t-62 -1.5t-61 -1.5q-14 0 -14 13zM279 187h126q93 0 145 58q25 29 39 83t14 79q0 46 -32.5 68t-88.5 22h-86 q-26 0 -34.5 -5t-14.5 -31z" />
<glyph unicode="&#xdf;" horiz-adv-x="537" d="M-20 -141q0 30 16 43.5t34 13.5q13 0 23.5 -8.5t10.5 -23.5q0 -7 -2.5 -15.5t-14.5 -20t-32 -13.5q9 -18 30 -18q33 0 53.5 50t41.5 158l73 375h-62q-25 0 -25 11q0 14 6 17t21 3h66l23 117q8 33 19 56.5t32 48.5t58.5 38.5t89.5 13.5q61 0 99 -31.5t38 -82.5 q0 -68 -88 -178q-47 -56 -47 -78q0 -26 35 -66q45 -58 45 -104q0 -60 -54.5 -118t-123.5 -58q-38 0 -68 19t-30 55q0 21 9.5 32.5t18.5 12.5l9 2q12 0 19.5 -7.5t7.5 -18.5q-2 -29 -31 -35q14 -38 64 -38q33 0 58 35.5t34 68t9 47.5q0 30 -26 62q-25 33 -25 80 q0 40 13.5 63.5t46.5 56.5q27 28 44 89t17 87q0 38 -19 60.5t-55 22.5q-38 0 -63.5 -10.5t-40 -34t-21 -44.5t-13.5 -60l-97 -497q-7 -38 -18.5 -74.5t-30.5 -77t-48 -65.5t-64 -25q-26 0 -45.5 16.5t-19.5 47.5z" />
<glyph unicode="&#xe0;" d="M108 144q0 109 73 203.5t156 94.5q57 0 83 -59q8 39 40 39q27 0 27 -26q0 -7 -4 -21l-68 -272q-7 -28 -7 -51q0 -41 26 -41q37 0 67 119q4 16 7 19.5t12 3.5q15 0 15 -10q-12 -60 -30 -98q-27 -56 -73 -56q-29 0 -52 17.5t-31 52.5q-57 -70 -120 -70q-55 0 -88 44.5 t-33 110.5zM176 100q0 -33 12 -61t43 -28q37 0 77.5 41.5t47.5 71.5l47 189l3 13q0 35 -19 64.5t-50 29.5q-30 0 -61.5 -32t-50.5 -79q-15 -35 -32 -104.5t-17 -104.5zM306 668q6 13 19 20.5t23 7.5q14 0 23 -17l71 -142q5 -10 2 -15q-3 -6 -11 -11.5t-13 -5.5t-10 8 l-100 123q-13 13 -4 32z" />
<glyph unicode="&#xe1;" d="M108 144q0 109 73 203.5t156 94.5q57 0 83 -59q8 39 40 39q27 0 27 -26q0 -7 -4 -21l-68 -272q-7 -28 -7 -51q0 -41 26 -41q37 0 67 119q4 16 7 19.5t12 3.5q15 0 15 -10q-12 -60 -30 -98q-27 -56 -73 -56q-29 0 -52 17.5t-31 52.5q-57 -70 -120 -70q-55 0 -88 44.5 t-33 110.5zM176 100q0 -33 12 -61t43 -28q37 0 77.5 41.5t47.5 71.5l47 189l3 13q0 35 -19 64.5t-50 29.5q-30 0 -61.5 -32t-50.5 -79q-15 -35 -32 -104.5t-17 -104.5zM328 522q0 5 10 15l142 142q17 17 31 17q10 0 19 -7.5t9 -20.5q0 -19 -20 -32l-161 -123q-9 -8 -14 -8 t-10.5 5.5t-5.5 11.5z" />
<glyph unicode="&#xe2;" d="M108 144q0 109 73 203.5t156 94.5q57 0 83 -59q8 39 40 39q27 0 27 -26q0 -7 -4 -21l-68 -272q-7 -28 -7 -51q0 -41 26 -41q37 0 67 119q4 16 7 19.5t12 3.5q15 0 15 -10q-12 -60 -30 -98q-27 -56 -73 -56q-29 0 -52 17.5t-31 52.5q-57 -70 -120 -70q-55 0 -88 44.5 t-33 110.5zM176 100q0 -33 12 -61t43 -28q37 0 77.5 41.5t47.5 71.5l47 189l3 13q0 35 -19 64.5t-50 29.5q-30 0 -61.5 -32t-50.5 -79q-15 -35 -32 -104.5t-17 -104.5zM252 536l166 144q9 8 15 0l94 -144q5 -7 -3.5 -14.5t-14.5 -1.5l-98 99l-148 -99q-9 -6 -14 1.5t3 14.5z " />
<glyph unicode="&#xe3;" d="M108 144q0 109 73 203.5t156 94.5q57 0 83 -59q8 39 40 39q27 0 27 -26q0 -7 -4 -21l-68 -272q-7 -28 -7 -51q0 -41 26 -41q37 0 67 119q4 16 7 19.5t12 3.5q15 0 15 -10q-12 -60 -30 -98q-27 -56 -73 -56q-29 0 -52 17.5t-31 52.5q-57 -70 -120 -70q-55 0 -88 44.5 t-33 110.5zM176 100q0 -33 12 -61t43 -28q37 0 77.5 41.5t47.5 71.5l47 189l3 13q0 35 -19 64.5t-50 29.5q-30 0 -61.5 -32t-50.5 -79q-15 -35 -32 -104.5t-17 -104.5zM244 561q0 5 13 18.5t27 24.5l13 11q47 36 74 36q18 0 29 -10t25 -33t29 -23q19 0 51 24.5t39 33.5 q7 7 13 7q11 0 11 -10t-49 -50t-79 -40q-27 0 -51 39q-16 27 -32 27q-13 0 -35.5 -14.5t-37.5 -29.5l-16 -14q-9 -7 -13 -7q-11 0 -11 10z" />
<glyph unicode="&#xe4;" d="M108 144q0 109 73 203.5t156 94.5q57 0 83 -59q8 39 40 39q27 0 27 -26q0 -7 -4 -21l-68 -272q-7 -28 -7 -51q0 -41 26 -41q37 0 67 119q4 16 7 19.5t12 3.5q15 0 15 -10q-12 -60 -30 -98q-27 -56 -73 -56q-29 0 -52 17.5t-31 52.5q-57 -70 -120 -70q-55 0 -88 44.5 t-33 110.5zM176 100q0 -33 12 -61t43 -28q37 0 77.5 41.5t47.5 71.5l47 189l3 13q0 35 -19 64.5t-50 29.5q-30 0 -61.5 -32t-50.5 -79q-15 -35 -32 -104.5t-17 -104.5zM268 592q0 22 18 39.5t40 17.5q19 0 29.5 -11.5t10.5 -27.5q0 -22 -18 -39.5t-39 -17.5q-19 0 -30 11.5 t-11 27.5zM445 592q0 22 18 39.5t40 17.5q19 0 29.5 -11.5t10.5 -27.5q0 -22 -18 -39.5t-39 -17.5q-19 0 -30 11.5t-11 27.5z" />
<glyph unicode="&#xe5;" d="M108 144q0 109 73 203.5t156 94.5q57 0 83 -59q8 39 40 39q27 0 27 -26q0 -7 -4 -21l-68 -272q-7 -28 -7 -51q0 -41 26 -41q37 0 67 119q4 16 7 19.5t12 3.5q15 0 15 -10q-12 -60 -30 -98q-27 -56 -73 -56q-29 0 -52 17.5t-31 52.5q-57 -70 -120 -70q-55 0 -88 44.5 t-33 110.5zM176 100q0 -33 12 -61t43 -28q37 0 77.5 41.5t47.5 71.5l47 189l3 13q0 35 -19 64.5t-50 29.5q-30 0 -61.5 -32t-50.5 -79q-15 -35 -32 -104.5t-17 -104.5zM314 597q1 43 37 75.5t80 32.5q36 0 55.5 -20.5t19.5 -46.5q0 -42 -36.5 -75.5t-81.5 -33.5 q-30 0 -52 17.5t-22 50.5zM352 594q0 -35 44 -35q20 0 34.5 8t21.5 20t11 24t5 20v8q0 36 -44 36q-32 0 -50 -20.5t-20 -40.5z" />
<glyph unicode="&#xe6;" horiz-adv-x="716" d="M92 100q0 20 8 46t31.5 62t59.5 70.5t99 71.5t144 65q6 27 32 27q24 0 24 -23q0 -5 -6 -29q66 52 135 52q44 0 72 -24t28 -61q0 -8 -2 -18t-8.5 -26.5t-23.5 -32.5t-43 -27q-54 -22 -146 -22h-52q-14 -61 -14 -98q0 -47 20 -84.5t63 -37.5q34 0 76.5 22.5t80.5 76.5 q9 10 13 10q6 0 11 -6t5 -10q0 -6 -14.5 -24t-37.5 -38.5t-60 -36.5t-75 -16q-42 0 -70 22t-41 49q-11 -47 -18 -59t-25 -12q-24 0 -24 23q0 6 9 41l-1 1q-59 -65 -115 -65t-95.5 30.5t-39.5 80.5zM165 73q0 -33 20.5 -47.5t44.5 -14.5q43 0 85 50t51 84l61 244 q-125 -54 -193.5 -146.5t-68.5 -169.5zM450 253h30q201 0 201 106q0 26 -16.5 43.5t-46.5 17.5q-9 0 -20 -2t-32.5 -11.5t-41 -26t-40 -49.5t-34.5 -78z" />
<glyph unicode="&#xe7;" horiz-adv-x="460" d="M77 -181q0 11 25 11h10q135 0 135 62q0 33 -48 37q-15 2 -15 13q0 6 14 59q-41 17 -64.5 57t-23.5 96q0 109 79.5 198.5t173.5 89.5q47 0 77 -24.5t30 -61.5q0 -27 -15 -43.5t-36 -16.5q-16 0 -25 9.5t-9 22.5q0 2 0.5 5t3 10.5t7 14t15 12t24.5 7.5q-16 43 -71 43 q-35 0 -70 -26t-61 -74q-19 -36 -36 -101t-17 -105q0 -46 20 -74.5t59 -28.5q17 0 38.5 3.5t65 28t76.5 66.5q9 11 13 11q6 0 11 -6t5 -10q0 -5 -9 -17.5t-28 -29t-43 -32t-58 -26t-70 -10.5l-10 -43q61 -12 61 -55q0 -83 -196 -83h-25q-13 0 -13 11z" />
<glyph unicode="&#xe8;" horiz-adv-x="460" d="M114 164q0 123 80 200.5t168 77.5q46 0 73.5 -24.5t27.5 -60.5q0 -5 -0.5 -10.5t-4.5 -19.5t-11.5 -26t-24 -25.5t-38.5 -22.5q-56 -22 -145 -22h-39q-17 -66 -17 -110q0 -25 5 -47t23 -42.5t48 -20.5q17 0 38.5 3.5t65 28t76.5 66.5q9 11 13 11q6 0 11 -6t5 -10 q0 -10 -24.5 -36t-76.5 -52.5t-110 -26.5q-68 0 -105.5 51.5t-37.5 123.5zM206 253h21q15 0 27 0.5t38.5 3t46.5 9.5t41.5 18t33 30.5t11.5 44.5q0 26 -17 43.5t-46 17.5q-7 0 -16 -1.5t-30.5 -10.5t-39.5 -25t-38 -50t-32 -80zM280 668q6 13 19 20.5t23 7.5q14 0 23 -17 l71 -142q5 -10 2 -15q-3 -6 -11 -11.5t-13 -5.5t-10 8l-100 123q-13 13 -4 32z" />
<glyph unicode="&#xe9;" horiz-adv-x="460" d="M114 164q0 123 80 200.5t168 77.5q46 0 73.5 -24.5t27.5 -60.5q0 -5 -0.5 -10.5t-4.5 -19.5t-11.5 -26t-24 -25.5t-38.5 -22.5q-56 -22 -145 -22h-39q-17 -66 -17 -110q0 -25 5 -47t23 -42.5t48 -20.5q17 0 38.5 3.5t65 28t76.5 66.5q9 11 13 11q6 0 11 -6t5 -10 q0 -10 -24.5 -36t-76.5 -52.5t-110 -26.5q-68 0 -105.5 51.5t-37.5 123.5zM206 253h21q15 0 27 0.5t38.5 3t46.5 9.5t41.5 18t33 30.5t11.5 44.5q0 26 -17 43.5t-46 17.5q-7 0 -16 -1.5t-30.5 -10.5t-39.5 -25t-38 -50t-32 -80zM302 522q0 5 10 15l142 142q17 17 31 17 q10 0 19 -7.5t9 -20.5q0 -19 -20 -32l-161 -123q-9 -8 -14 -8t-10.5 5.5t-5.5 11.5z" />
<glyph unicode="&#xea;" horiz-adv-x="460" d="M114 164q0 123 80 200.5t168 77.5q46 0 73.5 -24.5t27.5 -60.5q0 -5 -0.5 -10.5t-4.5 -19.5t-11.5 -26t-24 -25.5t-38.5 -22.5q-56 -22 -145 -22h-39q-17 -66 -17 -110q0 -25 5 -47t23 -42.5t48 -20.5q17 0 38.5 3.5t65 28t76.5 66.5q9 11 13 11q6 0 11 -6t5 -10 q0 -10 -24.5 -36t-76.5 -52.5t-110 -26.5q-68 0 -105.5 51.5t-37.5 123.5zM206 253h21q15 0 27 0.5t38.5 3t46.5 9.5t41.5 18t33 30.5t11.5 44.5q0 26 -17 43.5t-46 17.5q-7 0 -16 -1.5t-30.5 -10.5t-39.5 -25t-38 -50t-32 -80zM226 536l166 144q9 8 15 0l94 -144 q5 -7 -3.5 -14.5t-14.5 -1.5l-98 99l-148 -99q-9 -6 -14 1.5t3 14.5z" />
<glyph unicode="&#xeb;" horiz-adv-x="460" d="M114 164q0 123 80 200.5t168 77.5q46 0 73.5 -24.5t27.5 -60.5q0 -5 -0.5 -10.5t-4.5 -19.5t-11.5 -26t-24 -25.5t-38.5 -22.5q-56 -22 -145 -22h-39q-17 -66 -17 -110q0 -25 5 -47t23 -42.5t48 -20.5q17 0 38.5 3.5t65 28t76.5 66.5q9 11 13 11q6 0 11 -6t5 -10 q0 -10 -24.5 -36t-76.5 -52.5t-110 -26.5q-68 0 -105.5 51.5t-37.5 123.5zM206 253h21q15 0 27 0.5t38.5 3t46.5 9.5t41.5 18t33 30.5t11.5 44.5q0 26 -17 43.5t-46 17.5q-7 0 -16 -1.5t-30.5 -10.5t-39.5 -25t-38 -50t-32 -80zM242 592q0 22 18 39.5t40 17.5 q19 0 29.5 -11.5t10.5 -27.5q0 -22 -18 -39.5t-39 -17.5q-19 0 -30 11.5t-11 27.5zM419 592q0 22 18 39.5t40 17.5q19 0 29.5 -11.5t10.5 -27.5q0 -22 -18 -39.5t-39 -17.5q-19 0 -30 11.5t-11 27.5z" />
<glyph unicode="&#xec;" horiz-adv-x="307" d="M83 288q0 2 3 13t9 29t17 37t24 36t33 28t42 11q19 0 35.5 -8t28 -27t11.5 -45q0 -21 -12 -56l-64 -171q-26 -74 -26 -96q0 -28 22 -28q59 0 93 125q3 12 5.5 14.5t11.5 2.5q15 0 15 -10q0 -3 -4 -17.5t-14 -38t-23.5 -45.5t-36.5 -37.5t-49 -15.5q-37 0 -56.5 24 t-19.5 56q0 20 18 69q41 108 67 182q18 49 18 72q0 28 -22 28q-59 0 -93 -126q-3 -11 -6 -13.5t-12 -2.5q-15 0 -15 10zM204 668q6 13 19 20.5t23 7.5q9 0 13.5 -4t9.5 -13l71 -142q5 -10 2 -15q-3 -6 -11 -11.5t-13 -5.5t-10 8l-100 123q-13 13 -4 32z" />
<glyph unicode="&#xed;" horiz-adv-x="307" d="M83 288q0 2 3 13t9 29t17 37t24 36t33 28t42 11q19 0 35.5 -8t28 -27t11.5 -45q0 -21 -12 -56l-64 -171q-26 -74 -26 -96q0 -28 22 -28q59 0 93 125q3 12 5.5 14.5t11.5 2.5q15 0 15 -10q0 -3 -4 -17.5t-14 -38t-23.5 -45.5t-36.5 -37.5t-49 -15.5q-37 0 -56.5 24 t-19.5 56q0 20 18 69q41 108 67 182q18 49 18 72q0 28 -22 28q-59 0 -93 -126q-3 -11 -6 -13.5t-12 -2.5q-15 0 -15 10zM226 522q0 5 10 15l142 142q17 17 31 17q10 0 19 -7.5t9 -20.5q0 -19 -20 -32l-161 -123q-9 -8 -14 -8t-10.5 5.5t-5.5 11.5z" />
<glyph unicode="&#xee;" horiz-adv-x="307" d="M83 288q0 2 3 13t9 29t17 37t24 36t33 28t42 11q19 0 35.5 -8t28 -27t11.5 -45q0 -21 -12 -56l-64 -171q-26 -74 -26 -96q0 -28 22 -28q59 0 93 125q3 12 5.5 14.5t11.5 2.5q15 0 15 -10q0 -3 -4 -17.5t-14 -38t-23.5 -45.5t-36.5 -37.5t-49 -15.5q-37 0 -56.5 24 t-19.5 56q0 20 18 69q41 108 67 182q18 49 18 72q0 28 -22 28q-59 0 -93 -126q-3 -11 -6 -13.5t-12 -2.5q-15 0 -15 10zM150 536l166 144q9 7 15 0l94 -144q5 -7 -3.5 -14.5t-14.5 -1.5l-98 99l-148 -99q-9 -6 -14 1.5t3 14.5z" />
<glyph unicode="&#xef;" horiz-adv-x="307" d="M83 288q0 2 3 13t9 29t17 37t24 36t33 28t42 11q19 0 35.5 -8t28 -27t11.5 -45q0 -21 -12 -56l-64 -171q-26 -74 -26 -96q0 -28 22 -28q59 0 93 125q3 12 5.5 14.5t11.5 2.5q15 0 15 -10q0 -3 -4 -17.5t-14 -38t-23.5 -45.5t-36.5 -37.5t-49 -15.5q-37 0 -56.5 24 t-19.5 56q0 20 18 69q41 108 67 182q18 49 18 72q0 28 -22 28q-59 0 -93 -126q-3 -11 -6 -13.5t-12 -2.5q-15 0 -15 10zM166 592q0 22 18 39.5t40 17.5q19 0 29.5 -11.5t10.5 -27.5q0 -22 -18 -39.5t-39 -17.5q-19 0 -30 11.5t-11 27.5zM343 592q0 22 18 39.5t40 17.5 q19 0 29.5 -11.5t10.5 -27.5q0 -22 -18 -39.5t-39 -17.5q-10 0 -18 3.5t-13 9t-7.5 12t-2.5 14.5z" />
<glyph unicode="&#xf0;" d="M110 154q0 109 79.5 198.5t173.5 89.5q73 0 114 -57q29 144 12 216l-81 -50q-4 -3 -9 -3q-7 0 -10.5 4.5t-1.5 10.5q3 7 9 12l84 52q-24 48 -81 48q-6 0 -9.5 4.5t-1.5 10.5q3 15 18 15q80 0 114 -53l94 59q6 2 10 2q14 0 11 -15q-1 -6 -9 -12l-93 -58q18 -42 18 -110 q0 -103 -50 -305q-19 -76 -72 -135q-81 -89 -173 -89q-64 0 -105 44.5t-41 120.5zM180 114q0 -51 22 -77t54 -26q36 0 71 28.5t58 71.5q22 42 38 106t16 100q0 45 -20.5 74t-56.5 29q-31 0 -64 -23.5t-60 -67.5q-23 -39 -40.5 -107t-17.5 -108z" />
<glyph unicode="&#xf1;" horiz-adv-x="562" d="M83 288q13 61 32 101q28 53 72 53q33 0 56 -21.5t28 -57.5q10 15 24.5 30t48 32t70.5 17q44 0 74 -24t30 -80q0 -61 -61 -223q-18 -54 -18 -75q0 -29 22 -29q56 0 93 125q3 12 5.5 14.5t11.5 2.5q15 0 15 -10q0 -3 -4 -18t-14 -38.5t-24 -45t-36.5 -37t-48.5 -15.5 q-35 0 -55.5 23t-20.5 57q0 22 16 64q58 166 58 221q0 66 -46 66q-77 0 -135 -99q-17 -28 -30 -81q-2 -11 -8 -32.5t-8 -32.5l-40 -160q-10 -26 -36 -26q-14 0 -21 8t-7 18q0 5 3 14l75 300q7 28 7 51q0 40 -26 40q-22 0 -37.5 -30t-30.5 -89q-4 -16 -6.5 -19.5t-12.5 -3.5 q-15 0 -15 10zM270 561q0 5 13 18.5t27 24.5l13 11q47 36 74 36q18 0 29 -10t25 -33t29 -23q19 0 51 24.5t39 33.5q7 7 13 7q11 0 11 -10t-49 -50t-79 -40q-27 0 -51 39q-16 27 -32 27q-13 0 -35.5 -14.5t-37.5 -29.5l-16 -14q-9 -7 -13 -7q-11 0 -11 10z" />
<glyph unicode="&#xf2;" d="M110 154q0 109 79.5 198.5t173.5 89.5q65 0 105.5 -46t40.5 -118q0 -109 -79.5 -199t-173.5 -90q-64 0 -105 44.5t-41 120.5zM180 114q0 -51 22 -77t54 -26q36 0 71 28.5t58 71.5q22 42 38 106t16 100q0 45 -20.5 74t-56.5 29q-31 0 -64 -23.5t-60 -67.5 q-23 -39 -40.5 -107t-17.5 -108zM306 668q6 13 19 20.5t23 7.5q14 0 23 -17l71 -142q5 -10 2 -15q-3 -6 -11 -11.5t-13 -5.5t-10 8l-100 123q-13 13 -4 32z" />
<glyph unicode="&#xf3;" d="M110 154q0 109 79.5 198.5t173.5 89.5q65 0 105.5 -46t40.5 -118q0 -109 -79.5 -199t-173.5 -90q-64 0 -105 44.5t-41 120.5zM180 114q0 -51 22 -77t54 -26q36 0 71 28.5t58 71.5q22 42 38 106t16 100q0 45 -20.5 74t-56.5 29q-31 0 -64 -23.5t-60 -67.5 q-23 -39 -40.5 -107t-17.5 -108zM328 522q0 5 10 15l142 142q17 17 31 17q10 0 19 -7.5t9 -20.5q0 -19 -20 -32l-161 -123q-9 -8 -14 -8t-10.5 5.5t-5.5 11.5z" />
<glyph unicode="&#xf4;" d="M110 154q0 109 79.5 198.5t173.5 89.5q65 0 105.5 -46t40.5 -118q0 -109 -79.5 -199t-173.5 -90q-64 0 -105 44.5t-41 120.5zM180 114q0 -51 22 -77t54 -26q36 0 71 28.5t58 71.5q22 42 38 106t16 100q0 45 -20.5 74t-56.5 29q-31 0 -64 -23.5t-60 -67.5 q-23 -39 -40.5 -107t-17.5 -108zM252 536l166 144q9 8 15 0l94 -144q5 -7 -3.5 -14.5t-14.5 -1.5l-98 99l-148 -99q-9 -6 -14 1.5t3 14.5z" />
<glyph unicode="&#xf5;" d="M110 154q0 109 79.5 198.5t173.5 89.5q65 0 105.5 -46t40.5 -118q0 -109 -79.5 -199t-173.5 -90q-64 0 -105 44.5t-41 120.5zM180 114q0 -51 22 -77t54 -26q36 0 71 28.5t58 71.5q22 42 38 106t16 100q0 45 -20.5 74t-56.5 29q-31 0 -64 -23.5t-60 -67.5 q-23 -39 -40.5 -107t-17.5 -108zM244 561q0 5 13 18.5t27 24.5l13 11q47 36 74 36q18 0 29 -10t25 -33t29 -23q19 0 51 24.5t39 33.5q7 7 13 7q11 0 11 -10t-49 -50t-79 -40q-27 0 -51 39q-16 27 -32 27q-13 0 -35.5 -14.5t-37.5 -29.5l-16 -14q-9 -7 -13 -7q-11 0 -11 10z " />
<glyph unicode="&#xf6;" d="M110 154q0 109 79.5 198.5t173.5 89.5q65 0 105.5 -46t40.5 -118q0 -109 -79.5 -199t-173.5 -90q-64 0 -105 44.5t-41 120.5zM180 114q0 -51 22 -77t54 -26q36 0 71 28.5t58 71.5q22 42 38 106t16 100q0 45 -20.5 74t-56.5 29q-31 0 -64 -23.5t-60 -67.5 q-23 -39 -40.5 -107t-17.5 -108zM268 592q0 22 18 39.5t40 17.5q19 0 29.5 -11.5t10.5 -27.5q0 -22 -18 -39.5t-39 -17.5q-19 0 -30 11.5t-11 27.5zM445 592q0 22 18 39.5t40 17.5q19 0 29.5 -11.5t10.5 -27.5q0 -22 -18 -39.5t-39 -17.5q-19 0 -30 11.5t-11 27.5z" />
<glyph unicode="&#xf7;" horiz-adv-x="767" d="M139 250q0 20 34 20h546q33 0 33 -20t-33 -20h-546q-34 0 -34 20zM352 83q0 24 20.5 43.5t44.5 19.5q20 0 32 -13t12 -30q0 -23 -20 -43t-45 -20q-20 0 -32 12t-12 31zM431 397q0 24 20.5 43.5t44.5 19.5q20 0 32 -13t12 -30q0 -23 -20 -43t-45 -20q-20 0 -32 12t-12 31z " />
<glyph unicode="&#xf8;" d="M68 -97q0 5 8 14l82 112q-42 47 -42 121q0 108 77 200.5t171 92.5q45 0 81 -26l81 111q8 10 14 10q10 0 10 -10q0 -4 -8 -15l-81 -111q41 -47 41 -121q0 -111 -77.5 -202t-169.5 -91q-46 0 -81 26q-25 -33 -43.5 -59t-28.5 -40q-19 -22 -23 -22q-11 0 -11 10zM175 121 q0 -35 8 -57l240 325q-21 32 -60 32q-54 0 -99 -52.5t-67 -120.5t-22 -127zM195 42q23 -32 61 -32q55 0 100 53t66.5 121t21.5 127q0 32 -9 56z" />
<glyph unicode="&#xf9;" horiz-adv-x="537" d="M83 288q0 3 4 18t14.5 38.5t24 45t36.5 37t49 15.5q33 0 54.5 -22t21.5 -59q0 -20 -13 -54q-58 -158 -58 -219q0 -77 54 -77q53 0 92 58q8 12 14 33l73 292q9 37 39 37q14 0 21 -8t7 -18q0 -5 -3 -14l-72 -288q-7 -28 -7 -51q0 -41 26 -41q37 0 67 119q4 16 7 19.5 t12 3.5q15 0 15 -10q-12 -60 -30 -98q-27 -56 -73 -56q-60 0 -80 60q-48 -60 -111 -60q-47 0 -79.5 28t-32.5 88q0 56 52 196q24 67 24 90q0 29 -22 29q-60 0 -93 -126q-3 -11 -6 -13.5t-12 -2.5q-15 0 -15 10zM319 668q6 13 19 20.5t23 7.5q14 0 23 -17l71 -142 q5 -10 2 -15q-3 -6 -11 -11.5t-13 -5.5t-10 8l-100 123q-13 13 -4 32z" />
<glyph unicode="&#xfa;" horiz-adv-x="537" d="M83 288q0 3 4 18t14.5 38.5t24 45t36.5 37t49 15.5q33 0 54.5 -22t21.5 -59q0 -20 -13 -54q-58 -158 -58 -219q0 -77 54 -77q53 0 92 58q8 12 14 33l73 292q9 37 39 37q14 0 21 -8t7 -18q0 -5 -3 -14l-72 -288q-7 -28 -7 -51q0 -41 26 -41q37 0 67 119q4 16 7 19.5 t12 3.5q15 0 15 -10q-12 -60 -30 -98q-27 -56 -73 -56q-60 0 -80 60q-48 -60 -111 -60q-47 0 -79.5 28t-32.5 88q0 56 52 196q24 67 24 90q0 29 -22 29q-60 0 -93 -126q-3 -11 -6 -13.5t-12 -2.5q-15 0 -15 10zM341 522q0 5 10 15l142 142q17 17 31 17q10 0 19 -7.5t9 -20.5 q0 -19 -20 -32l-161 -123q-9 -8 -14 -8t-10.5 5.5t-5.5 11.5z" />
<glyph unicode="&#xfb;" horiz-adv-x="537" d="M83 288q0 3 4 18t14.5 38.5t24 45t36.5 37t49 15.5q33 0 54.5 -22t21.5 -59q0 -20 -13 -54q-58 -158 -58 -219q0 -77 54 -77q53 0 92 58q8 12 14 33l73 292q9 37 39 37q14 0 21 -8t7 -18q0 -5 -3 -14l-72 -288q-7 -28 -7 -51q0 -41 26 -41q37 0 67 119q4 16 7 19.5 t12 3.5q15 0 15 -10q-12 -60 -30 -98q-27 -56 -73 -56q-60 0 -80 60q-48 -60 -111 -60q-47 0 -79.5 28t-32.5 88q0 56 52 196q24 67 24 90q0 29 -22 29q-60 0 -93 -126q-3 -11 -6 -13.5t-12 -2.5q-15 0 -15 10zM265 536l166 144q9 8 15 0l94 -144q5 -7 -3.5 -14.5 t-14.5 -1.5l-98 99l-148 -99q-9 -6 -14 1.5t3 14.5z" />
<glyph unicode="&#xfc;" horiz-adv-x="537" d="M83 288q0 3 4 18t14.5 38.5t24 45t36.5 37t49 15.5q33 0 54.5 -22t21.5 -59q0 -20 -13 -54q-58 -158 -58 -219q0 -77 54 -77q53 0 92 58q8 12 14 33l73 292q9 37 39 37q14 0 21 -8t7 -18q0 -5 -3 -14l-72 -288q-7 -28 -7 -51q0 -41 26 -41q37 0 67 119q4 16 7 19.5 t12 3.5q15 0 15 -10q-12 -60 -30 -98q-27 -56 -73 -56q-60 0 -80 60q-48 -60 -111 -60q-47 0 -79.5 28t-32.5 88q0 56 52 196q24 67 24 90q0 29 -22 29q-60 0 -93 -126q-3 -11 -6 -13.5t-12 -2.5q-15 0 -15 10zM281 592q0 22 18 39.5t40 17.5q19 0 29.5 -11.5t10.5 -27.5 q0 -22 -18 -39.5t-39 -17.5q-19 0 -30 11.5t-11 27.5zM458 592q0 22 18 39.5t40 17.5q19 0 29.5 -11.5t10.5 -27.5q0 -22 -18 -39.5t-39 -17.5q-19 0 -30 11.5t-11 27.5z" />
<glyph unicode="&#xfd;" horiz-adv-x="486" d="M83 288q0 3 4 18t14.5 38.5t24 45t36.5 37t49 15.5q33 0 54.5 -22t21.5 -59q0 -20 -13 -54q-58 -158 -58 -219q0 -77 54 -77q40 0 69.5 30.5t36.5 58.5l73 294q9 37 39 37q14 0 21 -8t7 -18q0 -2 -1.5 -6.5t-1.5 -7.5l-98 -394q-20 -79 -83 -140.5t-137 -61.5 q-42 0 -69 23.5t-27 62.5q0 25 11 40.5t21 18.5t19 3q14 0 24 -8.5t10 -23.5t-11 -30t-32 -18l-8 -3q0 -4 5 -13.5t20 -19.5t37 -10q46 0 91 48.5t71 160.5q-37 -37 -90 -37q-47 0 -79.5 28t-32.5 88q0 56 52 196q24 67 24 90q0 29 -22 29q-60 0 -93 -126q-3 -11 -6 -13.5 t-12 -2.5q-15 0 -15 10zM315 522q0 5 10 15l142 142q17 17 31 17q10 0 19 -7.5t9 -20.5q0 -19 -20 -32l-161 -123q-9 -8 -14 -8t-10.5 5.5t-5.5 11.5z" />
<glyph unicode="&#xfe;" horiz-adv-x="460" d="M-37 -182q0 19 21 19q30 1 39.5 6.5t15.5 28.5l186 746q3 14 3 17q0 6 -2 9t-13.5 5.5t-34.5 2.5q-24 0 -24 11q0 9 3.5 13.5t7.5 5.5t12 2l99 8q6 2 16 2q14 0 14 -12q-2 -10 -3 -13l-70 -280q56 53 106 53q49 0 84.5 -40.5t35.5 -115.5q0 -113 -67.5 -205t-160.5 -92 q-34 0 -55 19t-29 39l-36 -146q-11 -44 -11 -48q0 -6 2 -9t13.5 -5t35.5 -2t24 -12q0 -19 -19 -19q-15 0 -48 1.5t-49 1.5q-14 0 -42.5 -1.5t-41.5 -1.5q-12 0 -12 12zM162 104q0 -10 4 -28.5t21 -41.5t43 -23q33 0 62 32t44 63q21 46 38.5 119t17.5 106t-12.5 61t-42.5 28 q-38 0 -78 -41t-47 -72l-47 -189q-3 -12 -3 -14z" />
<glyph unicode="&#xff;" horiz-adv-x="486" d="M83 288q0 3 4 18t14.5 38.5t24 45t36.5 37t49 15.5q33 0 54.5 -22t21.5 -59q0 -20 -13 -54q-58 -158 -58 -219q0 -77 54 -77q40 0 69.5 30.5t36.5 58.5l73 294q9 37 39 37q14 0 21 -8t7 -18q0 -2 -1.5 -6.5t-1.5 -7.5l-98 -394q-20 -79 -83 -140.5t-137 -61.5 q-42 0 -69 23.5t-27 62.5q0 25 11 40.5t21 18.5t19 3q14 0 24 -8.5t10 -23.5t-11 -30t-32 -18l-8 -3q0 -4 5 -13.5t20 -19.5t37 -10q46 0 91 48.5t71 160.5q-37 -37 -90 -37q-47 0 -79.5 28t-32.5 88q0 56 52 196q24 67 24 90q0 29 -22 29q-60 0 -93 -126q-3 -11 -6 -13.5 t-12 -2.5q-15 0 -15 10zM255 592q0 22 18 39.5t40 17.5q19 0 29.5 -11.5t10.5 -27.5q0 -22 -18 -39.5t-39 -17.5q-19 0 -30 11.5t-11 27.5zM432 592q0 22 18 39.5t40 17.5q19 0 29.5 -11.5t10.5 -27.5q0 -22 -18 -39.5t-39 -17.5q-19 0 -30 11.5t-11 27.5z" />
<glyph unicode="&#x100;" horiz-adv-x="743" d="M59 12q1 18 12 19q17 1 28.5 3.5t28.5 9.5t33 24.5t31 44.5l332 585q10 18 26 18q12 0 14.5 -4t3.5 -21l43 -626q2 -21 11 -27.5t46 -6.5q10 0 14 -0.5t7 -3.5t3 -9q0 -18 -18 -18q-17 0 -52 1.5t-53 1.5q-19 0 -58 -1.5t-57 -1.5q-15 0 -15 12q0 19 23 19q67 0 67 32 l-11 166h-228l-72 -126q-14 -26 -14 -38q0 -27 42 -34q16 -2 16 -12q0 -19 -18 -19q-15 0 -46 1.5t-47 1.5q-13 0 -40.5 -1.5t-39.5 -1.5t-12 12zM307 260h209l-23 327zM398 769q0 12 6 14.5t21 2.5h280q25 0 25 -11q0 -13 -6 -16t-21 -3h-280q-10 0 -14.5 0.5t-7.5 3.5 t-3 9z" />
<glyph unicode="&#x101;" d="M108 144q0 109 73 203.5t156 94.5q57 0 83 -59q8 39 40 39q27 0 27 -26q0 -7 -4 -21l-68 -272q-7 -28 -7 -51q0 -41 26 -41q37 0 67 119q4 16 7 19.5t12 3.5q15 0 15 -10q-12 -60 -30 -98q-27 -56 -73 -56q-29 0 -52 17.5t-31 52.5q-57 -70 -120 -70q-55 0 -88 44.5 t-33 110.5zM176 100q0 -33 12 -61t43 -28q37 0 77.5 41.5t47.5 71.5l47 189l3 13q0 35 -19 64.5t-50 29.5q-30 0 -61.5 -32t-50.5 -79q-15 -35 -32 -104.5t-17 -104.5zM240 599q0 12 6 14.5t21 2.5h280q25 0 25 -11q0 -13 -6 -16t-21 -3h-280q-10 0 -14.5 0.5t-7.5 3.5t-3 9 z" />
<glyph unicode="&#x102;" horiz-adv-x="743" d="M59 12q1 18 12 19q17 1 28.5 3.5t28.5 9.5t33 24.5t31 44.5l332 585q10 18 26 18q12 0 14.5 -4t3.5 -21l43 -626q2 -21 11 -27.5t46 -6.5q10 0 14 -0.5t7 -3.5t3 -9q0 -18 -18 -18q-17 0 -52 1.5t-53 1.5q-19 0 -58 -1.5t-57 -1.5q-15 0 -15 12q0 19 23 19q67 0 67 32 l-11 166h-228l-72 -126q-14 -26 -14 -38q0 -27 42 -34q16 -2 16 -12q0 -19 -18 -19q-15 0 -46 1.5t-47 1.5q-13 0 -40.5 -1.5t-39.5 -1.5t-12 12zM307 260h209l-23 327zM453 864q0 52 17 52q11 0 11 -11q-5 -23 -5 -33q0 -38 23 -64t65 -26q41 0 85 31t63 89q5 14 13 14 q11 0 11 -10q0 -18 -19.5 -54t-62.5 -71t-94 -35t-79 34.5t-28 83.5z" />
<glyph unicode="&#x103;" d="M108 144q0 109 73 203.5t156 94.5q57 0 83 -59q8 39 40 39q27 0 27 -26q0 -7 -4 -21l-68 -272q-7 -28 -7 -51q0 -41 26 -41q37 0 67 119q4 16 7 19.5t12 3.5q15 0 15 -10q-12 -60 -30 -98q-27 -56 -73 -56q-29 0 -52 17.5t-31 52.5q-57 -70 -120 -70q-55 0 -88 44.5 t-33 110.5zM176 100q0 -33 12 -61t43 -28q37 0 77.5 41.5t47.5 71.5l47 189l3 13q0 35 -19 64.5t-50 29.5q-30 0 -61.5 -32t-50.5 -79q-15 -35 -32 -104.5t-17 -104.5zM280 634q0 52 17 52q11 0 11 -11q-5 -23 -5 -33q0 -38 23 -64t65 -26q41 0 85 31t63 89q5 14 13 14 q11 0 11 -10q0 -18 -19.5 -54t-62.5 -71t-94 -35t-79 34.5t-28 83.5z" />
<glyph unicode="&#x104;" horiz-adv-x="743" d="M59 12q1 18 12 19q17 1 28.5 3.5t28.5 9.5t33 24.5t31 44.5l332 585q10 18 26 18q12 0 14.5 -4t3.5 -21l43 -626q2 -21 11 -27.5t46 -6.5q10 0 14 -0.5t7 -3.5t3 -9q0 -18 -18 -18q-13 0 -27.5 0.5t-33 1.5t-28.5 1q-84 -51 -95 -98q-7 -32 17 -50.5t55 -18.5q52 0 89 56 q5 8 12.5 5t3.5 -12q-21 -42 -61 -69t-78 -27q-47 0 -73 27t-18 63q14 65 110 124l-93 -3q-15 0 -15 12q0 19 23 19q67 0 67 32l-11 166h-228l-72 -126q-14 -26 -14 -38q0 -27 42 -34q16 -2 16 -12q0 -19 -18 -19q-15 0 -46 1.5t-47 1.5q-13 0 -40.5 -1.5t-39.5 -1.5t-12 12 zM307 260h209l-23 327z" />
<glyph unicode="&#x105;" d="M108 144q0 109 73 203.5t156 94.5q57 0 83 -59q8 39 40 39q27 0 27 -26q0 -7 -4 -21l-68 -272q-7 -28 -7 -51q0 -41 26 -41q37 0 67 119q4 16 7 19.5t12 3.5q15 0 15 -10q-12 -60 -30 -98q-27 -56 -73 -56q-19 0 -34 7q-37 -22 -59.5 -43t-28.5 -48q-7 -32 17 -50.5 t55 -18.5q52 0 89 56q5 8 12.5 5t3.5 -12q-21 -42 -61 -69t-78 -27q-47 0 -73 27t-18 63q14 68 119 132q-20 17 -27 48q-57 -70 -120 -70q-55 0 -88 44.5t-33 110.5zM176 100q0 -33 12 -61t43 -28q37 0 77.5 41.5t47.5 71.5l47 189l3 13q0 35 -19 64.5t-50 29.5 q-30 0 -61.5 -32t-50.5 -79q-15 -35 -32 -104.5t-17 -104.5z" />
<glyph unicode="&#x106;" horiz-adv-x="716" d="M150 245q0 114 62 222t160 173t199 65q98 0 151 -85l63 74q4 5 8 7.5t6 2.5l2 1q4 0 7 -2.5t4 -4.5v-3q0 -6 -2 -14l-61 -243q-3 -12 -6 -15t-12 -3q-15 0 -15 10q0 1 1 11t2.5 24.5t1.5 25.5q0 75 -34.5 129t-107.5 54q-60 0 -124 -35.5t-113 -102.5q-53 -73 -79 -170 t-26 -159q0 -99 50.5 -148.5t121.5 -49.5q73 0 148.5 58.5t110.5 174.5q3 8 16 8q15 0 15 -10q0 -21 -21 -62t-57 -86.5t-97 -79.5t-129 -34q-106 0 -175.5 73t-69.5 194zM517 766q2 6 12 13l165 116q16 11 28 11q14 0 22 -9.5t6 -23.5q-3 -17 -25 -28l-180 -93 q-11 -6 -15 -5q-5 1 -9.5 7t-3.5 12z" />
<glyph unicode="&#x107;" horiz-adv-x="460" d="M110 154q0 109 79.5 198.5t173.5 89.5q47 0 77 -24.5t30 -61.5q0 -27 -15 -43.5t-36 -16.5q-16 0 -25 9.5t-9 22.5q0 2 0.5 5t3 10.5t7 14t15 12t24.5 7.5q-16 43 -71 43q-35 0 -70 -26t-61 -74q-19 -36 -36 -101t-17 -105q0 -46 20 -74.5t59 -28.5q17 0 38.5 3.5t65 28 t76.5 66.5q9 11 13 11q6 0 11 -6t5 -10q0 -10 -24.5 -36t-76.5 -52.5t-110 -26.5q-66 0 -106.5 45.5t-40.5 119.5zM325 522q0 5 10 15l142 142q17 17 31 17q10 0 19 -7.5t9 -20.5q0 -19 -20 -32l-161 -123q-9 -8 -14 -8t-10.5 5.5t-5.5 11.5z" />
<glyph unicode="&#x108;" horiz-adv-x="716" d="M150 245q0 114 62 222t160 173t199 65q98 0 151 -85l63 74q4 5 8 7.5t6 2.5l2 1q4 0 7 -2.5t4 -4.5v-3q0 -6 -2 -14l-61 -243q-3 -12 -6 -15t-12 -3q-15 0 -15 10q0 1 1 11t2.5 24.5t1.5 25.5q0 75 -34.5 129t-107.5 54q-60 0 -124 -35.5t-113 -102.5q-53 -73 -79 -170 t-26 -159q0 -99 50.5 -148.5t121.5 -49.5q73 0 148.5 58.5t110.5 174.5q3 8 16 8q15 0 15 -10q0 -21 -21 -62t-57 -86.5t-97 -79.5t-129 -34q-106 0 -175.5 73t-69.5 194zM446 755l155 98q7 3 12 0l106 -98q6 -5 -1 -13.5t-14 -4.5l-112 55l-140 -55q-6 -2 -10 1t-3 8.5 t7 8.5z" />
<glyph unicode="&#x109;" horiz-adv-x="460" d="M110 154q0 109 79.5 198.5t173.5 89.5q47 0 77 -24.5t30 -61.5q0 -27 -15 -43.5t-36 -16.5q-16 0 -25 9.5t-9 22.5q0 2 0.5 5t3 10.5t7 14t15 12t24.5 7.5q-16 43 -71 43q-35 0 -70 -26t-61 -74q-19 -36 -36 -101t-17 -105q0 -46 20 -74.5t59 -28.5q17 0 38.5 3.5t65 28 t76.5 66.5q9 11 13 11q6 0 11 -6t5 -10q0 -10 -24.5 -36t-76.5 -52.5t-110 -26.5q-66 0 -106.5 45.5t-40.5 119.5zM249 536l166 144q9 8 15 0l94 -144q5 -7 -3.5 -14.5t-14.5 -1.5l-98 99l-148 -99q-9 -6 -14 1.5t3 14.5z" />
<glyph unicode="&#x10a;" horiz-adv-x="716" d="M150 245q0 114 62 222t160 173t199 65q98 0 151 -85l63 74q4 5 8 7.5t6 2.5l2 1q4 0 7 -2.5t4 -4.5v-3q0 -6 -2 -14l-61 -243q-3 -12 -6 -15t-12 -3q-15 0 -15 10q0 1 1 11t2.5 24.5t1.5 25.5q0 75 -34.5 129t-107.5 54q-60 0 -124 -35.5t-113 -102.5q-53 -73 -79 -170 t-26 -159q0 -99 50.5 -148.5t121.5 -49.5q73 0 148.5 58.5t110.5 174.5q3 8 16 8q15 0 15 -10q0 -21 -21 -62t-57 -86.5t-97 -79.5t-129 -34q-106 0 -175.5 73t-69.5 194zM542 801q0 24 20 43.5t44 19.5q21 0 33 -13t12 -30q0 -24 -20 -43.5t-44 -19.5q-21 0 -33 12.5 t-12 30.5z" />
<glyph unicode="&#x10b;" horiz-adv-x="460" d="M110 154q0 109 79.5 198.5t173.5 89.5q47 0 77 -24.5t30 -61.5q0 -27 -15 -43.5t-36 -16.5q-16 0 -25 9.5t-9 22.5q0 2 0.5 5t3 10.5t7 14t15 12t24.5 7.5q-16 43 -71 43q-35 0 -70 -26t-61 -74q-19 -36 -36 -101t-17 -105q0 -46 20 -74.5t59 -28.5q17 0 38.5 3.5t65 28 t76.5 66.5q9 11 13 11q6 0 11 -6t5 -10q0 -10 -24.5 -36t-76.5 -52.5t-110 -26.5q-66 0 -106.5 45.5t-40.5 119.5zM349 591q0 24 20 43.5t44 19.5q21 0 33 -13t12 -30q0 -24 -20 -43.5t-44 -19.5q-21 0 -33 12.5t-12 30.5z" />
<glyph unicode="&#x10c;" horiz-adv-x="716" d="M150 245q0 114 62 222t160 173t199 65q98 0 151 -85l63 74q4 5 8 7.5t6 2.5l2 1q4 0 7 -2.5t4 -4.5v-3q0 -6 -2 -14l-61 -243q-3 -12 -6 -15t-12 -3q-15 0 -15 10q0 1 1 11t2.5 24.5t1.5 25.5q0 75 -34.5 129t-107.5 54q-60 0 -124 -35.5t-113 -102.5q-53 -73 -79 -170 t-26 -159q0 -99 50.5 -148.5t121.5 -49.5q73 0 148.5 58.5t110.5 174.5q3 8 16 8q15 0 15 -10q0 -21 -21 -62t-57 -86.5t-97 -79.5t-129 -34q-106 0 -175.5 73t-69.5 194zM466 836q-6 5 1 13.5t14 4.5l112 -55l140 55q6 2 10 -1t3 -8.5t-7 -8.5l-155 -98q-7 -3 -12 0z" />
<glyph unicode="&#x10d;" horiz-adv-x="460" d="M110 154q0 109 79.5 198.5t173.5 89.5q47 0 77 -24.5t30 -61.5q0 -27 -15 -43.5t-36 -16.5q-16 0 -25 9.5t-9 22.5q0 2 0.5 5t3 10.5t7 14t15 12t24.5 7.5q-16 43 -71 43q-35 0 -70 -26t-61 -74q-19 -36 -36 -101t-17 -105q0 -46 20 -74.5t59 -28.5q17 0 38.5 3.5t65 28 t76.5 66.5q9 11 13 11q6 0 11 -6t5 -10q0 -10 -24.5 -36t-76.5 -52.5t-110 -26.5q-66 0 -106.5 45.5t-40.5 119.5zM282 665q-5 7 3.5 14.5t14.5 1.5l99 -99l147 99q9 6 14 -1.5t-3 -14.5l-166 -144q-9 -7 -15 0z" />
<glyph unicode="&#x10e;" horiz-adv-x="755" d="M63 12q0 13 6 16t21 3q49 0 62.5 7.5t19.5 34.5l135 543q4 14 4 19q0 11 -14 14t-44 3q-11 0 -15.5 0.5t-8 3t-3.5 8.5q0 13 6 16t21 3h312q96 0 153 -68t57 -177q0 -110 -55 -212t-143.5 -164t-181.5 -62h-307q-10 0 -14 0.5t-7.5 3t-3.5 8.5zM244 41q0 -4 1 -6t8 -3 t22 -1h103q115 0 200 99q56 66 85 174t29 172q0 91 -46 133.5t-114 42.5h-97q-26 0 -34.5 -5.5t-14.5 -30.5l-138 -553q0 -1 -2 -9.5t-2 -12.5zM393 836q-6 5 1 13.5t14 4.5l112 -55l140 55q6 2 10 -1t3 -8.5t-7 -8.5l-155 -98q-7 -3 -12 0z" />
<glyph unicode="&#x10f;" d="M108 144q0 109 73 203.5t156 94.5q56 0 84 -58l58 234q3 14 3 17q0 6 -2 9t-13.5 5.5t-34.5 2.5q-24 0 -24 11q0 9 3.5 13.5t7.5 5.5t12 2l99 8q6 2 16 2q14 0 14 -12q-2 -10 -3 -13l-143 -571q-6 -24 -6 -46q0 -41 26 -41q37 0 67 119q4 16 7 19.5t12 3.5q15 0 15 -10 q-12 -60 -30 -98q-27 -56 -73 -56q-29 0 -52 17.5t-31 52.5q-57 -70 -120 -70q-55 0 -88 44.5t-33 110.5zM176 100q0 -33 12 -61t43 -28q37 0 77 41t47 70l48 192q3 9 3 13q0 32 -20 64q-19 29 -49 29t-61.5 -32t-50.5 -79q-15 -35 -32 -104.5t-17 -104.5zM557 477 q0 3 10 13q70 60 84 136q-15 -11 -31 -11q-33 0 -33 31q0 18 14 33t35 15q35 0 35 -44q0 -40 -24 -84.5t-49 -70t-33 -25.5t-8 7z" />
<glyph unicode="&#x110;" horiz-adv-x="755" d="M63 12q0 13 6 16t21 3q49 0 62.5 7.5t19.5 34.5l63 254h-94q-15 0 -10.5 15t17.5 15h95l64 259q4 14 4 19q0 11 -14 14t-44 3q-11 0 -15.5 0.5t-8 3t-3.5 8.5q0 13 6 16t21 3h312q96 0 153 -68t57 -177q0 -110 -55 -212t-143.5 -164t-181.5 -62h-307q-10 0 -14 0.5 t-7.5 3t-3.5 8.5zM244 41q0 -4 1 -6t8 -3t22 -1h103q115 0 200 99q56 66 85 174t29 172q0 91 -46 133.5t-114 42.5h-97q-26 0 -34.5 -5.5t-14.5 -30.5l-65 -259h146q6 0 9.5 -4.5t1.5 -10.5q-3 -15 -19 -15h-145l-66 -264q0 -1 -2 -9.5t-2 -12.5z" />
<glyph unicode="&#x111;" d="M108 144q0 109 73 203.5t156 94.5q56 0 84 -58l37 149h-121q-14 0 -11 15q4 15 19 15h120l14 55q3 14 3 17q0 6 -2 9t-13.5 5.5t-34.5 2.5q-24 0 -24 11q0 9 3.5 13.5t7.5 5.5t12 2l99 8q6 2 16 2q14 0 14 -12q-2 -10 -3 -13l-27 -106h47q6 0 9.5 -4.5t1.5 -10.5 q-3 -15 -19 -15h-46l-109 -435q-6 -24 -6 -46q0 -41 26 -41q37 0 67 119q4 16 7 19.5t12 3.5q15 0 15 -10q-12 -60 -30 -98q-27 -56 -73 -56q-29 0 -52 17.5t-31 52.5q-57 -70 -120 -70q-55 0 -88 44.5t-33 110.5zM176 100q0 -33 12 -61t43 -28q37 0 77 41t47 70l48 192 q3 9 3 13q0 32 -20 64q-19 29 -49 29t-61.5 -32t-50.5 -79q-15 -35 -32 -104.5t-17 -104.5z" />
<glyph unicode="&#x112;" horiz-adv-x="678" d="M62 12q0 13 6 16t21 3q49 0 62.5 7.5t19.5 34.5l134 536l4 23q0 6 -2 9t-15.5 5.5t-40.5 2.5q-12 0 -16.5 0.5t-7.5 3.5t-3 9q0 12 6 15t21 3h467q10 0 13 -0.5t8 -3t3.5 -7.5t-0.5 -15l-23 -177q-1 -10 -2 -14t-4.5 -6t-10.5 -2q-15 0 -15 12q0 7 2 17q5 40 5 64 q0 56 -27.5 78.5t-105.5 22.5h-125q-26 0 -34 -5t-14 -29l-61 -246h81q59 0 81.5 19t37.5 74q6 22 11 23q3 1 8 1q16 0 16 -12q-2 -10 -3 -13l-55 -220q-3 -13 -6 -16.5t-12 -3.5q-16 0 -16 12l2 11q9 33 9 51q0 23 -14 33t-61 10h-87l-69 -275q0 -1 -2 -9.5t-2 -12.5t1 -6 t8 -3t22 -1h122q47 0 82 9t58.5 22t44 41.5t34 55.5t33.5 75q7 17 10 20.5t11 3.5q15 0 15 -11q-3 -10 -4 -12l-89 -219q-5 -11 -9 -13.5t-19 -2.5h-479q-10 0 -14 0.5t-7.5 3t-3.5 8.5zM366 769q0 12 6 14.5t21 2.5h280q25 0 25 -11q0 -13 -6 -16t-21 -3h-280 q-10 0 -14.5 0.5t-7.5 3.5t-3 9z" />
<glyph unicode="&#x113;" horiz-adv-x="460" d="M114 164q0 123 80 200.5t168 77.5q46 0 73.5 -24.5t27.5 -60.5q0 -5 -0.5 -10.5t-4.5 -19.5t-11.5 -26t-24 -25.5t-38.5 -22.5q-56 -22 -145 -22h-39q-17 -66 -17 -110q0 -25 5 -47t23 -42.5t48 -20.5q17 0 38.5 3.5t65 28t76.5 66.5q9 11 13 11q6 0 11 -6t5 -10 q0 -10 -24.5 -36t-76.5 -52.5t-110 -26.5q-68 0 -105.5 51.5t-37.5 123.5zM206 253h21q15 0 27 0.5t38.5 3t46.5 9.5t41.5 18t33 30.5t11.5 44.5q0 26 -17 43.5t-46 17.5q-7 0 -16 -1.5t-30.5 -10.5t-39.5 -25t-38 -50t-32 -80zM214 599q0 12 6 14.5t21 2.5h280q25 0 25 -11 q0 -13 -6 -16t-21 -3h-280q-10 0 -14.5 0.5t-7.5 3.5t-3 9z" />
<glyph unicode="&#x114;" horiz-adv-x="678" d="M62 12q0 13 6 16t21 3q49 0 62.5 7.5t19.5 34.5l134 536l4 23q0 6 -2 9t-15.5 5.5t-40.5 2.5q-12 0 -16.5 0.5t-7.5 3.5t-3 9q0 12 6 15t21 3h467q10 0 13 -0.5t8 -3t3.5 -7.5t-0.5 -15l-23 -177q-1 -10 -2 -14t-4.5 -6t-10.5 -2q-15 0 -15 12q0 7 2 17q5 40 5 64 q0 56 -27.5 78.5t-105.5 22.5h-125q-26 0 -34 -5t-14 -29l-61 -246h81q59 0 81.5 19t37.5 74q6 22 11 23q3 1 8 1q16 0 16 -12q-2 -10 -3 -13l-55 -220q-3 -13 -6 -16.5t-12 -3.5q-16 0 -16 12l2 11q9 33 9 51q0 23 -14 33t-61 10h-87l-69 -275q0 -1 -2 -9.5t-2 -12.5t1 -6 t8 -3t22 -1h122q47 0 82 9t58.5 22t44 41.5t34 55.5t33.5 75q7 17 10 20.5t11 3.5q15 0 15 -11q-3 -10 -4 -12l-89 -219q-5 -11 -9 -13.5t-19 -2.5h-479q-10 0 -14 0.5t-7.5 3t-3.5 8.5zM421 864q0 52 17 52q11 0 11 -11q-5 -23 -5 -33q0 -38 23 -64t65 -26q41 0 85 31 t63 89q5 14 13 14q11 0 11 -10q0 -18 -19.5 -54t-62.5 -71t-94 -35t-79 34.5t-28 83.5z" />
<glyph unicode="&#x115;" horiz-adv-x="460" d="M114 164q0 123 80 200.5t168 77.5q46 0 73.5 -24.5t27.5 -60.5q0 -5 -0.5 -10.5t-4.5 -19.5t-11.5 -26t-24 -25.5t-38.5 -22.5q-56 -22 -145 -22h-39q-17 -66 -17 -110q0 -25 5 -47t23 -42.5t48 -20.5q17 0 38.5 3.5t65 28t76.5 66.5q9 11 13 11q6 0 11 -6t5 -10 q0 -10 -24.5 -36t-76.5 -52.5t-110 -26.5q-68 0 -105.5 51.5t-37.5 123.5zM206 253h21q15 0 27 0.5t38.5 3t46.5 9.5t41.5 18t33 30.5t11.5 44.5q0 26 -17 43.5t-46 17.5q-7 0 -16 -1.5t-30.5 -10.5t-39.5 -25t-38 -50t-32 -80zM254 634q0 52 17 52q11 0 11 -11 q-5 -23 -5 -33q0 -38 23 -64t65 -26q41 0 85 31t63 89q5 14 13 14q11 0 11 -10q0 -18 -19.5 -54t-62.5 -71t-94 -35t-79 34.5t-28 83.5z" />
<glyph unicode="&#x116;" horiz-adv-x="678" d="M62 12q0 13 6 16t21 3q49 0 62.5 7.5t19.5 34.5l134 536l4 23q0 6 -2 9t-15.5 5.5t-40.5 2.5q-12 0 -16.5 0.5t-7.5 3.5t-3 9q0 12 6 15t21 3h467q10 0 13 -0.5t8 -3t3.5 -7.5t-0.5 -15l-23 -177q-1 -10 -2 -14t-4.5 -6t-10.5 -2q-15 0 -15 12q0 7 2 17q5 40 5 64 q0 56 -27.5 78.5t-105.5 22.5h-125q-26 0 -34 -5t-14 -29l-61 -246h81q59 0 81.5 19t37.5 74q6 22 11 23q3 1 8 1q16 0 16 -12q-2 -10 -3 -13l-55 -220q-3 -13 -6 -16.5t-12 -3.5q-16 0 -16 12l2 11q9 33 9 51q0 23 -14 33t-61 10h-87l-69 -275q0 -1 -2 -9.5t-2 -12.5t1 -6 t8 -3t22 -1h122q47 0 82 9t58.5 22t44 41.5t34 55.5t33.5 75q7 17 10 20.5t11 3.5q15 0 15 -11q-3 -10 -4 -12l-89 -219q-5 -11 -9 -13.5t-19 -2.5h-479q-10 0 -14 0.5t-7.5 3t-3.5 8.5zM488 801q0 24 20 43.5t44 19.5q21 0 33 -13t12 -30q0 -24 -20 -43.5t-44 -19.5 q-21 0 -33 12.5t-12 30.5z" />
<glyph unicode="&#x117;" horiz-adv-x="460" d="M114 164q0 123 80 200.5t168 77.5q46 0 73.5 -24.5t27.5 -60.5q0 -5 -0.5 -10.5t-4.5 -19.5t-11.5 -26t-24 -25.5t-38.5 -22.5q-56 -22 -145 -22h-39q-17 -66 -17 -110q0 -25 5 -47t23 -42.5t48 -20.5q17 0 38.5 3.5t65 28t76.5 66.5q9 11 13 11q6 0 11 -6t5 -10 q0 -10 -24.5 -36t-76.5 -52.5t-110 -26.5q-68 0 -105.5 51.5t-37.5 123.5zM206 253h21q15 0 27 0.5t38.5 3t46.5 9.5t41.5 18t33 30.5t11.5 44.5q0 26 -17 43.5t-46 17.5q-7 0 -16 -1.5t-30.5 -10.5t-39.5 -25t-38 -50t-32 -80zM326 591q0 24 20 43.5t44 19.5q21 0 33 -13 t12 -30q0 -24 -20 -43.5t-44 -19.5q-21 0 -33 12.5t-12 30.5z" />
<glyph unicode="&#x118;" horiz-adv-x="678" d="M62 12q0 13 6 16t21 3q49 0 62.5 7.5t19.5 34.5l134 536l4 23q0 6 -2 9t-15.5 5.5t-40.5 2.5q-12 0 -16.5 0.5t-7.5 3.5t-3 9q0 12 6 15t21 3h467q10 0 13 -0.5t8 -3t3.5 -7.5t-0.5 -15l-23 -177q-1 -10 -2 -14t-4.5 -6t-10.5 -2q-15 0 -15 12q0 7 2 17q5 40 5 64 q0 56 -27.5 78.5t-105.5 22.5h-125q-26 0 -34 -5t-14 -29l-61 -246h81q59 0 81.5 19t37.5 74q6 22 11 23q3 1 8 1q16 0 16 -12q-2 -10 -3 -13l-55 -220q-3 -13 -6 -16.5t-12 -3.5q-16 0 -16 12l2 11q9 33 9 51q0 23 -14 33t-61 10h-87l-69 -275q0 -1 -2 -9.5t-2 -12.5t1 -6 t8 -3t22 -1h122q47 0 82 9t58.5 22t44 41.5t34 55.5t33.5 75q7 17 10 20.5t11 3.5q15 0 15 -11q-3 -10 -4 -12l-89 -219q-5 -11 -9 -13.5t-19 -2.5h-92q-83 -44 -94 -95q-7 -32 17 -50.5t55 -18.5q52 0 89 56q5 8 12.5 5t3.5 -12q-21 -42 -61 -69t-78 -27q-47 0 -73 27 t-18 63q8 39 37 71.5t72 49.5h-349q-10 0 -14 0.5t-7.5 3t-3.5 8.5z" />
<glyph unicode="&#x119;" horiz-adv-x="460" d="M114 164q0 123 80 200.5t168 77.5q46 0 73.5 -24.5t27.5 -60.5q0 -5 -0.5 -10.5t-4.5 -19.5t-11.5 -26t-24 -25.5t-38.5 -22.5q-56 -22 -145 -22h-39q-17 -66 -17 -110q0 -25 5 -47t23 -42.5t48 -20.5q17 0 38.5 3.5t65 28t76.5 66.5q9 11 13 11q6 0 11 -6t5 -10 q0 -7 -15.5 -25t-48 -41t-70.5 -36q-83 -50 -94 -97q-7 -32 17 -50.5t55 -18.5q52 0 89 56q5 8 12.5 5t3.5 -12q-21 -42 -61 -69t-78 -27q-47 0 -73 27t-18 63q12 58 91 111q-7 -1 -21 -1q-68 0 -105.5 51.5t-37.5 123.5zM206 253h21q15 0 27 0.5t38.5 3t46.5 9.5t41.5 18 t33 30.5t11.5 44.5q0 26 -17 43.5t-46 17.5q-7 0 -16 -1.5t-30.5 -10.5t-39.5 -25t-38 -50t-32 -80z" />
<glyph unicode="&#x11a;" horiz-adv-x="678" d="M62 12q0 13 6 16t21 3q49 0 62.5 7.5t19.5 34.5l134 536l4 23q0 6 -2 9t-15.5 5.5t-40.5 2.5q-12 0 -16.5 0.5t-7.5 3.5t-3 9q0 12 6 15t21 3h467q10 0 13 -0.5t8 -3t3.5 -7.5t-0.5 -15l-23 -177q-1 -10 -2 -14t-4.5 -6t-10.5 -2q-15 0 -15 12q0 7 2 17q5 40 5 64 q0 56 -27.5 78.5t-105.5 22.5h-125q-26 0 -34 -5t-14 -29l-61 -246h81q59 0 81.5 19t37.5 74q6 22 11 23q3 1 8 1q16 0 16 -12q-2 -10 -3 -13l-55 -220q-3 -13 -6 -16.5t-12 -3.5q-16 0 -16 12l2 11q9 33 9 51q0 23 -14 33t-61 10h-87l-69 -275q0 -1 -2 -9.5t-2 -12.5t1 -6 t8 -3t22 -1h122q47 0 82 9t58.5 22t44 41.5t34 55.5t33.5 75q7 17 10 20.5t11 3.5q15 0 15 -11q-3 -10 -4 -12l-89 -219q-5 -11 -9 -13.5t-19 -2.5h-479q-10 0 -14 0.5t-7.5 3t-3.5 8.5zM411 836q-6 5 1 13.5t14 4.5l112 -55l140 55q6 2 10 -1t3 -8.5t-7 -8.5l-155 -98 q-7 -3 -12 0z" />
<glyph unicode="&#x11b;" horiz-adv-x="460" d="M114 164q0 123 80 200.5t168 77.5q46 0 73.5 -24.5t27.5 -60.5q0 -5 -0.5 -10.5t-4.5 -19.5t-11.5 -26t-24 -25.5t-38.5 -22.5q-56 -22 -145 -22h-39q-17 -66 -17 -110q0 -25 5 -47t23 -42.5t48 -20.5q17 0 38.5 3.5t65 28t76.5 66.5q9 11 13 11q6 0 11 -6t5 -10 q0 -10 -24.5 -36t-76.5 -52.5t-110 -26.5q-68 0 -105.5 51.5t-37.5 123.5zM206 253h21q15 0 27 0.5t38.5 3t46.5 9.5t41.5 18t33 30.5t11.5 44.5q0 26 -17 43.5t-46 17.5q-7 0 -16 -1.5t-30.5 -10.5t-39.5 -25t-38 -50t-32 -80zM259 665q-5 7 3.5 14.5t14.5 1.5l99 -99 l147 99q9 6 14 -1.5t-3 -14.5l-166 -144q-9 -7 -15 0z" />
<glyph unicode="&#x11c;" horiz-adv-x="774" d="M150 245q0 114 62 222t160 173t199 65q98 0 151 -85l63 74q4 5 8 7.5t6 2.5l2 1q4 0 7 -2.5t4 -4.5v-3q0 -6 -2 -14l-61 -243q-3 -12 -6 -15t-12 -3q-15 0 -15 10q0 1 1 11t2.5 24.5t1.5 25.5q0 75 -34.5 129t-107.5 54q-60 0 -124 -35.5t-113 -102.5 q-54 -74 -79.5 -170.5t-25.5 -157.5q0 -95 50.5 -147t126.5 -52q80 0 136 51q22 20 29.5 38.5t24.5 89.5q8 28 8 34q0 7 -3.5 10.5t-8 4.5t-17.5 3q-26 2 -43 2h-8q-26 0 -26 11q0 20 21 20t65 -1.5t66 -1.5q16 0 49 1.5t48 1.5q13 0 13 -13q0 -12 -6 -15t-18 -3 q-21 0 -32 -4t-13.5 -9.5t-6.5 -19.5l-48 -191q-5 -17 -12 -17q-8 0 -21.5 20t-20.5 40q-25 -32 -78 -57.5t-116 -25.5q-108 0 -177 73.5t-69 193.5zM438 755l155 98q7 3 12 0l106 -98q6 -5 -1 -13.5t-14 -4.5l-112 55l-140 -55q-6 -2 -10 1t-3 8.5t7 8.5z" />
<glyph unicode="&#x11d;" horiz-adv-x="460" d="M53 -147q0 26 16 39.5t33 13.5q18 0 26.5 -10t8.5 -22q0 -13 -9 -26.5t-23 -19.5q27 -11 71 -11q55 0 95 47q20 24 28 44t18 61l21 84q-53 -53 -106 -53q-55 0 -88.5 44t-33.5 109q0 106 71.5 197.5t155.5 91.5q56 0 84 -57q3 19 15 28t24 9q27 0 27 -26q0 -6 -4 -21 l-109 -438q-15 -60 -69.5 -101t-130.5 -41q-121 0 -121 58zM178 109q0 -9 1.5 -19t6 -27.5t17 -29t31.5 -11.5q37 0 77 40.5t47 69.5l45 182l3 14q0 6 -2.5 18.5t-9 30t-21.5 30.5t-36 13q-28 0 -58.5 -28.5t-49.5 -70.5q-16 -37 -33.5 -107t-17.5 -105zM240 536l166 144 q9 8 15 0l94 -144q5 -7 -3.5 -14.5t-14.5 -1.5l-98 99l-148 -99q-9 -6 -14 1.5t3 14.5z" />
<glyph unicode="&#x11e;" horiz-adv-x="774" d="M150 245q0 114 62 222t160 173t199 65q98 0 151 -85l63 74q4 5 8 7.5t6 2.5l2 1q4 0 7 -2.5t4 -4.5v-3q0 -6 -2 -14l-61 -243q-3 -12 -6 -15t-12 -3q-15 0 -15 10q0 1 1 11t2.5 24.5t1.5 25.5q0 75 -34.5 129t-107.5 54q-60 0 -124 -35.5t-113 -102.5 q-54 -74 -79.5 -170.5t-25.5 -157.5q0 -95 50.5 -147t126.5 -52q80 0 136 51q22 20 29.5 38.5t24.5 89.5q8 28 8 34q0 7 -3.5 10.5t-8 4.5t-17.5 3q-26 2 -43 2h-8q-26 0 -26 11q0 20 21 20t65 -1.5t66 -1.5q16 0 49 1.5t48 1.5q13 0 13 -13q0 -12 -6 -15t-18 -3 q-21 0 -32 -4t-13.5 -9.5t-6.5 -19.5l-48 -191q-5 -17 -12 -17q-8 0 -21.5 20t-20.5 40q-25 -32 -78 -57.5t-116 -25.5q-108 0 -177 73.5t-69 193.5zM468 864q0 52 17 52q11 0 11 -11q-5 -23 -5 -33q0 -38 23 -64t65 -26q41 0 85 31t63 89q5 14 13 14q11 0 11 -10 q0 -18 -19.5 -54t-62.5 -71t-94 -35t-79 34.5t-28 83.5z" />
<glyph unicode="&#x11f;" horiz-adv-x="460" d="M53 -147q0 26 16 39.5t33 13.5q18 0 26.5 -10t8.5 -22q0 -13 -9 -26.5t-23 -19.5q27 -11 71 -11q55 0 95 47q20 24 28 44t18 61l21 84q-53 -53 -106 -53q-55 0 -88.5 44t-33.5 109q0 106 71.5 197.5t155.5 91.5q56 0 84 -57q3 19 15 28t24 9q27 0 27 -26q0 -6 -4 -21 l-109 -438q-15 -60 -69.5 -101t-130.5 -41q-121 0 -121 58zM178 109q0 -9 1.5 -19t6 -27.5t17 -29t31.5 -11.5q37 0 77 40.5t47 69.5l45 182l3 14q0 6 -2.5 18.5t-9 30t-21.5 30.5t-36 13q-28 0 -58.5 -28.5t-49.5 -70.5q-16 -37 -33.5 -107t-17.5 -105zM268 634q0 52 17 52 q11 0 11 -11q-5 -23 -5 -33q0 -38 23 -64t65 -26q41 0 85 31t63 89q5 14 13 14q11 0 11 -10q0 -18 -19.5 -54t-62.5 -71t-94 -35t-79 34.5t-28 83.5z" />
<glyph unicode="&#x120;" horiz-adv-x="774" d="M150 245q0 114 62 222t160 173t199 65q98 0 151 -85l63 74q4 5 8 7.5t6 2.5l2 1q4 0 7 -2.5t4 -4.5v-3q0 -6 -2 -14l-61 -243q-3 -12 -6 -15t-12 -3q-15 0 -15 10q0 1 1 11t2.5 24.5t1.5 25.5q0 75 -34.5 129t-107.5 54q-60 0 -124 -35.5t-113 -102.5 q-54 -74 -79.5 -170.5t-25.5 -157.5q0 -95 50.5 -147t126.5 -52q80 0 136 51q22 20 29.5 38.5t24.5 89.5q8 28 8 34q0 7 -3.5 10.5t-8 4.5t-17.5 3q-26 2 -43 2h-8q-26 0 -26 11q0 20 21 20t65 -1.5t66 -1.5q16 0 49 1.5t48 1.5q13 0 13 -13q0 -12 -6 -15t-18 -3 q-21 0 -32 -4t-13.5 -9.5t-6.5 -19.5l-48 -191q-5 -17 -12 -17q-8 0 -21.5 20t-20.5 40q-25 -32 -78 -57.5t-116 -25.5q-108 0 -177 73.5t-69 193.5zM535 801q0 24 20 43.5t44 19.5q21 0 33 -13t12 -30q0 -24 -20 -43.5t-44 -19.5q-21 0 -33 12.5t-12 30.5z" />
<glyph unicode="&#x121;" horiz-adv-x="460" d="M53 -147q0 26 16 39.5t33 13.5q18 0 26.5 -10t8.5 -22q0 -13 -9 -26.5t-23 -19.5q27 -11 71 -11q55 0 95 47q20 24 28 44t18 61l21 84q-53 -53 -106 -53q-55 0 -88.5 44t-33.5 109q0 106 71.5 197.5t155.5 91.5q56 0 84 -57q3 19 15 28t24 9q27 0 27 -26q0 -6 -4 -21 l-109 -438q-15 -60 -69.5 -101t-130.5 -41q-121 0 -121 58zM178 109q0 -9 1.5 -19t6 -27.5t17 -29t31.5 -11.5q37 0 77 40.5t47 69.5l45 182l3 14q0 6 -2.5 18.5t-9 30t-21.5 30.5t-36 13q-28 0 -58.5 -28.5t-49.5 -70.5q-16 -37 -33.5 -107t-17.5 -105zM340 591 q0 24 20 43.5t44 19.5q21 0 33 -13t12 -30q0 -24 -20 -43.5t-44 -19.5q-21 0 -33 12.5t-12 30.5z" />
<glyph unicode="&#x122;" horiz-adv-x="774" d="M150 245q0 114 62 222t160 173t199 65q98 0 151 -85l63 74q4 5 8 7.5t6 2.5l2 1q4 0 7 -2.5t4 -4.5v-3q0 -6 -2 -14l-61 -243q-3 -12 -6 -15t-12 -3q-15 0 -15 10q0 1 1 11t2.5 24.5t1.5 25.5q0 75 -34.5 129t-107.5 54q-60 0 -124 -35.5t-113 -102.5 q-54 -74 -79.5 -170.5t-25.5 -157.5q0 -95 50.5 -147t126.5 -52q80 0 136 51q22 20 29.5 38.5t24.5 89.5q8 28 8 34q0 7 -3.5 10.5t-8 4.5t-17.5 3q-26 2 -43 2h-8q-26 0 -26 11q0 20 21 20t65 -1.5t66 -1.5q16 0 49 1.5t48 1.5q13 0 13 -13q0 -12 -6 -15t-18 -3 q-21 0 -32 -4t-13.5 -9.5t-6.5 -19.5l-48 -191q-5 -17 -12 -17q-8 0 -21.5 20t-20.5 40q-25 -32 -78 -57.5t-116 -25.5q-108 0 -177 73.5t-69 193.5zM285 -283q0 3 10 13q70 60 84 136q-15 -11 -31 -11q-33 0 -33 31q0 18 14 33t35 15q35 0 35 -44q0 -40 -24 -84.5t-49 -70 t-33 -25.5t-8 7z" />
<glyph unicode="&#x123;" horiz-adv-x="460" d="M53 -147q0 26 16 39.5t33 13.5q18 0 26.5 -10t8.5 -22q0 -13 -9 -26.5t-23 -19.5q27 -11 71 -11q55 0 95 47q20 24 28 44t18 61l21 84q-53 -53 -106 -53q-55 0 -88.5 44t-33.5 109q0 106 71.5 197.5t155.5 91.5q56 0 84 -57q3 19 15 28t24 9q27 0 27 -26q0 -6 -4 -21 l-109 -438q-15 -60 -69.5 -101t-130.5 -41q-121 0 -121 58zM178 109q0 -9 1.5 -19t6 -27.5t17 -29t31.5 -11.5q37 0 77 40.5t47 69.5l45 182l3 14q0 6 -2.5 18.5t-9 30t-21.5 30.5t-36 13q-28 0 -58.5 -28.5t-49.5 -70.5q-16 -37 -33.5 -107t-17.5 -105zM343 555 q0 40 24 84.5t49 70t33 25.5t8 -7q0 -3 -10 -13q-70 -60 -84 -136q15 11 31 11q33 0 33 -31q0 -18 -14 -33t-35 -15q-35 0 -35 44z" />
<glyph unicode="&#x124;" horiz-adv-x="743" d="M62 12q0 13 6 16t21 3q49 0 62.5 7.5t19.5 34.5l135 543q4 14 4 19q0 11 -14 14t-44 3q-11 0 -15.5 0.5t-8 3t-3.5 8.5q0 19 19 19t59.5 -1.5t60.5 -1.5t59.5 1.5t58.5 1.5q14 0 14 -13q0 -12 -6 -15t-24 -3q-46 0 -59.5 -7.5t-19.5 -32.5l-60 -241h274l61 245q4 14 4 19 q0 11 -14 14t-44 3q-11 0 -15.5 0.5t-8 3t-3.5 8.5q0 19 19 19t59.5 -1.5t60.5 -1.5t59.5 1.5t58.5 1.5q14 0 14 -13q0 -12 -6 -15t-24 -3q-46 0 -59.5 -7.5t-19.5 -32.5l-135 -541l-4 -23q0 -6 2 -9t15.5 -5.5t40.5 -2.5q12 0 16.5 -0.5t7.5 -3.5t3 -9q0 -18 -19 -18 t-59.5 1.5t-60.5 1.5t-59.5 -1.5t-58.5 -1.5q-14 0 -14 12q0 13 6 16t21 3q49 0 62.5 7.5t19.5 34.5l66 267h-274l-67 -272q-4 -14 -4 -20t2 -9t15.5 -5.5t40.5 -2.5q12 0 16.5 -0.5t7.5 -3.5t3 -9q0 -18 -19 -18t-59.5 1.5t-60.5 1.5t-59.5 -1.5t-58.5 -1.5q-14 0 -14 12z M423 755l155 98q7 3 12 0l106 -98q6 -5 -1 -13.5t-14 -4.5l-112 55l-140 -55q-6 -2 -10 1t-3 8.5t7 8.5z" />
<glyph unicode="&#x125;" d="M75 15q1 11 2 13l148 590q3 14 3 17q0 6 -2 9t-13.5 5.5t-34.5 2.5q-24 0 -24 11q0 9 3.5 13.5t7.5 5.5t12 2l99 8q6 2 16 2q14 0 14 -12q-2 -10 -3 -13l-73 -292q22 21 34.5 31.5t40 22t58.5 11.5q44 0 74 -24t30 -80q0 -61 -61 -223q-18 -54 -18 -75q0 -29 22 -29 q56 0 93 125q3 12 5.5 14.5t11.5 2.5q15 0 15 -10q0 -3 -4 -18t-14 -38.5t-24 -45t-36.5 -37t-48.5 -15.5q-35 0 -55.5 23t-20.5 57q0 22 16 64q58 166 58 221q0 66 -46 66q-74 0 -133 -95q-19 -34 -28 -70q-3 -11 -8 -32.5t-8 -32.5l-43 -173q-3 -10 -13 -19t-24 -9 q-13 0 -20.5 8t-7.5 18zM310 766l155 98q7 3 12 0l106 -98q6 -5 -1 -13.5t-14 -4.5l-112 55l-140 -55q-6 -2 -10 1t-3 8.5t7 8.5z" />
<glyph unicode="&#x126;" horiz-adv-x="743" d="M62 12q0 13 6 16t21 3q49 0 62.5 7.5t19.5 34.5l106 425h-79q-15 0 -12 15q4 15 19 15h79l22 88q4 14 4 19q0 11 -14 14t-44 3q-11 0 -15.5 0.5t-8 3t-3.5 8.5q0 19 19 19t59.5 -1.5t60.5 -1.5t59.5 1.5t58.5 1.5q14 0 14 -13q0 -12 -6 -15t-24 -3q-46 0 -59.5 -7.5 t-19.5 -32.5l-21 -84h274l22 88q4 14 4 19q0 11 -14 14t-44 3q-11 0 -15.5 0.5t-8 3t-3.5 8.5q0 19 19 19t59.5 -1.5t60.5 -1.5t59.5 1.5t58.5 1.5q14 0 14 -13q0 -12 -6 -15t-24 -3q-46 0 -59.5 -7.5t-19.5 -32.5l-21 -84h81q6 0 9.5 -4.5t1.5 -10.5q-3 -15 -18 -15h-81 l-107 -427l-4 -23q0 -6 2 -9t15.5 -5.5t40.5 -2.5q12 0 16.5 -0.5t7.5 -3.5t3 -9q0 -18 -19 -18t-59.5 1.5t-60.5 1.5t-59.5 -1.5t-58.5 -1.5q-14 0 -14 12q0 13 6 16t21 3q49 0 62.5 7.5t19.5 34.5l66 267h-274l-67 -272q-4 -14 -4 -20t2 -9t15.5 -5.5t40.5 -2.5 q12 0 16.5 -0.5t7.5 -3.5t3 -9q0 -18 -19 -18t-59.5 1.5t-60.5 1.5t-59.5 -1.5t-58.5 -1.5q-14 0 -14 12zM327 371h274l32 127h-274z" />
<glyph unicode="&#x127;" d="M75 15q1 11 2 13l127 505h-52q-14 0 -11 15q4 15 19 15h51l14 55q3 14 3 17q0 6 -2 9t-13.5 5.5t-34.5 2.5q-24 0 -24 11q0 9 3.5 13.5t7.5 5.5t12 2l99 8q6 2 16 2q14 0 14 -12q-2 -10 -3 -13l-26 -106h120q6 0 9.5 -4.5t1.5 -10.5q-3 -15 -19 -15h-120l-39 -156 q22 21 34.5 31.5t40 22t58.5 11.5q44 0 74 -24t30 -80q0 -61 -61 -223q-18 -54 -18 -75q0 -29 22 -29q56 0 93 125q3 12 5.5 14.5t11.5 2.5q15 0 15 -10q0 -3 -4 -18t-14 -38.5t-24 -45t-36.5 -37t-48.5 -15.5q-35 0 -55.5 23t-20.5 57q0 22 16 64q58 166 58 221 q0 66 -46 66q-74 0 -133 -95q-19 -34 -28 -70q-3 -11 -8 -32.5t-8 -32.5l-43 -173q-3 -10 -13 -19t-24 -9q-13 0 -20.5 8t-7.5 18z" />
<glyph unicode="&#x128;" horiz-adv-x="386" d="M57 13q0 12 6 15t24 3q49 0 63.5 7.5t20.5 33.5l136 544q3 9 3 19q0 11 -15 14t-48 3q-12 0 -16.5 0.5t-7.5 3.5t-3 9q0 18 19 18q21 0 63 -1.5t62 -1.5q21 0 62 1.5t61 1.5q14 0 14 -12q0 -13 -6.5 -16t-24.5 -3q-49 0 -63 -7.5t-20 -33.5l-135 -540l-4 -22q0 -7 2 -10 t16.5 -5.5t43.5 -2.5q12 0 16.5 -0.5t8 -3t3.5 -8.5q0 -19 -20 -19t-61.5 1.5t-62.5 1.5t-62 -1.5t-61 -1.5q-14 0 -14 13zM227 747q0 5 13 18.5t26 24.5l14 11q47 36 74 36q18 0 29 -10t25 -33t29 -23q19 0 51 24.5t39 33.5q7 7 13 7q11 0 11 -10t-49 -50t-79 -40 q-27 0 -51 39q-16 27 -32 27q-13 0 -35.5 -14.5t-38.5 -29.5l-15 -14q-9 -7 -13 -7q-11 0 -11 10z" />
<glyph unicode="&#x129;" horiz-adv-x="307" d="M83 288q0 2 3 13t9 29t17 37t24 36t33 28t42 11q19 0 35.5 -8t28 -27t11.5 -45q0 -21 -12 -56l-64 -171q-26 -74 -26 -96q0 -28 22 -28q59 0 93 125q3 12 5.5 14.5t11.5 2.5q15 0 15 -10q0 -3 -4 -17.5t-14 -38t-23.5 -45.5t-36.5 -37.5t-49 -15.5q-37 0 -56.5 24 t-19.5 56q0 20 18 69q41 108 67 182q18 49 18 72q0 28 -22 28q-59 0 -93 -126q-3 -11 -6 -13.5t-12 -2.5q-15 0 -15 10zM142 561q0 5 13.5 18.5t26.5 24.5l13 11q47 36 74 36q18 0 29 -10t25 -33t29 -23q19 0 51 24.5t39 33.5q7 7 13 7q11 0 11 -10q0 -5 -22 -26.5 t-53.5 -42.5t-52.5 -21q-13 0 -23.5 7t-15.5 13.5t-12 18.5q-8 14 -15 20.5t-17 6.5q-13 0 -35.5 -14.5t-37.5 -29.5l-16 -14q-9 -7 -13 -7q-11 0 -11 10z" />
<glyph unicode="&#x12a;" horiz-adv-x="386" d="M57 13q0 12 6 15t24 3q49 0 63.5 7.5t20.5 33.5l136 544q3 9 3 19q0 11 -15 14t-48 3q-12 0 -16.5 0.5t-7.5 3.5t-3 9q0 18 19 18q21 0 63 -1.5t62 -1.5q21 0 62 1.5t61 1.5q14 0 14 -12q0 -13 -6.5 -16t-24.5 -3q-49 0 -63 -7.5t-20 -33.5l-135 -540l-4 -22q0 -7 2 -10 t16.5 -5.5t43.5 -2.5q12 0 16.5 -0.5t8 -3t3.5 -8.5q0 -19 -20 -19t-61.5 1.5t-62.5 1.5t-62 -1.5t-61 -1.5q-14 0 -14 13zM219 769q0 12 6 14.5t21 2.5h280q25 0 25 -11q0 -13 -6 -16t-21 -3h-280q-10 0 -14.5 0.5t-7.5 3.5t-3 9z" />
<glyph unicode="&#x12b;" horiz-adv-x="307" d="M83 288q0 2 3 13t9 29t17 37t24 36t33 28t42 11q19 0 35.5 -8t28 -27t11.5 -45q0 -21 -12 -56l-64 -171q-26 -74 -26 -96q0 -28 22 -28q59 0 93 125q3 12 5.5 14.5t11.5 2.5q15 0 15 -10q0 -3 -4 -17.5t-14 -38t-23.5 -45.5t-36.5 -37.5t-49 -15.5q-37 0 -56.5 24 t-19.5 56q0 20 18 69q41 108 67 182q18 49 18 72q0 28 -22 28q-59 0 -93 -126q-3 -11 -6 -13.5t-12 -2.5q-15 0 -15 10zM138 599q0 12 6 14.5t21 2.5h280h8.5t6.5 -0.5t5.5 -1.5t3 -3.5t1.5 -5.5q0 -13 -6 -16t-21 -3h-280h-11.5t-7 1.5t-5 4t-1.5 7.5z" />
<glyph unicode="&#x12c;" horiz-adv-x="386" d="M57 13q0 12 6 15t24 3q49 0 63.5 7.5t20.5 33.5l136 544q3 9 3 19q0 11 -15 14t-48 3q-12 0 -16.5 0.5t-7.5 3.5t-3 9q0 18 19 18q21 0 63 -1.5t62 -1.5q21 0 62 1.5t61 1.5q14 0 14 -12q0 -13 -6.5 -16t-24.5 -3q-49 0 -63 -7.5t-20 -33.5l-135 -540l-4 -22q0 -7 2 -10 t16.5 -5.5t43.5 -2.5q12 0 16.5 -0.5t8 -3t3.5 -8.5q0 -19 -20 -19t-61.5 1.5t-62.5 1.5t-62 -1.5t-61 -1.5q-14 0 -14 13zM274 864q0 52 17 52q11 0 11 -11q-5 -23 -5 -33q0 -38 23 -64t65 -26q41 0 85 31t63 89q5 14 13 14q11 0 11 -10q0 -18 -19.5 -54t-62.5 -71t-94 -35 t-79 34.5t-28 83.5z" />
<glyph unicode="&#x12d;" horiz-adv-x="307" d="M83 288q0 2 3 13t9 29t17 37t24 36t33 28t42 11q19 0 35.5 -8t28 -27t11.5 -45q0 -21 -12 -56l-64 -171q-26 -74 -26 -96q0 -28 22 -28q59 0 93 125q3 12 5.5 14.5t11.5 2.5q15 0 15 -10q0 -3 -4 -17.5t-14 -38t-23.5 -45.5t-36.5 -37.5t-49 -15.5q-37 0 -56.5 24 t-19.5 56q0 20 18 69q41 108 67 182q18 49 18 72q0 28 -22 28q-59 0 -93 -126q-3 -11 -6 -13.5t-12 -2.5q-15 0 -15 10zM178 634q0 52 17 52q11 0 11 -11q-5 -23 -5 -33q0 -38 23 -64t65 -26q41 0 85 31t63 89q5 14 13 14q11 0 11 -10q0 -12 -12 -37.5t-33.5 -53.5 t-56.5 -48.5t-74 -20.5q-51 0 -79 34.5t-28 83.5z" />
<glyph unicode="&#x12e;" horiz-adv-x="386" d="M57 13q0 12 6 15t24 3q49 0 63.5 7.5t20.5 33.5l136 544q3 9 3 19q0 11 -15 14t-48 3q-12 0 -16.5 0.5t-7.5 3.5t-3 9q0 18 19 18q21 0 63 -1.5t62 -1.5q21 0 62 1.5t61 1.5q14 0 14 -12q0 -13 -6.5 -16t-24.5 -3q-49 0 -63 -7.5t-20 -33.5l-135 -540l-4 -22q0 -7 2 -10 t16.5 -5.5t43.5 -2.5q12 0 16.5 -0.5t8 -3t3.5 -8.5q0 -19 -20 -19l-92 3q-25 -15 -44 -30q-45 -31 -54 -68q-7 -32 17 -50.5t55 -18.5q52 0 89 56q5 8 12.5 5t3.5 -12q-21 -42 -61 -69t-78 -27q-47 0 -73 27t-18 63q15 65 107 124l-111 -3q-14 0 -14 13z" />
<glyph unicode="&#x12f;" horiz-adv-x="307" d="M55 -121q13 63 105 123q-32 22 -32 67q0 20 18 69q41 108 67 182q18 49 18 72q0 28 -22 28q-59 0 -93 -126q-3 -11 -6 -13.5t-12 -2.5q-15 0 -15 10q0 3 4 18t14 38.5t24 45t37 37t49 15.5q31 0 53 -20.5t22 -59.5q0 -21 -12 -56l-64 -171q-26 -74 -26 -96q0 -28 22 -28 q59 0 93 125q3 12 5.5 14.5t11.5 2.5q15 0 15 -10q0 -3 -4 -17.5t-14 -38t-23.5 -45.5t-36.5 -37.5t-49 -15.5q-6 0 -18 2q-3 -2 -16 -11.5t-17 -13t-14 -12.5t-14.5 -15t-9.5 -15.5t-7 -18.5q-7 -32 17 -50.5t55 -18.5q52 0 89 56q5 8 12.5 5t3.5 -12q-21 -42 -61 -69 t-78 -27q-47 0 -73 27t-18 63zM244 608q0 20 15.5 34t32.5 14q8 0 15 -3t13 -10.5t6 -19.5q0 -14 -8 -25t-19 -17t-21 -6q-8 0 -15 3t-13 10.5t-6 19.5z" />
<glyph unicode="&#x130;" horiz-adv-x="386" d="M57 13q0 12 6 15t24 3q49 0 63.5 7.5t20.5 33.5l136 544q3 9 3 19q0 11 -15 14t-48 3q-12 0 -16.5 0.5t-7.5 3.5t-3 9q0 18 19 18q21 0 63 -1.5t62 -1.5q21 0 62 1.5t61 1.5q14 0 14 -12q0 -13 -6.5 -16t-24.5 -3q-49 0 -63 -7.5t-20 -33.5l-135 -540l-4 -22q0 -7 2 -10 t16.5 -5.5t43.5 -2.5q12 0 16.5 -0.5t8 -3t3.5 -8.5q0 -19 -20 -19t-61.5 1.5t-62.5 1.5t-62 -1.5t-61 -1.5q-14 0 -14 13zM341 801q0 24 20 43.5t44 19.5q21 0 33 -13t12 -30q0 -24 -20 -43.5t-44 -19.5q-21 0 -33 12.5t-12 30.5z" />
<glyph unicode="&#x131;" horiz-adv-x="307" d="M83 288q0 2 3 13t9 29t17 37t24 36t33 28t42 11q19 0 35.5 -8t28 -27t11.5 -45q0 -21 -12 -56l-64 -171q-26 -74 -26 -96q0 -28 22 -28q59 0 93 125q3 12 5.5 14.5t11.5 2.5q15 0 15 -10q0 -3 -4 -17.5t-14 -38t-23.5 -45.5t-36.5 -37.5t-49 -15.5q-37 0 -56.5 24 t-19.5 56q0 20 18 69q41 108 67 182q18 49 18 72q0 28 -22 28q-59 0 -93 -126q-3 -11 -6 -13.5t-12 -2.5q-15 0 -15 10z" />
<glyph unicode="&#x134;" horiz-adv-x="525" d="M94 86q0 22 6.5 37.5t14.5 23t18.5 11.5t15 4.5t7.5 0.5q17 0 29 -10.5t12 -28.5q0 -21 -16.5 -40t-43.5 -19q-9 0 -11 1q6 -30 29.5 -48t54.5 -18q40 0 78 43.5t53 101.5l116 466q4 14 4 20q0 7 -3.5 11t-8.5 5t-18 3q-18 2 -46 2h-12q-10 0 -14 0.5t-7.5 3t-3.5 8.5 q0 19 21 19q22 0 67.5 -1.5t68.5 -1.5q17 0 52 1.5t51 1.5q14 0 14 -12q0 -13 -6 -16t-20 -3q-32 0 -43 -7t-16 -29l-117 -472q-17 -69 -77.5 -117.5t-130.5 -48.5q-50 0 -84 29.5t-34 78.5zM370 755l155 98q7 3 12 0l106 -98q6 -5 -1 -13.5t-14 -4.5l-112 55l-140 -55 q-6 -2 -10 1t-3 8.5t7 8.5z" />
<glyph unicode="&#x135;" horiz-adv-x="307" d="M-35 -146q0 24 16 38t33 14q18 0 26.5 -10t8.5 -22q-1 -36 -36 -47q18 -10 40 -10q33 0 59 32.5t35 57.5t11 37l96 385q7 28 7 51q0 40 -27 40q-67 0 -117 -125q-3 -9 -5 -12t-4.5 -4t-9.5 -1q-15 0 -15 10q0 3 6 18.5t19 38.5t30.5 44.5t43 37t53.5 15.5q40 0 63 -26.5 t23 -63.5q0 -18 -5 -33l-93 -374q-15 -60 -63 -105t-108 -45q-33 0 -60 14t-27 45zM150 536l166 144q9 8 15 0l94 -144q5 -7 -3.5 -14.5t-14.5 -1.5l-98 99l-148 -99q-9 -6 -14 1.5t3 14.5z" />
<glyph unicode="&#x136;" horiz-adv-x="769" d="M62 12q0 13 6 16t21 3q49 0 62.5 7.5t19.5 34.5l135 543q4 14 4 19q0 11 -14 14t-44 3q-11 0 -15.5 0.5t-8 3t-3.5 8.5q0 19 19 19t59.5 -1.5t60.5 -1.5t59.5 1.5t58.5 1.5q14 0 14 -13q0 -12 -6 -15t-24 -3q-46 0 -59.5 -7.5t-19.5 -32.5l-79 -319l352 293q33 27 33 46 q0 18 -26 20q-14 0 -14 12q0 19 19 19q17 0 53 -1.5t54 -1.5q12 0 35.5 1.5t33.5 1.5q11 0 11 -12q0 -17 -18 -19q-65 -6 -157 -82l-184 -153l131 -347q9 -23 21 -30.5t39 -8.5q18 0 18 -12q0 -19 -17 -19q-14 0 -45 1.5t-46 1.5q-19 0 -56.5 -1.5t-55.5 -1.5q-14 0 -14 13 q0 18 19 18q51 0 51 33q0 5 -6 20l-104 279l-139 -115l-35 -144q-13 -47 -13 -56q0 -6 2 -9t15.5 -5.5t40.5 -2.5q12 0 16.5 -0.5t7.5 -3.5t3 -9q0 -18 -19 -18t-59.5 1.5t-60.5 1.5t-59.5 -1.5t-58.5 -1.5q-14 0 -14 12zM283 -283q0 3 10 13q70 60 84 136q-15 -11 -31 -11 q-33 0 -33 31q0 18 14 33t35 15q35 0 35 -44q0 -40 -24 -84.5t-49 -70t-33 -25.5t-8 7z" />
<glyph unicode="&#x137;" horiz-adv-x="460" d="M75 15q1 11 2 13l148 590q3 14 3 17q0 6 -2 9t-13.5 5.5t-34.5 2.5q-24 0 -24 11q0 9 3.5 13.5t7.5 5.5t12 2l99 8q6 2 16 2q14 0 14 -12q-2 -10 -3 -13l-102 -408q26 12 45 30t63 69q70 82 130 82q31 0 47 -18.5t16 -41.5q0 -26 -15.5 -41t-34.5 -15q-18 0 -26.5 10 t-8.5 22q0 7 2.5 15.5t14 20t30.5 14.5q-8 12 -27 12q-24 0 -49.5 -16.5t-41 -32.5t-50.5 -56q-42 -48 -71 -66q133 -19 133 -104q0 -13 -6.5 -40.5t-6.5 -50.5q0 -43 29 -43q16 0 28.5 10.5t21.5 31t14.5 36.5t11.5 41q4 16 7 19.5t12 3.5q15 0 15 -10q0 -3 -4 -19t-13 -41 t-19 -42q-30 -52 -77 -52q-33 0 -58.5 24t-25.5 73q0 5 3.5 29t3.5 30q0 27 -18.5 46t-39 27t-43.5 11l-51 -203q-8 -37 -39 -37q-13 0 -20.5 8t-7.5 18zM128 -283q0 3 10 13q70 60 84 136q-15 -11 -31 -11q-33 0 -33 31q0 18 14 33t35 15q35 0 35 -44q0 -40 -24 -84.5 t-49 -70t-33 -25.5t-8 7z" />
<glyph unicode="&#x139;" horiz-adv-x="627" d="M62 12q0 13 6 16t21 3q34 0 50 4t22 11.5t10 26.5l135 543q4 14 4 19q0 11 -14 14t-44 3h-12.5t-7.5 1.5t-5.5 4t-1.5 6.5q0 5 1.5 9t3.5 6t5 3t4.5 1h4.5q20 0 61 -1.5t62 -1.5q23 0 69.5 1.5t68.5 1.5q15 0 15 -12q0 -13 -6.5 -16t-21.5 -3h-10q-31 0 -48 -2t-27 -8 t-13.5 -13t-7.5 -22l-136 -544q0 -2 -1 -6.5t-2 -8.5t-1 -7q0 -4 1 -6t8 -3t22 -1h81q32 0 60 7t48 17.5t38.5 29t29.5 33t22.5 39.5t17.5 39.5t15 39.5q6 15 8.5 18.5t11.5 3.5q15 0 15 -12q-11 -34 -25 -73t-29.5 -83t-25.5 -72q-5 -13 -9 -15.5t-20 -2.5h-428 q-10 0 -14 0.5t-7.5 3t-3.5 8.5zM320 766q2 6 12 13l165 116q16 11 28 11q14 0 22 -9.5t6 -23.5q-3 -17 -25 -28l-180 -93q-11 -6 -15 -5q-5 1 -9.5 7t-3.5 12z" />
<glyph unicode="&#x13a;" horiz-adv-x="256" d="M94 79q0 15 6 39l125 500q3 14 3 17q0 6 -2 9t-13.5 5.5t-34.5 2.5q-24 0 -24 11q0 9 3.5 13.5t7.5 5.5t12 2l99 8q6 2 16 2q14 0 14 -12q-2 -10 -3 -13l-143 -571q-6 -24 -6 -46q0 -41 26 -41q37 0 64 112l7 25q3 5 14 5q15 0 15 -10q0 -2 -4 -19t-11.5 -42t-15.5 -41 q-27 -52 -71 -52q-36 0 -60 25.5t-24 64.5zM253 777q2 6 12 13l165 116q16 11 28 11q14 0 22 -9.5t6 -23.5q-3 -17 -25 -28l-180 -93q-11 -6 -15 -5q-5 1 -9.5 7t-3.5 12z" />
<glyph unicode="&#x13b;" horiz-adv-x="627" d="M62 12q0 13 6 16t21 3q34 0 50 4t22 11.5t10 26.5l135 543q4 14 4 19q0 11 -14 14t-44 3h-12.5t-7.5 1.5t-5.5 4t-1.5 6.5q0 5 1.5 9t3.5 6t5 3t4.5 1h4.5q20 0 61 -1.5t62 -1.5q23 0 69.5 1.5t68.5 1.5q15 0 15 -12q0 -13 -6.5 -16t-21.5 -3h-10q-31 0 -48 -2t-27 -8 t-13.5 -13t-7.5 -22l-136 -544q0 -2 -1 -6.5t-2 -8.5t-1 -7q0 -4 1 -6t8 -3t22 -1h81q32 0 60 7t48 17.5t38.5 29t29.5 33t22.5 39.5t17.5 39.5t15 39.5q6 15 8.5 18.5t11.5 3.5q15 0 15 -12q-11 -34 -25 -73t-29.5 -83t-25.5 -72q-5 -13 -9 -15.5t-20 -2.5h-428 q-10 0 -14 0.5t-7.5 3t-3.5 8.5zM212 -283q0 3 10 13q70 60 84 136q-15 -11 -31 -11q-13 0 -23 7.5t-10 23.5q0 18 14 33t35 15q12 0 20 -6t11.5 -15.5t3.5 -22.5q0 -31 -14.5 -65.5t-33.5 -58.5t-36 -40t-22 -16q-8 0 -8 7z" />
<glyph unicode="&#x13c;" horiz-adv-x="256" d="M26 -283q0 3 10 13q70 60 84 136q-15 -11 -31 -11q-33 0 -33 31q0 18 14 33t35 15q35 0 35 -44q0 -40 -24 -84.5t-49 -70t-33 -25.5t-8 7zM94 79q0 15 6 39l125 500q3 14 3 17q0 6 -2 9t-13.5 5.5t-34.5 2.5q-24 0 -24 11q0 9 3.5 13.5t7.5 5.5t12 2l99 8q6 2 16 2 q14 0 14 -12q-2 -10 -3 -13l-143 -571q-6 -24 -6 -46q0 -41 26 -41q37 0 64 112l7 25q3 5 14 5q15 0 15 -10q0 -2 -4 -19t-11.5 -42t-15.5 -41q-27 -52 -71 -52q-36 0 -60 25.5t-24 64.5z" />
<glyph unicode="&#x13d;" horiz-adv-x="627" d="M62 12q0 13 6 16t21 3q34 0 50 4t22 11.5t10 26.5l135 543q4 14 4 19q0 11 -14 14t-44 3h-12.5t-7.5 1.5t-5.5 4t-1.5 6.5q0 5 1.5 9t3.5 6t5 3t4.5 1h4.5q20 0 61 -1.5t62 -1.5q23 0 69.5 1.5t68.5 1.5q15 0 15 -12q0 -13 -6.5 -16t-21.5 -3h-10q-31 0 -48 -2t-27 -8 t-13.5 -13t-7.5 -22l-136 -544q0 -2 -1 -6.5t-2 -8.5t-1 -7q0 -4 1 -6t8 -3t22 -1h81q32 0 60 7t48 17.5t38.5 29t29.5 33t22.5 39.5t17.5 39.5t15 39.5q6 15 8.5 18.5t11.5 3.5q15 0 15 -12q-11 -34 -25 -73t-29.5 -83t-25.5 -72q-5 -13 -9 -15.5t-20 -2.5h-428 q-10 0 -14 0.5t-7.5 3t-3.5 8.5zM533 466q0 3 10 13q70 60 84 136q-15 -11 -31 -11q-13 0 -23 7.5t-10 23.5q0 18 14 33t35 15q17 0 26 -12t9 -32q0 -31 -14.5 -65.5t-33.5 -58.5t-36 -40t-22 -16q-3 0 -5.5 2.5t-2.5 4.5z" />
<glyph unicode="&#x13e;" horiz-adv-x="256" d="M94 79q0 15 6 39l125 500q3 14 3 17q0 6 -2 9t-13.5 5.5t-34.5 2.5q-24 0 -24 11q0 9 3.5 13.5t7.5 5.5t12 2l99 8q6 2 16 2q14 0 14 -12q-2 -10 -3 -13l-143 -571q-6 -24 -6 -46q0 -41 26 -41q37 0 64 112l7 25q3 5 14 5q15 0 15 -10q0 -2 -4 -19t-11.5 -42t-15.5 -41 q-27 -52 -71 -52q-36 0 -60 25.5t-24 64.5zM303 477q0 3 10 13q70 60 84 136q-15 -11 -31 -11q-33 0 -33 31q0 18 14 33t35 15q35 0 35 -44q0 -40 -24 -84.5t-49 -70t-33 -25.5t-8 7z" />
<glyph unicode="&#x13f;" horiz-adv-x="627" d="M62 12q0 13 6 16t21 3q34 0 50 4t22 11.5t10 26.5l135 543q4 14 4 19q0 11 -14 14t-44 3h-12.5t-7.5 1.5t-5.5 4t-1.5 6.5q0 5 1.5 9t3.5 6t5 3t4.5 1h4.5q20 0 61 -1.5t62 -1.5q23 0 69.5 1.5t68.5 1.5q15 0 15 -12q0 -13 -6.5 -16t-21.5 -3h-10q-31 0 -48 -2t-27 -8 t-13.5 -13t-7.5 -22l-136 -544q0 -2 -1 -6.5t-2 -8.5t-1 -7q0 -4 1 -6t8 -3t22 -1h81q32 0 60 7t48 17.5t38.5 29t29.5 33t22.5 39.5t17.5 39.5t15 39.5q6 15 8.5 18.5t11.5 3.5q15 0 15 -12q-11 -34 -25 -73t-29.5 -83t-25.5 -72q-5 -13 -9 -15.5t-20 -2.5h-428 q-10 0 -14 0.5t-7.5 3t-3.5 8.5zM555 398q0 24 20 43.5t44 19.5q21 0 33 -13t12 -30q0 -24 -20 -43.5t-44 -19.5q-21 0 -33 12.5t-12 30.5z" />
<glyph unicode="&#x140;" horiz-adv-x="256" d="M94 79q0 15 6 39l125 500q3 14 3 17q0 6 -2 9t-13.5 5.5t-34.5 2.5q-24 0 -24 11q0 9 3.5 13.5t7.5 5.5t12 2l99 8q6 2 16 2q14 0 14 -12q-2 -10 -3 -13l-143 -571q-6 -24 -6 -46q0 -41 26 -41q37 0 64 112l7 25q3 5 14 5q15 0 15 -10q0 -2 -4 -19t-11.5 -42t-15.5 -41 q-27 -52 -71 -52q-36 0 -60 25.5t-24 64.5zM269 359q0 24 20 43.5t44 19.5q21 0 33 -13t12 -30q0 -24 -20 -43.5t-44 -19.5q-21 0 -33 12.5t-12 30.5z" />
<glyph unicode="&#x141;" horiz-adv-x="627" d="M62 12q0 13 6 16t21 3q49 0 62 7.5t20 34.5l56 226l-67 -54l-22 25l102 80l66 266l4 19q0 11 -14 14t-44 3h-12.5t-7.5 1.5t-5.5 4t-1.5 6.5q0 5 1.5 9t3.5 6t5 3t4.5 1h4.5q20 0 61 -1.5t62 -1.5q23 0 69.5 1.5t68.5 1.5q15 0 15 -12q0 -13 -6.5 -16t-21.5 -3h-10 q-31 0 -48 -2t-27 -8t-13.5 -13t-7.5 -22l-44 -175l133 105l20 -26l-165 -131l-80 -317q-4 -12 -4 -22q0 -4 1 -6t8 -3t22 -1h81q32 0 60 7t48 17.5t38.5 29t29.5 33t22.5 39.5t17.5 39.5t15 39.5q6 15 8.5 18.5t11.5 3.5q15 0 15 -12q-11 -34 -25 -73t-29.5 -83t-25.5 -72 q-5 -13 -9 -15.5t-20 -2.5h-428q-10 0 -14 0.5t-7.5 3t-3.5 8.5z" />
<glyph unicode="&#x142;" horiz-adv-x="319" d="M111 274l84 64l70 280q3 14 3 17q0 6 -2 9t-13.5 5.5t-34.5 2.5q-24 0 -24 11q0 9 3.5 13.5t7.5 5.5t12 2l99 8q6 2 16 2q14 0 14 -12q-2 -10 -3 -13l-69 -273l59 44l16 -21l-84 -63l-65 -258q-6 -24 -6 -46q0 -41 26 -41q37 0 64 112l7 25q3 5 14 5q15 0 15 -10 q0 -2 -4 -19t-11.5 -42t-15.5 -41q-27 -52 -71 -52q-36 0 -60 25.5t-24 64.5q0 15 6 39l45 179l-58 -43z" />
<glyph unicode="&#x143;" horiz-adv-x="743" d="M62 12q0 19 19 19q80 3 97 70l132 530l3 13q0 8 -61 8q-11 0 -15.5 0.5t-8 3t-3.5 8.5q0 13 6 16t21 3h125q16 0 19.5 -2.5t8.5 -14.5l187 -520l110 439q4 16 4 24q0 41 -60 43q-18 0 -18 12q0 19 18 19q15 0 48 -1.5t49 -1.5t48.5 1.5t47.5 1.5q13 0 13 -13 q0 -18 -15 -18q-85 -3 -101 -68l-140 -564q-2 -9 -5 -13.5t-6 -5.5t-9 -1q-10 0 -13 2.5t-7 14.5l-215 597l-129 -515q-4 -16 -4 -25q0 -8 1.5 -13.5t6.5 -12.5t18 -11.5t33 -5.5q19 0 19 -13q0 -18 -18 -18q-15 0 -48.5 1.5t-49.5 1.5t-48 -1.5t-47 -1.5q-13 0 -13 12z M494 766q2 6 12 13l165 116q17 11 28 11q14 0 22 -9.5t6 -23.5q-3 -17 -25 -28l-180 -93q-11 -6 -15 -5q-5 1 -9.5 7t-3.5 12z" />
<glyph unicode="&#x144;" horiz-adv-x="562" d="M83 288q13 61 32 101q28 53 72 53q33 0 56 -21.5t28 -57.5q10 15 24.5 30t48 32t70.5 17q44 0 74 -24t30 -80q0 -61 -61 -223q-18 -54 -18 -75q0 -29 22 -29q56 0 93 125q3 12 5.5 14.5t11.5 2.5q15 0 15 -10q0 -3 -4 -18t-14 -38.5t-24 -45t-36.5 -37t-48.5 -15.5 q-35 0 -55.5 23t-20.5 57q0 22 16 64q58 166 58 221q0 66 -46 66q-77 0 -135 -99q-17 -28 -30 -81q-2 -11 -8 -32.5t-8 -32.5l-40 -160q-10 -26 -36 -26q-14 0 -21 8t-7 18q0 5 3 14l75 300q7 28 7 51q0 40 -26 40q-22 0 -37.5 -30t-30.5 -89q-4 -16 -6.5 -19.5t-12.5 -3.5 q-15 0 -15 10zM354 522q0 5 10 15l142 142q17 17 31 17q10 0 19 -7.5t9 -20.5q0 -19 -20 -32l-161 -123q-9 -8 -14 -8t-10.5 5.5t-5.5 11.5z" />
<glyph unicode="&#x145;" horiz-adv-x="743" d="M62 12q0 19 19 19q80 3 97 70l132 530l3 13q0 8 -61 8q-11 0 -15.5 0.5t-8 3t-3.5 8.5q0 13 6 16t21 3h125q16 0 19.5 -2.5t8.5 -14.5l187 -520l110 439q4 16 4 24q0 41 -60 43q-18 0 -18 12q0 19 18 19q15 0 48 -1.5t49 -1.5t48.5 1.5t47.5 1.5q13 0 13 -13 q0 -18 -15 -18q-85 -3 -101 -68l-140 -564q-2 -9 -5 -13.5t-6 -5.5t-9 -1q-10 0 -13 2.5t-7 14.5l-215 597l-129 -515q-4 -16 -4 -25q0 -8 1.5 -13.5t6.5 -12.5t18 -11.5t33 -5.5q19 0 19 -13q0 -18 -18 -18q-15 0 -48.5 1.5t-49.5 1.5t-48 -1.5t-47 -1.5q-13 0 -13 12z M270 -283q0 3 10 13q70 60 84 136q-15 -11 -31 -11q-33 0 -33 31q0 18 14 33t35 15q35 0 35 -44q0 -40 -24 -84.5t-49 -70t-33 -25.5t-8 7z" />
<glyph unicode="&#x146;" horiz-adv-x="562" d="M83 288q13 61 32 101q28 53 72 53q33 0 56 -21.5t28 -57.5q10 15 24.5 30t48 32t70.5 17q44 0 74 -24t30 -80q0 -61 -61 -223q-18 -54 -18 -75q0 -29 22 -29q56 0 93 125q3 12 5.5 14.5t11.5 2.5q15 0 15 -10q0 -3 -4 -18t-14 -38.5t-24 -45t-36.5 -37t-48.5 -15.5 q-35 0 -55.5 23t-20.5 57q0 22 16 64q58 166 58 221q0 66 -46 66q-77 0 -135 -99q-17 -28 -30 -81q-2 -11 -8 -32.5t-8 -32.5l-40 -160q-10 -26 -36 -26q-14 0 -21 8t-7 18q0 5 3 14l75 300q7 28 7 51q0 40 -26 40q-22 0 -37.5 -30t-30.5 -89q-4 -16 -6.5 -19.5t-12.5 -3.5 q-15 0 -15 10zM180 -283q0 3 10 13q70 60 84 136q-15 -11 -31 -11q-33 0 -33 31q0 18 14 33t35 15q35 0 35 -44q0 -40 -24 -84.5t-49 -70t-33 -25.5t-8 7z" />
<glyph unicode="&#x147;" horiz-adv-x="743" d="M62 12q0 19 19 19q80 3 97 70l132 530l3 13q0 8 -61 8q-11 0 -15.5 0.5t-8 3t-3.5 8.5q0 13 6 16t21 3h125q16 0 19.5 -2.5t8.5 -14.5l187 -520l110 439q4 16 4 24q0 41 -60 43q-18 0 -18 12q0 19 18 19q15 0 48 -1.5t49 -1.5t48.5 1.5t47.5 1.5q13 0 13 -13 q0 -18 -15 -18q-85 -3 -101 -68l-140 -564q-2 -9 -5 -13.5t-6 -5.5t-9 -1q-10 0 -13 2.5t-7 14.5l-215 597l-129 -515q-4 -16 -4 -25q0 -8 1.5 -13.5t6.5 -12.5t18 -11.5t33 -5.5q19 0 19 -13q0 -18 -18 -18q-15 0 -48.5 1.5t-49.5 1.5t-48 -1.5t-47 -1.5q-13 0 -13 12z M443 836q-6 5 1 13.5t14 4.5l112 -55l140 55q6 2 10 -1t3 -8.5t-7 -8.5l-155 -98q-7 -3 -12 0z" />
<glyph unicode="&#x148;" horiz-adv-x="562" d="M83 288q13 61 32 101q28 53 72 53q33 0 56 -21.5t28 -57.5q10 15 24.5 30t48 32t70.5 17q44 0 74 -24t30 -80q0 -61 -61 -223q-18 -54 -18 -75q0 -29 22 -29q56 0 93 125q3 12 5.5 14.5t11.5 2.5q15 0 15 -10q0 -3 -4 -18t-14 -38.5t-24 -45t-36.5 -37t-48.5 -15.5 q-35 0 -55.5 23t-20.5 57q0 22 16 64q58 166 58 221q0 66 -46 66q-77 0 -135 -99q-17 -28 -30 -81q-2 -11 -8 -32.5t-8 -32.5l-40 -160q-10 -26 -36 -26q-14 0 -21 8t-7 18q0 5 3 14l75 300q7 28 7 51q0 40 -26 40q-22 0 -37.5 -30t-30.5 -89q-4 -16 -6.5 -19.5t-12.5 -3.5 q-15 0 -15 10zM311 665q-5 7 3.5 14.5t14.5 1.5l99 -99l147 99q9 6 14 -1.5t-3 -14.5l-166 -144q-9 -7 -15 0z" />
<glyph unicode="&#x14a;" horiz-adv-x="743" d="M57 13q0 12 6 15t24 3q49 0 63.5 7.5t20.5 33.5l136 544q3 9 3 19q0 11 -15 14t-48 3q-12 0 -16.5 0.5t-7.5 3.5t-3 9q0 18 19 18q21 0 63 -1.5t62 -1.5t41 3l-16 -66q88 88 196 88q65 0 115 -30t75.5 -80.5t32.5 -116t-12 -136.5q-18 -70 -45.5 -133t-65.5 -116 t-88.5 -84t-106.5 -31q-16 0 -25 11.5t-5 28.5q5 17 19.5 28.5t30.5 11.5q17 0 25.5 -12t4.5 -28v-2q26 11 48.5 37t37 53t31 75.5t24 76.5t21.5 84q16 64 18 122t-10.5 106t-46 76.5t-85.5 28.5q-56 0 -110 -30t-93 -81l-123 -493l-4 -22q0 -7 2 -10t16.5 -5.5t43.5 -2.5 q12 0 16.5 -0.5t8 -3t3.5 -8.5q0 -19 -20 -19t-61.5 1.5t-62.5 1.5t-62 -1.5t-61 -1.5q-14 0 -14 13z" />
<glyph unicode="&#x14b;" horiz-adv-x="498" d="M83 288q13 61 32 101q28 53 72 53q33 0 56 -21.5t28 -57.5q10 15 24.5 30t48 32t70.5 17q44 0 74 -24t30 -80q0 -41 -27.5 -120.5t-31.5 -93.5q-11 -45 -17.5 -69t-19 -66t-23 -65.5t-26.5 -54t-32.5 -46.5t-38.5 -27.5t-47 -11.5q-13 0 -20 9t-4 23q4 13 15.5 22.5 t24.5 9.5q17 0 24 -16q41 48 102 292q3 10 31.5 98t28.5 132q0 66 -46 66q-77 0 -135 -99q-17 -28 -30 -81q-2 -11 -8 -32.5t-8 -32.5l-40 -160q-10 -26 -36 -26q-14 0 -21 8t-7 18q0 5 3 14l75 300q7 28 7 51q0 40 -26 40q-22 0 -37.5 -30t-30.5 -89q-4 -16 -6.5 -19.5 t-12.5 -3.5q-15 0 -15 10z" />
<glyph unicode="&#x14c;" horiz-adv-x="767" d="M148 236q0 113 59.5 222.5t156 178t196.5 68.5q98 0 163 -70.5t65 -190.5q0 -117 -60.5 -226t-155.5 -174.5t-194 -65.5q-102 0 -166 72t-64 186zM238 205q0 -90 39.5 -145.5t107.5 -55.5q58 0 120 44.5t109 125.5q39 67 64 156t25 156q0 95 -43.5 144.5t-106.5 49.5 q-64 0 -127 -47t-104 -120q-46 -80 -65 -167.5t-19 -140.5zM410 769q0 12 6 14.5t21 2.5h280q25 0 25 -11q0 -13 -6 -16t-21 -3h-280q-10 0 -14.5 0.5t-7.5 3.5t-3 9z" />
<glyph unicode="&#x14d;" d="M110 154q0 109 79.5 198.5t173.5 89.5q65 0 105.5 -46t40.5 -118q0 -109 -79.5 -199t-173.5 -90q-64 0 -105 44.5t-41 120.5zM180 114q0 -51 22 -77t54 -26q36 0 71 28.5t58 71.5q22 42 38 106t16 100q0 45 -20.5 74t-56.5 29q-31 0 -64 -23.5t-60 -67.5 q-23 -39 -40.5 -107t-17.5 -108zM240 599q0 12 6 14.5t21 2.5h280q25 0 25 -11q0 -13 -6 -16t-21 -3h-280q-10 0 -14.5 0.5t-7.5 3.5t-3 9z" />
<glyph unicode="&#x14e;" horiz-adv-x="767" d="M148 236q0 113 59.5 222.5t156 178t196.5 68.5q98 0 163 -70.5t65 -190.5q0 -117 -60.5 -226t-155.5 -174.5t-194 -65.5q-102 0 -166 72t-64 186zM238 205q0 -90 39.5 -145.5t107.5 -55.5q58 0 120 44.5t109 125.5q39 67 64 156t25 156q0 95 -43.5 144.5t-106.5 49.5 q-64 0 -127 -47t-104 -120q-46 -80 -65 -167.5t-19 -140.5zM465 864q0 52 17 52q11 0 11 -11q-5 -23 -5 -33q0 -38 23 -64t65 -26q41 0 85 31t63 89q5 14 13 14q11 0 11 -10q0 -18 -19.5 -54t-62.5 -71t-94 -35t-79 34.5t-28 83.5z" />
<glyph unicode="&#x14f;" d="M110 154q0 109 79.5 198.5t173.5 89.5q65 0 105.5 -46t40.5 -118q0 -109 -79.5 -199t-173.5 -90q-64 0 -105 44.5t-41 120.5zM180 114q0 -51 22 -77t54 -26q36 0 71 28.5t58 71.5q22 42 38 106t16 100q0 45 -20.5 74t-56.5 29q-31 0 -64 -23.5t-60 -67.5 q-23 -39 -40.5 -107t-17.5 -108zM280 634q0 52 17 52q11 0 11 -11q-5 -23 -5 -33q0 -38 23 -64t65 -26q41 0 85 31t63 89q5 14 13 14q11 0 11 -10q0 -18 -19.5 -54t-62.5 -71t-94 -35t-79 34.5t-28 83.5z" />
<glyph unicode="&#x150;" horiz-adv-x="767" d="M148 236q0 113 59.5 222.5t156 178t196.5 68.5q98 0 163 -70.5t65 -190.5q0 -117 -60.5 -226t-155.5 -174.5t-194 -65.5q-102 0 -166 72t-64 186zM238 205q0 -90 39.5 -145.5t107.5 -55.5q58 0 120 44.5t109 125.5q39 67 64 156t25 156q0 95 -43.5 144.5t-106.5 49.5 q-64 0 -127 -47t-104 -120q-46 -80 -65 -167.5t-19 -140.5zM457 761q0 2 7 14l84 138q14 23 34 23q12 0 20.5 -7.5t8.5 -19.5q0 -11 -16 -30l-107 -124q-8 -9 -13 -9t-11.5 4t-6.5 11zM610 761q0 2 7 14l84 138q14 23 34 23q12 0 20.5 -7.5t8.5 -19.5q0 -11 -16 -30 l-107 -124q-8 -9 -13 -9t-11.5 4t-6.5 11z" />
<glyph unicode="&#x151;" d="M110 154q0 109 79.5 198.5t173.5 89.5q65 0 105.5 -46t40.5 -118q0 -109 -79.5 -199t-173.5 -90q-64 0 -105 44.5t-41 120.5zM180 114q0 -51 22 -77t54 -26q36 0 71 28.5t58 71.5q22 42 38 106t16 100q0 45 -20.5 74t-56.5 29q-31 0 -64 -23.5t-60 -67.5 q-23 -39 -40.5 -107t-17.5 -108zM269 521q0 2 7 14l84 138q14 23 34 23q12 0 20.5 -7.5t8.5 -19.5q0 -11 -16 -30l-107 -124q-8 -9 -13 -9t-11.5 4t-6.5 11zM422 521q0 2 7 14l84 138q14 23 34 23q12 0 20.5 -7.5t8.5 -19.5q0 -11 -16 -30l-107 -124q-8 -9 -13 -9t-11.5 4 t-6.5 11z" />
<glyph unicode="&#x152;" horiz-adv-x="985" d="M162 236q0 114 60 223.5t156 177.5t194 68q27 0 62 -10q48 -12 78 -12h314q12 0 16.5 -1t6.5 -6.5t1 -17.5l-23 -177q-1 -8 -1.5 -11.5t-2.5 -6.5t-5 -4t-8 -1q-16 0 -16 12l2 13l6 65q0 65 -30 85q-27 19 -95 19h-103q-26 0 -34.5 -5t-14.5 -31l-61 -246h97 q64 0 87.5 20.5t38.5 77.5q2 12 5 15.5t12 3.5q16 0 16 -12q0 -4 -3 -13l-55 -221q-3 -12 -6.5 -15.5t-11.5 -3.5q-16 0 -16 12l3 14q8 28 8 46q0 24 -15.5 34.5t-65.5 10.5h-102l-69 -276q0 -1 -2 -9.5t-2 -12.5t1 -6t8 -3t22 -1h103q54 0 90.5 10.5t63 38t43 57t38.5 84.5 q2 4 4.5 11t4 10.5t4 7.5t6 6t8.5 2q15 0 15 -11q-3 -10 -4 -12l-89 -219q-5 -11 -9 -13.5t-19 -2.5h-332q-31 0 -83 -12q-42 -10 -68 -10q-99 0 -163.5 71.5t-64.5 186.5zM253 220q0 -98 39 -159t106 -61q63 0 91.5 39t55.5 146l85 338q13 50 13 95q0 13 -1.5 20.5t-7.5 20 t-23 18.5t-43 6q-72 0 -145.5 -64.5t-121.5 -173t-48 -225.5z" />
<glyph unicode="&#x153;" horiz-adv-x="716" d="M108 143q0 109 72.5 204.5t158.5 95.5q77 0 106 -88q8 10 25 26t61 38.5t88 22.5t72 -24t28 -61q0 -7 -2 -16.5t-8 -26t-22 -32t-39 -25.5q-58 -26 -153 -26h-47q-15 -62 -15 -102q0 -45 19 -81.5t61 -36.5q34 0 76.5 22.5t80.5 76.5q9 10 13 10q6 0 11 -6t5 -10 q0 -6 -14.5 -24t-37.5 -38.5t-60 -36.5t-75 -16q-89 0 -126 99q-36 -51 -78 -75.5t-78 -24.5q-57 0 -89.5 45t-32.5 110zM176 99q0 -12 2 -24t7 -28.5t17 -26.5t29 -10q18 0 37 10.5t33.5 27.5t23.5 30t15 24q22 42 39.5 111.5t17.5 111.5t-14.5 69t-44.5 27 q-33 0 -63.5 -33.5t-49.5 -78.5q-15 -35 -32 -104.5t-17 -105.5zM454 253h27q200 0 200 106q0 26 -16.5 43.5t-46.5 17.5q-13 0 -28 -4t-35 -15t-37.5 -29t-35 -48.5t-28.5 -70.5z" />
<glyph unicode="&#x154;" horiz-adv-x="729" d="M63 12q0 13 6 16t21 3q49 0 62.5 7.5t19.5 34.5l135 543q4 14 4 19q0 11 -14 14t-44 3q-11 0 -15.5 0.5t-8 3t-3.5 8.5q0 13 6 16t21 3h264q91 0 146 -43t55 -105q0 -59 -54.5 -114.5t-155.5 -81.5q39 -14 62.5 -44.5t23.5 -71.5q0 -26 -7 -81.5t-7 -82.5q0 -19 2 -30 t9.5 -20t21.5 -9q24 0 44.5 23.5t33.5 64.5q2 7 3 10t4.5 5t9.5 2q15 0 15 -13q0 -9 -10 -33.5t-38 -52.5t-66 -28q-52 0 -88 27t-36 79q0 16 15 80q17 68 17 79q0 49 -27.5 68.5t-66.5 19.5h-108l-65 -263q-4 -14 -4 -20t2 -9t15.5 -5.5t40.5 -2.5q12 0 16.5 -0.5t7.5 -3.5 t3 -9q0 -18 -19 -18q-20 0 -60 1.5t-59 1.5t-58 -1.5t-58 -1.5q-14 0 -14 12zM321 353h101q94 0 148 52q24 24 38.5 63t17 59t2.5 31q0 27 -11.5 46t-26 28t-40.5 14t-41.5 5.5t-42.5 0.5q-51 0 -58 -2q-15 -4 -22 -34zM487 766q2 6 12 13l165 116q16 11 28 11q14 0 22 -9.5 t6 -23.5q-3 -17 -25 -28l-180 -93q-11 -6 -15 -5q-5 1 -9.5 7t-3.5 12z" />
<glyph unicode="&#x155;" horiz-adv-x="422" d="M83 288q13 61 32 101q28 53 72 53q28 0 51.5 -17.5t31.5 -54.5q52 72 121 72q35 0 66.5 -14.5t31.5 -48.5q0 -26 -16 -39.5t-33 -13.5q-18 0 -26.5 10t-8.5 22q0 5 2 12.5t11 19t25 16.5q-20 14 -53 14q-24 0 -46.5 -14t-37 -31.5t-26.5 -39.5t-16 -32l-6 -15l-65 -262 q-9 -37 -39 -37q-14 0 -21 8t-7 18q0 5 3 14l75 300q7 28 7 51q0 40 -26 40q-22 0 -37.5 -30t-30.5 -89q-4 -16 -6.5 -19.5t-12.5 -3.5q-15 0 -15 10zM283 522q0 5 10 15l142 142q17 17 31 17q10 0 19 -7.5t9 -20.5q0 -19 -20 -32l-161 -123q-9 -8 -14 -8t-10.5 5.5 t-5.5 11.5z" />
<glyph unicode="&#x156;" horiz-adv-x="729" d="M63 12q0 13 6 16t21 3q49 0 62.5 7.5t19.5 34.5l135 543q4 14 4 19q0 11 -14 14t-44 3q-11 0 -15.5 0.5t-8 3t-3.5 8.5q0 13 6 16t21 3h264q91 0 146 -43t55 -105q0 -59 -54.5 -114.5t-155.5 -81.5q39 -14 62.5 -44.5t23.5 -71.5q0 -26 -7 -81.5t-7 -82.5q0 -19 2 -30 t9.5 -20t21.5 -9q24 0 44.5 23.5t33.5 64.5q2 7 3 10t4.5 5t9.5 2q15 0 15 -13q0 -9 -10 -33.5t-38 -52.5t-66 -28q-52 0 -88 27t-36 79q0 16 15 80q17 68 17 79q0 49 -27.5 68.5t-66.5 19.5h-108l-65 -263q-4 -14 -4 -20t2 -9t15.5 -5.5t40.5 -2.5q12 0 16.5 -0.5t7.5 -3.5 t3 -9q0 -18 -19 -18q-20 0 -60 1.5t-59 1.5t-58 -1.5t-58 -1.5q-14 0 -14 12zM263 -283q0 3 10 13q70 60 84 136q-15 -11 -31 -11q-33 0 -33 31q0 18 14 33t35 15q35 0 35 -44q0 -40 -24 -84.5t-49 -70t-33 -25.5t-8 7zM321 353h101q94 0 148 52q24 24 38.5 63t17 59t2.5 31 q0 27 -11.5 46t-26 28t-40.5 14t-41.5 5.5t-42.5 0.5q-51 0 -58 -2q-15 -4 -22 -34z" />
<glyph unicode="&#x157;" horiz-adv-x="422" d="M52 -283q0 3 10 13q70 60 84 136q-15 -11 -31 -11q-33 0 -33 31q0 18 14 33t35 15q35 0 35 -44q0 -40 -24 -84.5t-49 -70t-33 -25.5t-8 7zM83 288q13 61 32 101q28 53 72 53q28 0 51.5 -17.5t31.5 -54.5q52 72 121 72q35 0 66.5 -14.5t31.5 -48.5q0 -26 -16 -39.5 t-33 -13.5q-18 0 -26.5 10t-8.5 22q0 5 2 12.5t11 19t25 16.5q-20 14 -53 14q-24 0 -46.5 -14t-37 -31.5t-26.5 -39.5t-16 -32l-6 -15l-65 -262q-9 -37 -39 -37q-14 0 -21 8t-7 18q0 5 3 14l75 300q7 28 7 51q0 40 -26 40q-22 0 -37.5 -30t-30.5 -89q-4 -16 -6.5 -19.5 t-12.5 -3.5q-15 0 -15 10z" />
<glyph unicode="&#x158;" horiz-adv-x="729" d="M63 12q0 13 6 16t21 3q49 0 62.5 7.5t19.5 34.5l135 543q4 14 4 19q0 11 -14 14t-44 3q-11 0 -15.5 0.5t-8 3t-3.5 8.5q0 13 6 16t21 3h264q91 0 146 -43t55 -105q0 -59 -54.5 -114.5t-155.5 -81.5q39 -14 62.5 -44.5t23.5 -71.5q0 -26 -7 -81.5t-7 -82.5q0 -19 2 -30 t9.5 -20t21.5 -9q24 0 44.5 23.5t33.5 64.5q2 7 3 10t4.5 5t9.5 2q15 0 15 -13q0 -9 -10 -33.5t-38 -52.5t-66 -28q-52 0 -88 27t-36 79q0 16 15 80q17 68 17 79q0 49 -27.5 68.5t-66.5 19.5h-108l-65 -263q-4 -14 -4 -20t2 -9t15.5 -5.5t40.5 -2.5q12 0 16.5 -0.5t7.5 -3.5 t3 -9q0 -18 -19 -18q-20 0 -60 1.5t-59 1.5t-58 -1.5t-58 -1.5q-14 0 -14 12zM321 353h101q94 0 148 52q24 24 38.5 63t17 59t2.5 31q0 27 -11.5 46t-26 28t-40.5 14t-41.5 5.5t-42.5 0.5q-51 0 -58 -2q-15 -4 -22 -34zM436 836q-6 5 1 13.5t14 4.5l112 -55l140 55 q6 2 10 -1t3 -8.5t-7 -8.5l-155 -98q-7 -3 -12 0z" />
<glyph unicode="&#x159;" horiz-adv-x="422" d="M83 288q13 61 32 101q28 53 72 53q28 0 51.5 -17.5t31.5 -54.5q52 72 121 72q35 0 66.5 -14.5t31.5 -48.5q0 -26 -16 -39.5t-33 -13.5q-18 0 -26.5 10t-8.5 22q0 5 2 12.5t11 19t25 16.5q-20 14 -53 14q-24 0 -46.5 -14t-37 -31.5t-26.5 -39.5t-16 -32l-6 -15l-65 -262 q-9 -37 -39 -37q-14 0 -21 8t-7 18q0 5 3 14l75 300q7 28 7 51q0 40 -26 40q-22 0 -37.5 -30t-30.5 -89q-4 -16 -6.5 -19.5t-12.5 -3.5q-15 0 -15 10zM240 665q-5 7 3.5 14.5t14.5 1.5l99 -99l147 99q9 6 14 -1.5t-3 -14.5l-166 -144q-9 -7 -15 0z" />
<glyph unicode="&#x15a;" horiz-adv-x="562" d="M74 -12q0 2 3 13l52 209q3 11 6 14t12 3q15 0 15 -11q-9 -54 -9 -67q0 -72 43.5 -106t106.5 -34q65 0 116 60.5t51 130.5q0 44 -22 72q-12 13 -24.5 18.5t-52.5 17.5l-49 14q-36 10 -43 13q-80 37 -80 132q0 88 71 163t161 75t130 -68l45 56q10 12 15 12q4 0 7 -2.5 t4 -4.5v-3q0 -6 -2 -14l-52 -207q-3 -12 -6 -15t-12 -3q-15 0 -15 10l1 14q5 27 5 55q0 63 -28.5 102.5t-93.5 39.5q-63 0 -112.5 -54t-49.5 -117q0 -66 51 -88q11 -4 55 -16q75 -22 94.5 -31t37.5 -31q33 -41 33 -102q0 -97 -72 -178.5t-165 -81.5q-106 0 -153 69 q-27 -36 -47 -57q-10 -12 -16 -12q-11 0 -11 10zM404 766q2 6 12 13l165 116q17 11 28 11q14 0 22 -9.5t6 -23.5q-3 -17 -25 -28l-180 -93q-11 -6 -15 -5q-5 1 -9.5 7t-3.5 12z" />
<glyph unicode="&#x15b;" horiz-adv-x="409" d="M76 86q0 31 15.5 46.5t35.5 15.5q16 0 25 -9t9 -23q0 -5 -1.5 -12.5t-14 -21t-35.5 -15.5q18 -56 96 -56q29 0 53 8.5t37.5 21.5t23 29t13 29t3.5 24q0 19 -7 32.5t-22 21.5t-26.5 11.5t-33.5 8.5q-13 3 -21 5t-23.5 9.5t-24.5 17t-16.5 26.5t-7.5 39q0 50 40 99t118 49 q48 0 77.5 -24.5t29.5 -60.5q0 -29 -13.5 -42t-29.5 -13t-23 8.5t-7 19.5t9.5 24.5t30.5 16.5q-14 49 -75 49q-52 0 -76.5 -32t-24.5 -60q0 -20 11.5 -32.5t22.5 -16.5t30 -8q17 -4 28.5 -7t30.5 -12t30.5 -20t20.5 -30.5t9 -44.5q0 -16 -5 -35.5t-18.5 -43.5t-33.5 -43.5 t-54 -32.5t-77 -13q-55 0 -92 26.5t-37 70.5zM277 522q0 5 10 15l142 142q17 17 31 17q10 0 19 -7.5t9 -20.5q0 -19 -20 -32l-161 -123q-9 -8 -14 -8t-10.5 5.5t-5.5 11.5z" />
<glyph unicode="&#x15c;" horiz-adv-x="562" d="M74 -12q0 2 3 13l52 209q3 11 6 14t12 3q15 0 15 -11q-9 -54 -9 -67q0 -72 43.5 -106t106.5 -34q65 0 116 60.5t51 130.5q0 44 -22 72q-12 13 -24.5 18.5t-52.5 17.5l-49 14q-36 10 -43 13q-80 37 -80 132q0 88 71 163t161 75t130 -68l45 56q10 12 15 12q4 0 7 -2.5 t4 -4.5v-3q0 -6 -2 -14l-52 -207q-3 -12 -6 -15t-12 -3q-15 0 -15 10l1 14q5 27 5 55q0 63 -28.5 102.5t-93.5 39.5q-63 0 -112.5 -54t-49.5 -117q0 -66 51 -88q11 -4 55 -16q75 -22 94.5 -31t37.5 -31q33 -41 33 -102q0 -97 -72 -178.5t-165 -81.5q-106 0 -153 69 q-27 -36 -47 -57q-10 -12 -16 -12q-11 0 -11 10zM333 755l155 98q7 3 12 0l106 -98q6 -5 -1 -13.5t-14 -4.5l-112 55l-140 -55q-6 -2 -10 1t-3 8.5t7 8.5z" />
<glyph unicode="&#x15d;" horiz-adv-x="409" d="M76 86q0 31 15.5 46.5t35.5 15.5q16 0 25 -9t9 -23q0 -5 -1.5 -12.5t-14 -21t-35.5 -15.5q18 -56 96 -56q29 0 53 8.5t37.5 21.5t23 29t13 29t3.5 24q0 19 -7 32.5t-22 21.5t-26.5 11.5t-33.5 8.5q-13 3 -21 5t-23.5 9.5t-24.5 17t-16.5 26.5t-7.5 39q0 50 40 99t118 49 q48 0 77.5 -24.5t29.5 -60.5q0 -29 -13.5 -42t-29.5 -13t-23 8.5t-7 19.5t9.5 24.5t30.5 16.5q-14 49 -75 49q-52 0 -76.5 -32t-24.5 -60q0 -20 11.5 -32.5t22.5 -16.5t30 -8q17 -4 28.5 -7t30.5 -12t30.5 -20t20.5 -30.5t9 -44.5q0 -16 -5 -35.5t-18.5 -43.5t-33.5 -43.5 t-54 -32.5t-77 -13q-55 0 -92 26.5t-37 70.5zM201 536l166 144q9 8 15 0l94 -144q5 -7 -3.5 -14.5t-14.5 -1.5l-98 99l-148 -99q-9 -6 -14 1.5t3 14.5z" />
<glyph unicode="&#x15e;" horiz-adv-x="562" d="M74 -12q0 2 3 13l52 209q3 11 6 14t12 3q15 0 15 -11q-9 -54 -9 -67q0 -72 43.5 -106t106.5 -34q65 0 116 60.5t51 130.5q0 44 -22 72q-12 13 -24.5 18.5t-52.5 17.5l-49 14q-36 10 -43 13q-80 37 -80 132q0 88 71 163t161 75t130 -68l45 56q10 12 15 12q4 0 7 -2.5 t4 -4.5v-3q0 -6 -2 -14l-52 -207q-3 -12 -6 -15t-12 -3q-15 0 -15 10l1 14q5 27 5 55q0 63 -28.5 102.5t-93.5 39.5q-63 0 -112.5 -54t-49.5 -117q0 -66 51 -88q11 -4 55 -16q75 -22 94.5 -31t37.5 -31q33 -41 33 -102q0 -95 -69.5 -175.5t-160.5 -84.5l-8 -34 q61 -12 61 -55q0 -83 -196 -83h-25q-13 0 -13 11t25 11h10q135 0 135 62q0 33 -48 37q-15 2 -15 13q0 7 11 44q-65 16 -97 63q-27 -36 -47 -57q-10 -12 -16 -12q-11 0 -11 10z" />
<glyph unicode="&#x15f;" horiz-adv-x="409" d="M51 -181q0 11 25 11h10q135 0 135 62q0 33 -48 37q-15 2 -15 13q0 1 2 9.5t5 21t5 19.5q-42 8 -68 32.5t-26 61.5q0 31 15.5 46.5t35.5 15.5q16 0 25 -9t9 -23q0 -5 -1.5 -12.5t-14 -21t-35.5 -15.5q18 -56 96 -56q29 0 53 8.5t37.5 21.5t23 29t13 29t3.5 24 q0 19 -7 32.5t-22 21.5t-26.5 11.5t-33.5 8.5q-13 3 -21 5t-23.5 9.5t-24.5 17t-16.5 26.5t-7.5 39q0 50 40 99t118 49q48 0 77.5 -24.5t29.5 -60.5q0 -29 -13.5 -42t-29.5 -13t-23 8.5t-7 19.5t9.5 24.5t30.5 16.5q-14 49 -75 49q-52 0 -76.5 -32t-24.5 -60 q0 -20 11.5 -32.5t22.5 -16.5t30 -8q17 -4 28.5 -7t30.5 -12t30.5 -20t20.5 -30.5t9 -44.5q0 -19 -7.5 -42.5t-24 -50.5t-49.5 -47.5t-77 -25.5l-11 -45q61 -12 61 -55q0 -83 -196 -83h-25q-13 0 -13 11z" />
<glyph unicode="&#x160;" horiz-adv-x="562" d="M74 -12q0 2 3 13l52 209q3 11 6 14t12 3q15 0 15 -11q-9 -54 -9 -67q0 -72 43.5 -106t106.5 -34q65 0 116 60.5t51 130.5q0 44 -22 72q-12 13 -24.5 18.5t-52.5 17.5l-49 14q-36 10 -43 13q-80 37 -80 132q0 88 71 163t161 75t130 -68l45 56q10 12 15 12q4 0 7 -2.5 t4 -4.5v-3q0 -6 -2 -14l-52 -207q-3 -12 -6 -15t-12 -3q-15 0 -15 10l1 14q5 27 5 55q0 63 -28.5 102.5t-93.5 39.5q-63 0 -112.5 -54t-49.5 -117q0 -66 51 -88q11 -4 55 -16q75 -22 94.5 -31t37.5 -31q33 -41 33 -102q0 -97 -72 -178.5t-165 -81.5q-106 0 -153 69 q-27 -36 -47 -57q-10 -12 -16 -12q-11 0 -11 10zM353 836q-6 5 1 13.5t14 4.5l112 -55l140 55q6 2 10 -1t3 -8.5t-7 -8.5l-155 -98q-7 -3 -12 0z" />
<glyph unicode="&#x161;" horiz-adv-x="409" d="M76 86q0 31 15.5 46.5t35.5 15.5q16 0 25 -9t9 -23q0 -5 -1.5 -12.5t-14 -21t-35.5 -15.5q18 -56 96 -56q29 0 53 8.5t37.5 21.5t23 29t13 29t3.5 24q0 19 -7 32.5t-22 21.5t-26.5 11.5t-33.5 8.5q-13 3 -21 5t-23.5 9.5t-24.5 17t-16.5 26.5t-7.5 39q0 50 40 99t118 49 q48 0 77.5 -24.5t29.5 -60.5q0 -29 -13.5 -42t-29.5 -13t-23 8.5t-7 19.5t9.5 24.5t30.5 16.5q-14 49 -75 49q-52 0 -76.5 -32t-24.5 -60q0 -20 11.5 -32.5t22.5 -16.5t30 -8q17 -4 28.5 -7t30.5 -12t30.5 -20t20.5 -30.5t9 -44.5q0 -16 -5 -35.5t-18.5 -43.5t-33.5 -43.5 t-54 -32.5t-77 -13q-55 0 -92 26.5t-37 70.5zM234 665q-5 7 3.5 14.5t14.5 1.5l99 -99l147 99q9 6 14 -1.5t-3 -14.5l-166 -144q-9 -7 -15 0z" />
<glyph unicode="&#x162;" horiz-adv-x="716" d="M175 463q0 4 5 17l59 179q4 13 8.5 15.5t20.5 2.5h513q10 0 14 -0.5t7.5 -3t3.5 -8.5q0 -9 -1 -13l-30 -179q-2 -14 -5 -17.5t-13 -3.5q-15 0 -15 13q0 4 2 15q10 59 10 90q0 47 -24.5 61.5t-102.5 14.5q-44 0 -52 -2q-16 -2 -23 -33l-134 -538q-4 -14 -4 -19 q0 -11 6 -15t27 -6q1 0 10 -0.5t21 -1t19 -0.5h15q25 0 25 -11q0 -20 -21 -20l-125 3l-13 -57q61 -12 61 -55q0 -83 -196 -83h-25q-13 0 -13 11t25 11h10q135 0 135 62q0 33 -48 37q-15 2 -15 13q0 5 14 61l-122 -3q-17 0 -17 12q0 13 6.5 16t21.5 3h16q63 0 81 8.5t25 36.5 l134 537q4 12 4 22q0 4 -1 6t-6 3.5t-16 1.5h-34q-97 0 -133 -28.5t-71 -133.5q-10 -26 -13 -29t-11 -3q-15 0 -15 11z" />
<glyph unicode="&#x163;" horiz-adv-x="332" d="M50 -181q0 11 25 11h10q135 0 135 62q0 33 -48 37q-15 2 -15 13q0 3 12 54q-50 21 -50 83q0 14 5 34l72 287h-80q-10 0 -14 0.5t-7.5 3t-3.5 8.5q0 13 6.5 16t21.5 3h85l39 159q10 36 39 36q27 0 27 -26q0 -7 -4 -21l-37 -148h80q10 0 14 -0.5t7.5 -3t3.5 -8.5 q0 -13 -6.5 -16t-21.5 -3h-85l-74 -297q-7 -28 -7 -51q0 -41 27 -41q38 0 67.5 38t47.5 85q6 14 8.5 16.5t11.5 2.5q15 0 15 -10q0 -6 -12.5 -34.5t-43 -66t-66.5 -48.5l-11 -48q61 -12 61 -55q0 -83 -196 -83h-25q-13 0 -13 11z" />
<glyph unicode="&#x164;" horiz-adv-x="716" d="M175 463q0 4 5 17l59 179q4 13 8.5 15.5t20.5 2.5h513q10 0 14 -0.5t7.5 -3t3.5 -8.5q0 -9 -1 -13l-30 -179q-2 -14 -5 -17.5t-13 -3.5q-15 0 -15 13q0 4 2 15q10 59 10 90q0 47 -24.5 61.5t-102.5 14.5q-44 0 -52 -2q-16 -2 -23 -33l-134 -538q-4 -14 -4 -19 q0 -11 6 -15t27 -6q1 0 10 -0.5t21 -1t19 -0.5h15q25 0 25 -11q0 -20 -21 -20q-25 0 -78 1.5t-79 1.5q-25 0 -77 -1.5t-78 -1.5q-17 0 -17 12q0 13 6.5 16t21.5 3h16q63 0 81 8.5t25 36.5l134 537q4 12 4 22q0 4 -1 6t-6 3.5t-16 1.5h-34q-97 0 -133 -28.5t-71 -133.5 q-10 -26 -13 -29t-11 -3q-15 0 -15 11zM429 836q-6 5 1 13.5t14 4.5l112 -55l140 55q6 2 10 -1t3 -8.5t-7 -8.5l-155 -98q-7 -3 -12 0z" />
<glyph unicode="&#x165;" horiz-adv-x="332" d="M91 412q0 13 6.5 16t21.5 3h85l39 159q10 36 39 36q27 0 27 -26q0 -7 -4 -21l-37 -148h80q10 0 14 -0.5t7.5 -3t3.5 -8.5q0 -13 -6.5 -16t-21.5 -3h-85l-74 -297q-7 -28 -7 -51q0 -41 27 -41q38 0 67.5 38t47.5 85q6 14 8.5 16.5t11.5 2.5q15 0 15 -10q0 -3 -6 -18 t-19 -38.5t-30 -45t-43 -37t-54 -15.5q-38 0 -61.5 26t-23.5 64q0 14 5 34l72 287h-80q-10 0 -14 0.5t-7.5 3t-3.5 8.5zM326 472q0 3 10 13q70 60 84 136q-15 -11 -31 -11q-33 0 -33 31q0 18 14 33t35 15q35 0 35 -44q0 -40 -24 -84.5t-49 -70t-33 -25.5t-8 7z" />
<glyph unicode="&#x168;" horiz-adv-x="743" d="M202 166q0 32 8 64l96 386q4 14 4 19q0 11 -14 14t-44 3q-11 0 -15.5 0.5t-8 3t-3.5 8.5q0 19 19 19t59.5 -1.5t60.5 -1.5t59.5 1.5t58.5 1.5q14 0 14 -13q0 -12 -6 -15t-24 -3q-46 0 -59.5 -7.5t-19.5 -32.5l-100 -402q-10 -44 -10 -76q0 -63 31.5 -94t75.5 -31 q72 0 140.5 62.5t91.5 157.5l89 356q4 16 4 24q0 41 -60 43q-18 0 -18 12q0 19 18 19q15 0 47.5 -1.5t48.5 -1.5t47.5 1.5t46.5 1.5q13 0 13 -13q0 -18 -15 -18q-85 -3 -101 -68l-91 -366q-22 -89 -98.5 -164.5t-166.5 -75.5q-74 0 -126 51t-52 137zM429 747q0 5 13.5 18.5 t26.5 24.5l13 11q47 36 74 36q18 0 29 -10t25 -33t29 -23q19 0 51 24.5t39 33.5q7 7 13 7q11 0 11 -10t-49 -50t-79 -40q-27 0 -51 39q-16 27 -32 27q-13 0 -35.5 -14.5t-38.5 -29.5l-15 -14q-9 -7 -13 -7q-11 0 -11 10z" />
<glyph unicode="&#x169;" horiz-adv-x="537" d="M83 288q0 3 4 18t14.5 38.5t24 45t36.5 37t49 15.5q33 0 54.5 -22t21.5 -59q0 -20 -13 -54q-58 -158 -58 -219q0 -77 54 -77q53 0 92 58q8 12 14 33l73 292q9 37 39 37q14 0 21 -8t7 -18q0 -5 -3 -14l-72 -288q-7 -28 -7 -51q0 -41 26 -41q37 0 67 119q4 16 7 19.5 t12 3.5q15 0 15 -10q-12 -60 -30 -98q-27 -56 -73 -56q-60 0 -80 60q-48 -60 -111 -60q-47 0 -79.5 28t-32.5 88q0 56 52 196q24 67 24 90q0 29 -22 29q-60 0 -93 -126q-3 -11 -6 -13.5t-12 -2.5q-15 0 -15 10zM257 561q0 5 13.5 18.5t26.5 24.5l13 11q47 36 74 36 q18 0 29 -10t25 -33t29 -23q19 0 51 24.5t39 33.5q7 7 13 7q11 0 11 -10t-49 -50t-79 -40q-27 0 -51 39q-16 27 -32 27q-13 0 -35.5 -14.5t-38.5 -29.5l-15 -14q-9 -7 -13 -7q-11 0 -11 10z" />
<glyph unicode="&#x16a;" horiz-adv-x="743" d="M202 166q0 32 8 64l96 386q4 14 4 19q0 11 -14 14t-44 3q-11 0 -15.5 0.5t-8 3t-3.5 8.5q0 19 19 19t59.5 -1.5t60.5 -1.5t59.5 1.5t58.5 1.5q14 0 14 -13q0 -12 -6 -15t-24 -3q-46 0 -59.5 -7.5t-19.5 -32.5l-100 -402q-10 -44 -10 -76q0 -63 31.5 -94t75.5 -31 q72 0 140.5 62.5t91.5 157.5l89 356q4 16 4 24q0 41 -60 43q-18 0 -18 12q0 19 18 19q15 0 47.5 -1.5t48.5 -1.5t47.5 1.5t46.5 1.5q13 0 13 -13q0 -18 -15 -18q-85 -3 -101 -68l-91 -366q-22 -89 -98.5 -164.5t-166.5 -75.5q-74 0 -126 51t-52 137zM421 769q0 12 6 14.5 t21 2.5h280q25 0 25 -11q0 -13 -6 -16t-21 -3h-280q-10 0 -14.5 0.5t-7.5 3.5t-3 9z" />
<glyph unicode="&#x16b;" horiz-adv-x="537" d="M83 288q0 3 4 18t14.5 38.5t24 45t36.5 37t49 15.5q33 0 54.5 -22t21.5 -59q0 -20 -13 -54q-58 -158 -58 -219q0 -77 54 -77q53 0 92 58q8 12 14 33l73 292q9 37 39 37q14 0 21 -8t7 -18q0 -5 -3 -14l-72 -288q-7 -28 -7 -51q0 -41 26 -41q37 0 67 119q4 16 7 19.5 t12 3.5q15 0 15 -10q-12 -60 -30 -98q-27 -56 -73 -56q-60 0 -80 60q-48 -60 -111 -60q-47 0 -79.5 28t-32.5 88q0 56 52 196q24 67 24 90q0 29 -22 29q-60 0 -93 -126q-3 -11 -6 -13.5t-12 -2.5q-15 0 -15 10zM253 599q0 12 6 14.5t21 2.5h280q25 0 25 -11q0 -13 -6 -16 t-21 -3h-280q-10 0 -14.5 0.5t-7.5 3.5t-3 9z" />
<glyph unicode="&#x16c;" horiz-adv-x="743" d="M202 166q0 32 8 64l96 386q4 14 4 19q0 11 -14 14t-44 3q-11 0 -15.5 0.5t-8 3t-3.5 8.5q0 19 19 19t59.5 -1.5t60.5 -1.5t59.5 1.5t58.5 1.5q14 0 14 -13q0 -12 -6 -15t-24 -3q-46 0 -59.5 -7.5t-19.5 -32.5l-100 -402q-10 -44 -10 -76q0 -63 31.5 -94t75.5 -31 q72 0 140.5 62.5t91.5 157.5l89 356q4 16 4 24q0 41 -60 43q-18 0 -18 12q0 19 18 19q15 0 47.5 -1.5t48.5 -1.5t47.5 1.5t46.5 1.5q13 0 13 -13q0 -18 -15 -18q-85 -3 -101 -68l-91 -366q-22 -89 -98.5 -164.5t-166.5 -75.5q-74 0 -126 51t-52 137zM476 864q0 52 17 52 q11 0 11 -11q-5 -23 -5 -33q0 -38 23 -64t65 -26q41 0 85 31t63 89q5 14 13 14q11 0 11 -10q0 -18 -19.5 -54t-62.5 -71t-94 -35t-79 34.5t-28 83.5z" />
<glyph unicode="&#x16d;" horiz-adv-x="537" d="M83 288q0 3 4 18t14.5 38.5t24 45t36.5 37t49 15.5q33 0 54.5 -22t21.5 -59q0 -20 -13 -54q-58 -158 -58 -219q0 -77 54 -77q53 0 92 58q8 12 14 33l73 292q9 37 39 37q14 0 21 -8t7 -18q0 -5 -3 -14l-72 -288q-7 -28 -7 -51q0 -41 26 -41q37 0 67 119q4 16 7 19.5 t12 3.5q15 0 15 -10q-12 -60 -30 -98q-27 -56 -73 -56q-60 0 -80 60q-48 -60 -111 -60q-47 0 -79.5 28t-32.5 88q0 56 52 196q24 67 24 90q0 29 -22 29q-60 0 -93 -126q-3 -11 -6 -13.5t-12 -2.5q-15 0 -15 10zM293 634q0 52 17 52q11 0 11 -11q-5 -23 -5 -33q0 -38 23 -64 t65 -26q41 0 85 31t63 89q5 14 13 14q11 0 11 -10q0 -18 -19.5 -54t-62.5 -71t-94 -35t-79 34.5t-28 83.5z" />
<glyph unicode="&#x16e;" horiz-adv-x="743" d="M202 166q0 32 8 64l96 386q4 14 4 19q0 11 -14 14t-44 3q-11 0 -15.5 0.5t-8 3t-3.5 8.5q0 19 19 19t59.5 -1.5t60.5 -1.5t59.5 1.5t58.5 1.5q14 0 14 -13q0 -12 -6 -15t-24 -3q-46 0 -59.5 -7.5t-19.5 -32.5l-100 -402q-10 -44 -10 -76q0 -63 31.5 -94t75.5 -31 q72 0 140.5 62.5t91.5 157.5l89 356q4 16 4 24q0 41 -60 43q-18 0 -18 12q0 19 18 19q15 0 47.5 -1.5t48.5 -1.5t47.5 1.5t46.5 1.5q13 0 13 -13q0 -18 -15 -18q-85 -3 -101 -68l-91 -366q-22 -89 -98.5 -164.5t-166.5 -75.5q-74 0 -126 51t-52 137zM500 784q0 43 36.5 75.5 t80.5 32.5q36 0 55.5 -20.5t19.5 -46.5q0 -42 -36.5 -75.5t-81.5 -33.5q-30 0 -52 17.5t-22 50.5zM538 781q0 -35 44 -35q20 0 34.5 8t21.5 20t11 24t5 20v8q0 36 -44 36q-32 0 -50 -20t-20 -40z" />
<glyph unicode="&#x16f;" horiz-adv-x="537" d="M83 288q0 3 4 18t14.5 38.5t24 45t36.5 37t49 15.5q33 0 54.5 -22t21.5 -59q0 -20 -13 -54q-58 -158 -58 -219q0 -77 54 -77q53 0 92 58q8 12 14 33l73 292q9 37 39 37q14 0 21 -8t7 -18q0 -5 -3 -14l-72 -288q-7 -28 -7 -51q0 -41 26 -41q37 0 67 119q4 16 7 19.5 t12 3.5q15 0 15 -10q-12 -60 -30 -98q-27 -56 -73 -56q-60 0 -80 60q-48 -60 -111 -60q-47 0 -79.5 28t-32.5 88q0 56 52 196q24 67 24 90q0 29 -22 29q-60 0 -93 -126q-3 -11 -6 -13.5t-12 -2.5q-15 0 -15 10zM327 597q1 43 37 75.5t80 32.5q36 0 55.5 -20.5t19.5 -46.5 q0 -42 -36.5 -75.5t-81.5 -33.5q-30 0 -52 17.5t-22 50.5zM365 594q0 -35 44 -35q20 0 34.5 8t21.5 20t11 24t4 20l1 8q0 36 -44 36q-32 0 -50 -20.5t-20 -40.5z" />
<glyph unicode="&#x170;" horiz-adv-x="743" d="M202 166q0 32 8 64l96 386q4 14 4 19q0 11 -14 14t-44 3q-11 0 -15.5 0.5t-8 3t-3.5 8.5q0 19 19 19t59.5 -1.5t60.5 -1.5t59.5 1.5t58.5 1.5q14 0 14 -13q0 -12 -6 -15t-24 -3q-46 0 -59.5 -7.5t-19.5 -32.5l-100 -402q-10 -44 -10 -76q0 -63 31.5 -94t75.5 -31 q72 0 140.5 62.5t91.5 157.5l89 356q4 16 4 24q0 41 -60 43q-18 0 -18 12q0 19 18 19q15 0 47.5 -1.5t48.5 -1.5t47.5 1.5t46.5 1.5q13 0 13 -13q0 -18 -15 -18q-85 -3 -101 -68l-91 -366q-22 -89 -98.5 -164.5t-166.5 -75.5q-74 0 -126 51t-52 137zM468 761q0 2 7 14 l84 138q14 23 34 23q12 0 20.5 -7.5t8.5 -19.5q0 -11 -16 -30l-107 -124q-8 -9 -13 -9t-11.5 4t-6.5 11zM621 761q0 2 7 14l84 138q14 23 34 23q12 0 20.5 -7.5t8.5 -19.5q0 -11 -16 -30l-107 -124q-8 -9 -13 -9t-11.5 4t-6.5 11z" />
<glyph unicode="&#x171;" horiz-adv-x="537" d="M83 288q0 3 4 18t14.5 38.5t24 45t36.5 37t49 15.5q33 0 54.5 -22t21.5 -59q0 -20 -13 -54q-58 -158 -58 -219q0 -77 54 -77q53 0 92 58q8 12 14 33l73 292q9 37 39 37q14 0 21 -8t7 -18q0 -5 -3 -14l-72 -288q-7 -28 -7 -51q0 -41 26 -41q37 0 67 119q4 16 7 19.5 t12 3.5q15 0 15 -10q-12 -60 -30 -98q-27 -56 -73 -56q-60 0 -80 60q-48 -60 -111 -60q-47 0 -79.5 28t-32.5 88q0 56 52 196q24 67 24 90q0 29 -22 29q-60 0 -93 -126q-3 -11 -6 -13.5t-12 -2.5q-15 0 -15 10zM282 521q0 2 7 14l84 138q14 23 34 23q12 0 20.5 -7.5 t8.5 -19.5q0 -11 -16 -30l-107 -124q-8 -9 -13 -9t-11.5 4t-6.5 11zM435 521q0 2 7 14l84 138q14 23 34 23q12 0 20.5 -7.5t8.5 -19.5q0 -11 -16 -30l-107 -124q-8 -9 -13 -9t-11.5 4t-6.5 11z" />
<glyph unicode="&#x172;" horiz-adv-x="743" d="M202 166q0 32 8 64l96 386q4 14 4 19q0 11 -14 14t-44 3h-12.5t-7.5 1.5t-5.5 4t-1.5 6.5q0 5 1.5 9t3.5 6t5 3t4.5 1h4.5q19 0 59.5 -1.5t60.5 -1.5t59.5 1.5t58.5 1.5q14 0 14 -13q0 -12 -6 -15t-24 -3q-46 0 -59.5 -7.5t-19.5 -32.5l-100 -402q-10 -44 -10 -76 q0 -43 16.5 -72.5t39.5 -41t51 -11.5q47 0 94.5 27.5t84.5 78.5t53 114l89 356q4 16 4 24q0 19 -12.5 30.5t-47.5 12.5q-18 0 -18 12q0 19 18 19q15 0 47.5 -1.5t48.5 -1.5t47.5 1.5t46.5 1.5q13 0 13 -13q0 -18 -15 -18q-16 -1 -27 -2.5t-27.5 -7.5t-28.5 -21t-18 -37 l-91 -366q-10 -42 -35 -84t-59.5 -77t-79.5 -57t-91 -22h-10q-52 -37 -60 -73q-7 -32 17 -50.5t55 -18.5q52 0 89 56q5 8 12.5 5t3.5 -12q-21 -42 -61 -69t-78 -27q-47 0 -73 27t-18 63q11 53 79 104q-59 14 -96.5 62t-37.5 121z" />
<glyph unicode="&#x173;" horiz-adv-x="537" d="M83 288q0 3 4 18t14.5 38.5t24 45t36.5 37t49 15.5q33 0 54.5 -22t21.5 -59q0 -20 -13 -54q-58 -158 -58 -219q0 -77 54 -77q53 0 92 58q8 12 14 33l73 292q9 37 39 37q14 0 21 -8t7 -18q0 -5 -3 -14l-72 -288q-7 -28 -7 -51q0 -41 26 -41q37 0 67 119q4 16 7 19.5 t12 3.5q15 0 15 -10q-12 -60 -30 -98q-27 -56 -73 -56q-12 0 -19 2q-22 -15 -34.5 -24t-26.5 -26.5t-18 -35.5q-7 -32 17 -50.5t55 -18.5q52 0 89 56q5 8 12.5 5t3.5 -12q-21 -42 -61 -69t-78 -27q-47 0 -73 27t-18 63q13 63 105 123q-24 17 -34 47q-48 -60 -111 -60 q-47 0 -79.5 28t-32.5 88q0 56 52 196q24 67 24 90q0 29 -22 29q-60 0 -93 -126q-3 -11 -6 -13.5t-12 -2.5q-15 0 -15 10z" />
<glyph unicode="&#x174;" horiz-adv-x="999" d="M208 664q0 19 18 19q15 0 48.5 -1.5t49.5 -1.5q18 0 56 1.5t57 1.5q14 0 14 -12q0 -13 -6 -16t-19 -3q-24 0 -38.5 -4t-19.5 -12.5t-6.5 -14t-0.5 -16.5l22 -489l233 428q6 10 6 20q-3 63 -4 67q-2 12 -10 16.5t-38 4.5q-21 0 -21 12q0 19 18 19q15 0 48.5 -1.5 t49.5 -1.5q19 0 57 1.5t56 1.5q14 0 14 -11q0 -9 -4 -14t-7 -5.5t-9 -0.5q-44 -1 -57.5 -11t-13.5 -26l1 -7l22 -492l253 466q11 20 11 32q0 35 -51 38q-16 0 -16 12q0 19 19 19q16 0 49.5 -1.5t49.5 -1.5q12 0 37 1.5t36 1.5q5 0 8 -2.5t4 -5.5v-3q0 -19 -14 -20 q-37 -3 -59 -19.5t-47 -62.5l-313 -574q-10 -18 -26 -18q-6 0 -9.5 1t-5.5 5t-2.5 7t-0.5 12l-22 498l-275 -503q-7 -12 -11 -16t-15 -4t-14 4.5t-4 20.5l-28 617q-1 14 -2.5 19.5t-11.5 9t-32 3.5q-24 0 -24 12zM551 755l155 98q7 3 12 0l106 -98q6 -5 -1 -13.5t-14 -4.5 l-112 55l-140 -55q-6 -2 -10 1t-3 8.5t7 8.5z" />
<glyph unicode="&#x175;" horiz-adv-x="664" d="M83 288q0 3 4 18t14.5 38.5t24 45t36.5 37t49 15.5q33 0 54.5 -22t21.5 -59q0 -20 -12 -53q-57 -151 -57 -210q0 -10 1.5 -20t7 -27.5t21.5 -28.5t40 -11q34 0 59 38.5t25 55.5q0 31 8 63l57 228q9 35 38 35q14 0 21 -8t7 -18q0 -7 -16 -66l-42 -168q-12 -48 -12 -77 q0 -36 15.5 -59.5t50.5 -23.5q61 0 100 93q15 36 32 97t17 89q0 50 -27 79q-13 15 -13 27q0 17 15.5 31.5t32.5 14.5q21 0 31 -18.5t10 -47.5q0 -40 -23 -132t-46 -143q-47 -112 -132 -112q-43 0 -72.5 17.5t-41.5 46.5q-38 -64 -97 -64t-94 31q-34 31 -34 92q0 53 50 189 q24 67 24 90q0 29 -22 29q-60 0 -93 -126q-3 -11 -6 -13.5t-12 -2.5q-15 0 -15 10zM329 536l166 144q9 8 15 0l94 -144q5 -7 -3.5 -14.5t-14.5 -1.5l-98 99l-148 -99q-9 -6 -14 1.5t3 14.5z" />
<glyph unicode="&#x176;" horiz-adv-x="743" d="M202 664q0 19 19 19q16 0 51.5 -1.5t52.5 -1.5q20 0 59 1.5t58 1.5q14 0 14 -12q0 -13 -5.5 -16t-16.5 -3q-56 0 -56 -24q0 -3 4 -13l95 -300l219 267l3 4q3 4 6.5 9t7 11t6 12t2.5 11q0 21 -31 23q-15 0 -15 12q0 19 18 19q15 0 46 -1.5t47 -1.5q13 0 38.5 1.5t37.5 1.5 q5 0 8 -2.5t4 -5.5v-3q0 -13 -4.5 -16t-14.5 -4q-37 -3 -68 -21.5t-65 -60.5l-236 -287q-6 -7 -12 -27l-31 -123q-19 -79 -19 -85q0 -11 14 -14t44 -3q11 0 15.5 -0.5t8 -3t3.5 -8.5q0 -19 -19 -19t-59 1.5t-60 1.5q-19 0 -58 -1.5t-58 -1.5q-14 0 -14 12q0 13 6 16t19 3 q55 1 66.5 9t21.5 50q46 175 46 183q0 5 -4 15l-106 334q-5 18 -17.5 24t-46.5 6q-24 0 -24 12zM423 755l155 98q7 3 12 0l106 -98q6 -5 -1 -13.5t-14 -4.5l-112 55l-140 -55q-6 -2 -10 1t-3 8.5t7 8.5z" />
<glyph unicode="&#x177;" horiz-adv-x="486" d="M83 288q0 3 4 18t14.5 38.5t24 45t36.5 37t49 15.5q33 0 54.5 -22t21.5 -59q0 -20 -13 -54q-58 -158 -58 -219q0 -77 54 -77q40 0 69.5 30.5t36.5 58.5l73 294q9 37 39 37q14 0 21 -8t7 -18q0 -2 -1.5 -6.5t-1.5 -7.5l-98 -394q-20 -79 -83 -140.5t-137 -61.5 q-42 0 -69 23.5t-27 62.5q0 25 11 40.5t21 18.5t19 3q14 0 24 -8.5t10 -23.5t-11 -30t-32 -18l-8 -3q0 -4 5 -13.5t20 -19.5t37 -10q46 0 91 48.5t71 160.5q-37 -37 -90 -37q-47 0 -79.5 28t-32.5 88q0 56 52 196q24 67 24 90q0 29 -22 29q-60 0 -93 -126q-3 -11 -6 -13.5 t-12 -2.5q-15 0 -15 10zM239 536l166 144q9 8 15 0l94 -144q5 -7 -3.5 -14.5t-14.5 -1.5l-98 99l-148 -99q-9 -6 -14 1.5t3 14.5z" />
<glyph unicode="&#x178;" horiz-adv-x="743" d="M202 664q0 19 19 19q16 0 51.5 -1.5t52.5 -1.5q20 0 59 1.5t58 1.5q14 0 14 -12q0 -13 -5.5 -16t-16.5 -3q-56 0 -56 -24q0 -3 4 -13l95 -300l219 267l3 4q3 4 6.5 9t7 11t6 12t2.5 11q0 21 -31 23q-15 0 -15 12q0 19 18 19q15 0 46 -1.5t47 -1.5q13 0 38.5 1.5t37.5 1.5 q5 0 8 -2.5t4 -5.5v-3q0 -13 -4.5 -16t-14.5 -4q-37 -3 -68 -21.5t-65 -60.5l-236 -287q-6 -7 -12 -27l-31 -123q-19 -79 -19 -85q0 -11 14 -14t44 -3q11 0 15.5 -0.5t8 -3t3.5 -8.5q0 -19 -19 -19t-59 1.5t-60 1.5q-19 0 -58 -1.5t-58 -1.5q-14 0 -14 12q0 13 6 16t19 3 q55 1 66.5 9t21.5 50q46 175 46 183q0 5 -4 15l-106 334q-5 18 -17.5 24t-46.5 6q-24 0 -24 12zM414 775q0 22 18 39.5t40 17.5q19 0 29.5 -11.5t10.5 -27.5q0 -22 -18 -39.5t-39 -17.5q-19 0 -30 11.5t-11 27.5zM623 775q0 22 18 39.5t40 17.5q19 0 29.5 -11.5t10.5 -27.5 q0 -22 -18 -39.5t-39 -17.5q-19 0 -30 11.5t-11 27.5z" />
<glyph unicode="&#x179;" horiz-adv-x="613" d="M80 9q0 12 11 25l517 618h-140q-57 0 -97.5 -13.5t-65 -41.5t-38 -54t-26.5 -67q-2 -7 -3 -9t-3 -5t-4.5 -3.5t-7.5 -0.5q-15 0 -15 11q2 11 3 13l54 181q5 14 9 17t20 3h387h11t6.5 -1t4.5 -3t1 -5q0 -12 -12 -26l-515 -614h147q51 0 89 11.5t61.5 27.5t42.5 47t28.5 55 t23.5 67q6 18 9 21.5t11 3.5q16 0 16 -12q-4 -14 -5 -16l-68 -221q-4 -13 -8 -15.5t-21 -2.5h-400q-23 0 -23 9zM429 766q2 6 12 13l165 116q16 11 28 11q14 0 22 -9.5t6 -23.5q-3 -17 -25 -28l-180 -93q-11 -6 -15 -5q-5 1 -9.5 7t-3.5 12z" />
<glyph unicode="&#x17a;" horiz-adv-x="409" d="M62 -1q0 9 33 55.5t71 83.5l164 163q10 10 40 44q-26 0 -59 15q-40 18 -60 18q-26 0 -46.5 -14.5t-27.5 -32.5q-4 -9 -6.5 -11.5t-11.5 -2.5q-15 0 -15 11q0 25 34.5 69.5t82.5 44.5q32 0 61 -39q26 -36 47 -36q14 0 26.5 11.5t35.5 50.5q5 9 7.5 11t11.5 2q14 0 14 -10 q0 -5 -14 -27.5t-40 -55.5t-53 -60l-145 -143q-21 -21 -56 -61q5 1 18 1q23 0 62 -17q36 -16 56 -16q33 0 64.5 23.5t44.5 60.5q3 10 5.5 13t11.5 3q15 0 15 -10q0 -16 -16.5 -50.5t-53.5 -69t-81 -34.5q-14 0 -26.5 6.5t-18.5 13t-17 19.5q-15 21 -24 28.5t-24 7.5 q-13 0 -25 -6t-24.5 -20.5t-15.5 -19t-14 -20.5q-5 -9 -16 -9q-15 0 -15 10zM277 522q0 5 10 15l142 142q17 17 31 17q10 0 19 -7.5t9 -20.5q0 -19 -20 -32l-161 -123q-9 -8 -14 -8t-10.5 5.5t-5.5 11.5z" />
<glyph unicode="&#x17b;" horiz-adv-x="613" d="M80 9q0 12 11 25l517 618h-140q-57 0 -97.5 -13.5t-65 -41.5t-38 -54t-26.5 -67q-2 -7 -3 -9t-3 -5t-4.5 -3.5t-7.5 -0.5q-15 0 -15 11q2 11 3 13l54 181q5 14 9 17t20 3h387h11t6.5 -1t4.5 -3t1 -5q0 -12 -12 -26l-515 -614h147q51 0 89 11.5t61.5 27.5t42.5 47t28.5 55 t23.5 67q6 18 9 21.5t11 3.5q16 0 16 -12q-4 -14 -5 -16l-68 -221q-4 -13 -8 -15.5t-21 -2.5h-400q-23 0 -23 9zM455 801q0 24 20 43.5t44 19.5q21 0 33 -13t12 -30q0 -24 -20 -43.5t-44 -19.5q-21 0 -33 12.5t-12 30.5z" />
<glyph unicode="&#x17c;" horiz-adv-x="409" d="M62 -1q0 9 33 55.5t71 83.5l164 163q10 10 40 44q-26 0 -59 15q-40 18 -60 18q-26 0 -46.5 -14.5t-27.5 -32.5q-4 -9 -6.5 -11.5t-11.5 -2.5q-15 0 -15 11q0 25 34.5 69.5t82.5 44.5q32 0 61 -39q26 -36 47 -36q14 0 26.5 11.5t35.5 50.5q5 9 7.5 11t11.5 2q14 0 14 -10 q0 -5 -14 -27.5t-40 -55.5t-53 -60l-145 -143q-21 -21 -56 -61q5 1 18 1q23 0 62 -17q36 -16 56 -16q33 0 64.5 23.5t44.5 60.5q3 10 5.5 13t11.5 3q15 0 15 -10q0 -16 -16.5 -50.5t-53.5 -69t-81 -34.5q-14 0 -26.5 6.5t-18.5 13t-17 19.5q-15 21 -24 28.5t-24 7.5 q-13 0 -25 -6t-24.5 -20.5t-15.5 -19t-14 -20.5q-5 -9 -16 -9q-15 0 -15 10zM300 591q0 24 20 43.5t44 19.5q21 0 33 -13t12 -30q0 -24 -20 -43.5t-44 -19.5q-21 0 -33 12.5t-12 30.5z" />
<glyph unicode="&#x17d;" horiz-adv-x="613" d="M80 9q0 12 11 25l517 618h-140q-57 0 -97.5 -13.5t-65 -41.5t-38 -54t-26.5 -67q-2 -7 -3 -9t-3 -5t-4.5 -3.5t-7.5 -0.5q-15 0 -15 11q2 11 3 13l54 181q5 14 9 17t20 3h387h11t6.5 -1t4.5 -3t1 -5q0 -12 -12 -26l-515 -614h147q51 0 89 11.5t61.5 27.5t42.5 47t28.5 55 t23.5 67q6 18 9 21.5t11 3.5q16 0 16 -12q-4 -14 -5 -16l-68 -221q-4 -13 -8 -15.5t-21 -2.5h-400q-23 0 -23 9zM378 836q-6 5 1 13.5t14 4.5l112 -55l140 55q6 2 10 -1t3 -8.5t-7 -8.5l-155 -98q-7 -3 -12 0z" />
<glyph unicode="&#x17e;" horiz-adv-x="409" d="M62 -1q0 9 33 55.5t71 83.5l164 163q10 10 40 44q-26 0 -59 15q-40 18 -60 18q-26 0 -46.5 -14.5t-27.5 -32.5q-4 -9 -6.5 -11.5t-11.5 -2.5q-15 0 -15 11q0 25 34.5 69.5t82.5 44.5q32 0 61 -39q26 -36 47 -36q14 0 26.5 11.5t35.5 50.5q5 9 7.5 11t11.5 2q14 0 14 -10 q0 -5 -14 -27.5t-40 -55.5t-53 -60l-145 -143q-21 -21 -56 -61q5 1 18 1q23 0 62 -17q36 -16 56 -16q33 0 64.5 23.5t44.5 60.5q3 10 5.5 13t11.5 3q15 0 15 -10q0 -16 -16.5 -50.5t-53.5 -69t-81 -34.5q-14 0 -26.5 6.5t-18.5 13t-17 19.5q-15 21 -24 28.5t-24 7.5 q-13 0 -25 -6t-24.5 -20.5t-15.5 -19t-14 -20.5q-5 -9 -16 -9q-15 0 -15 10zM234 665q-5 7 3.5 14.5t14.5 1.5l99 -99l147 99q9 6 14 -1.5t-3 -14.5l-166 -144q-9 -7 -15 0z" />
<glyph unicode="&#x17f;" horiz-adv-x="307" d="M-25 -139q0 25 15 40t35 15q15 0 26.5 -8.5t7.5 -23.5q-11 -43 -44 -49q13 -18 40 -18q34 0 54 86l31 124l73 373h-62h-11t-8 1t-5.5 3.5t-0.5 6.5q3 14 8.5 17t18.5 3h60l27 110q0 2 3.5 14.5t5.5 20t7 22.5t10 25.5t12.5 24t16.5 22.5t20 18t25 13t30 4 q33 0 57.5 -17.5t24.5 -48.5q0 -25 -15 -40t-35 -15q-14 0 -25.5 8.5t-8.5 23.5q11 43 44 49q-6 7 -16.5 11.5t-17.5 5.5l-8 1q-33 0 -55 -90l-108 -552l-5 -21q-5 -20 -8 -33t-11.5 -39t-16 -44t-20 -40t-25.5 -36t-30 -23.5t-36 -9.5q-31 0 -55.5 17.5t-24.5 48.5z" />
<glyph unicode="&#x18e;" horiz-adv-x="678" d="M97 16l20 219l2 12q6 11 21 11q8 0 9.5 -3.5t-0.5 -20.5q-6 -69 -1.5 -114t39.5 -67t112 -22h122q32 0 36 10q2 4 4.5 12.5t2.5 9.5l69 275h-87q-47 0 -66 -10t-31 -33q-11 -25 -16 -51q-2 -8 -4 -11q-6 -12 -22 -12q-9 0 -10 3.5t2 16.5l55 220l4 13q6 12 22 12 q9 0 10 -4t-3 -20q-15 -53 -1 -73t73 -20h81l62 246q5 25 0 29.5t-31 4.5h-125q-78 0 -117 -22.5t-66 -78.5q-11 -21 -27 -64q-6 -16 -7 -17q-6 -12 -21 -12q-10 0 -11 4.5t5 17.5l66 177q7 18 13.5 22t23.5 4h467q15 0 18.5 -2t-0.5 -16q-5 -9 -11 -11t-23 -2 q-27 0 -42 -2.5t-18 -5.5t-6 -9q-4 -8 -8 -23l-134 -536q-7 -27 2.5 -34.5t58.5 -7.5q15 0 18.5 -2.5t-0.5 -16.5q-6 -12 -31 -12h-479q-15 0 -18 2.5t-2 13.5z" />
<glyph unicode="&#x192;" horiz-adv-x="307" d="M-25 -139q0 25 15 40t35 15q13 0 23.5 -8.5t10.5 -23.5q0 -17 -11.5 -31t-32.5 -18q13 -18 40 -18q37 0 57 86q12 43 28 124l73 373h-62q-25 0 -25 11q0 14 6 17t21 3h66l21 110q34 164 130 164q33 0 57.5 -17.5t24.5 -48.5q0 -25 -15 -40t-35 -15q-13 0 -23.5 8.5 t-10.5 23.5q0 17 11.5 31t32.5 18q-15 18 -42 18q-17 0 -29 -17t-16 -31.5t-10 -41.5l-32 -162h78q10 0 14.5 -0.5t7.5 -3.5t3 -9q0 -12 -6 -15t-21 -3h-82l-70 -359q-6 -29 -13.5 -56.5t-25.5 -77.5t-47.5 -81t-65.5 -31q-31 0 -55.5 17.5t-24.5 48.5z" />
<glyph unicode="&#x1a0;" horiz-adv-x="767" d="M148 236q0 52 13 103q39 153 155 259q115 107 243 107q90 0 150 -58q35 5 63 37q-2 -1 -8 -1q-20 0 -32 11.5t-12 30.5q0 24 19 43.5t46 20.5q19 0 30.5 -13.5t11.5 -33.5q0 -7 -2 -17q-9 -36 -35 -64t-59 -38q55 -73 55 -178q0 -54 -13 -106q-39 -150 -154 -255 q-114 -106 -242 -106q-103 0 -166 73.5t-63 184.5zM238 204q0 -84 37.5 -142t107.5 -58q95 0 180 101q82 96 119 250q19 78 19 132q0 83 -39 138t-110 55q-93 0 -178 -94q-79 -88 -114 -231q-22 -86 -22 -151z" />
<glyph unicode="&#x1a1;" d="M109 153q0 30 8 65q24 92 94 158q73 64 151 66q65 -2 106 -47q35 3 63 36q-1 0 -4 -0.5t-5 -0.5q-20 0 -31.5 12t-11.5 30q0 24 18.5 44t45.5 20q19 0 30.5 -13.5t11.5 -33.5q0 -5 -2 -17q-9 -37 -36 -65.5t-61 -36.5q22 -40 22 -92q0 -30 -8 -65q-21 -84 -90.5 -154 t-155.5 -70q-64 0 -104.5 46.5t-40.5 117.5zM179 114q0 -45 20 -74t56 -29q54 0 102 59q41 49 65 148q16 62 16 99q0 44 -20.5 73t-55.5 29q-53 0 -103 -58q-40 -50 -65 -148q-15 -60 -15 -99z" />
<glyph unicode="&#x1af;" horiz-adv-x="743" d="M201 165q0 30 8 65l97 389q3 11 3 18t-3 9q-13 7 -71 7h-3q-8 2 -8 11v2v2q2 5 2.5 7.5t3.5 5t7 2.5h3l122 -3l123 3h1q9 -2 9 -11q-1 -2 -2 -6.5t-2 -6.5t-3.5 -4t-6.5 -2q-60 0 -75 -7q-12 -5 -20 -32l-97 -389q-13 -55 -13 -92q0 -56 28.5 -90.5t77.5 -34.5 q75 0 142 64q68 64 92 158l90 361q3 11 3 20q0 42 -67 42h-3q-9 2 -9 11q1 2 2 6t2 6.5t3.5 4.5t6.5 2h2q49 -3 98 -3q4 1 5 3q8 -2 8 -11v-3l-7 -29q41 8 71 44q-3 -1 -9 -1q-21 0 -32.5 11.5t-11.5 30.5q0 24 18.5 43.5t45.5 20.5q13 0 22.5 -6.5t14.5 -17.5t5 -24 q0 -9 -3 -20q-10 -43 -47 -74.5t-82 -36.5l-96 -385q-10 -42 -34.5 -85t-58.5 -79.5t-80 -59.5t-93 -23q-78 0 -128.5 52.5t-50.5 134.5z" />
<glyph unicode="&#x1b0;" horiz-adv-x="537" d="M82 287v3q17 66 50 109t78 43q34 0 54.5 -23t20.5 -57q0 -22 -7 -43q-38 -101 -51 -150q-12 -46 -12 -81q0 -77 53 -77q63 0 106 79q0 10 3 20l73 291q3 13 13.5 21t23.5 8q27 0 27 -25q0 -4 -2 -14q40 11 64 40q-5 -1 -8 -1q-20 0 -32 12t-12 30q0 24 19 44t46 20 q19 0 30 -13.5t11 -34.5q0 -13 -2 -19q-10 -41 -45 -71t-79 -38l-64 -255q-8 -32 -8 -55q0 -39 26 -39q23 0 38.5 31.5t33.5 103.5q2 7 9 7h14q7 -2 7 -10v-2q-21 -81 -41.5 -116.5t-60.5 -35.5q-30 0 -51.5 16.5t-29.5 43.5q-46 -60 -110 -60q-52 0 -82.5 30.5t-30.5 84.5 q0 28 10 70q13 52 51 152q15 42 15 66q0 27 -21 27q-63 0 -97 -134q-2 -8 -9 -8h-11q-10 3 -10 10z" />
<glyph unicode="&#x1dd;" horiz-adv-x="460" d="M145 327q0 10 24.5 36t76.5 52.5t110 26.5q68 0 105.5 -51.5t37.5 -123.5q0 -123 -80 -200.5t-168 -77.5q-46 0 -73.5 24.5t-27.5 60.5q0 5 0.5 10.5t4.5 19.5t11.5 26t24 25.5t38.5 22.5q56 22 145 22h39q17 66 17 110q0 25 -5 47t-23 42.5t-48 20.5q-17 0 -38.5 -3.5 t-65 -28t-76.5 -66.5q-9 -11 -13 -11q-6 0 -11 6t-5 10zM188 72q0 -26 17 -43.5t46 -17.5q7 0 16 1.5t30.5 10.5t39.5 25t38 50t32 80h-21q-15 0 -27 -0.5t-38.5 -3t-46.5 -9.5t-41.5 -18t-33 -30.5t-11.5 -44.5z" />
<glyph unicode="&#x1e6;" horiz-adv-x="774" d="M150 245q0 114 62 222t160 173t199 65q98 0 151 -85l63 74q4 5 8 7.5t6 2.5l2 1q4 0 7 -2.5t4 -4.5v-3q0 -6 -2 -14l-61 -243q-3 -12 -6 -15t-12 -3q-15 0 -15 10q0 1 1 11t2.5 24.5t1.5 25.5q0 75 -34.5 129t-107.5 54q-60 0 -124 -35.5t-113 -102.5 q-54 -74 -79.5 -170.5t-25.5 -157.5q0 -95 50.5 -147t126.5 -52q80 0 136 51q22 20 29.5 38.5t24.5 89.5q8 28 8 34q0 7 -3.5 10.5t-8 4.5t-17.5 3q-26 2 -43 2h-8q-26 0 -26 11q0 20 21 20t65 -1.5t66 -1.5q16 0 49 1.5t48 1.5q13 0 13 -13q0 -12 -6 -15t-18 -3 q-21 0 -32 -4t-13.5 -9.5t-6.5 -19.5l-48 -191q-5 -17 -12 -17q-8 0 -21.5 20t-20.5 40q-25 -32 -78 -57.5t-116 -25.5q-108 0 -177 73.5t-69 193.5zM458 836q-6 5 1 13.5t14 4.5l112 -55l140 55q6 2 10 -1t3 -8.5t-7 -8.5l-155 -98q-7 -3 -12 0z" />
<glyph unicode="&#x1e7;" horiz-adv-x="460" d="M53 -147q0 26 16 39.5t33 13.5q18 0 26.5 -10t8.5 -22q0 -13 -9 -26.5t-23 -19.5q27 -11 71 -11q55 0 95 47q20 24 28 44t18 61l21 84q-53 -53 -106 -53q-55 0 -88.5 44t-33.5 109q0 106 71.5 197.5t155.5 91.5q56 0 84 -57q3 19 15 28t24 9q27 0 27 -26q0 -6 -4 -21 l-109 -438q-15 -60 -69.5 -101t-130.5 -41q-121 0 -121 58zM178 109q0 -9 1.5 -19t6 -27.5t17 -29t31.5 -11.5q37 0 77 40.5t47 69.5l45 182l3 14q0 6 -2.5 18.5t-9 30t-21.5 30.5t-36 13q-28 0 -58.5 -28.5t-49.5 -70.5q-16 -37 -33.5 -107t-17.5 -105zM273 665 q-5 7 3.5 14.5t14.5 1.5l99 -99l147 99q9 6 14 -1.5t-3 -14.5l-166 -144q-9 -7 -15 0z" />
<glyph unicode="&#x1ea;" horiz-adv-x="767" d="M148 236q0 113 59.5 222.5t156 178t196.5 68.5q98 0 163 -70.5t65 -190.5q0 -117 -60.5 -226t-155.5 -174.5t-194 -65.5h-4l-6 -5q-45 -31 -53 -68q-7 -32 17 -50.5t55 -18.5q52 0 89 56q5 8 12.5 5t3.5 -12q-21 -42 -61 -69t-78 -27q-47 0 -73 27t-18 63q11 51 76 102 q-86 14 -138 83.5t-52 171.5zM238 205q0 -90 39.5 -145.5t107.5 -55.5q58 0 120 44.5t109 125.5q39 67 64 156t25 156q0 95 -43.5 144.5t-106.5 49.5q-64 0 -127 -47t-104 -120q-46 -80 -65 -167.5t-19 -140.5z" />
<glyph unicode="&#x1eb;" d="M110 154q0 109 79.5 198.5t173.5 89.5q65 0 105.5 -46t40.5 -118q0 -109 -79.5 -199t-173.5 -90h-6l-23 -16q-44 -32 -53 -68q-7 -32 17 -50.5t55 -18.5q52 0 89 56q5 8 12.5 5t3.5 -12q-21 -42 -61 -69t-78 -27q-47 0 -73 27t-18 63q12 58 94 115q-48 14 -76.5 56 t-28.5 104zM180 114q0 -51 22 -77t54 -26q36 0 71 28.5t58 71.5q22 42 38 106t16 100q0 45 -20.5 74t-56.5 29q-31 0 -64 -23.5t-60 -67.5q-23 -39 -40.5 -107t-17.5 -108z" />
<glyph unicode="&#x1f4;" horiz-adv-x="774" d="M150 245q0 114 62 222t160 173t199 65q98 0 151 -85l63 74q4 5 8 7.5t6 2.5l2 1q4 0 7 -2.5t4 -4.5v-3q0 -6 -2 -14l-61 -243q-3 -12 -6 -15t-12 -3q-15 0 -15 10q0 1 1 11t2.5 24.5t1.5 25.5q0 75 -34.5 129t-107.5 54q-60 0 -124 -35.5t-113 -102.5 q-54 -74 -79.5 -170.5t-25.5 -157.5q0 -95 50.5 -147t126.5 -52q80 0 136 51q22 20 29.5 38.5t24.5 89.5q8 28 8 34q0 7 -3.5 10.5t-8 4.5t-17.5 3q-26 2 -43 2h-8q-26 0 -26 11q0 20 21 20t65 -1.5t66 -1.5q16 0 49 1.5t48 1.5q13 0 13 -13q0 -12 -6 -15t-18 -3 q-21 0 -32 -4t-13.5 -9.5t-6.5 -19.5l-48 -191q-5 -17 -12 -17q-8 0 -21.5 20t-20.5 40q-25 -32 -78 -57.5t-116 -25.5q-108 0 -177 73.5t-69 193.5zM509 766q2 6 12 13l165 116q16 11 28 11q14 0 22 -9.5t6 -23.5q-3 -17 -25 -28l-180 -93q-11 -6 -15 -5q-5 1 -9.5 7 t-3.5 12z" />
<glyph unicode="&#x1f5;" horiz-adv-x="460" d="M53 -147q0 26 16 39.5t33 13.5q18 0 26.5 -10t8.5 -22q0 -13 -9 -26.5t-23 -19.5q27 -11 71 -11q55 0 95 47q20 24 28 44t18 61l21 84q-53 -53 -106 -53q-55 0 -88.5 44t-33.5 109q0 106 71.5 197.5t155.5 91.5q56 0 84 -57q3 19 15 28t24 9q27 0 27 -26q0 -6 -4 -21 l-109 -438q-15 -60 -69.5 -101t-130.5 -41q-121 0 -121 58zM178 109q0 -9 1.5 -19t6 -27.5t17 -29t31.5 -11.5q37 0 77 40.5t47 69.5l45 182l3 14q0 6 -2.5 18.5t-9 30t-21.5 30.5t-36 13q-28 0 -58.5 -28.5t-49.5 -70.5q-16 -37 -33.5 -107t-17.5 -105zM316 522q0 5 10 15 l142 142q17 17 31 17q10 0 19 -7.5t9 -20.5q0 -19 -20 -32l-161 -123q-9 -8 -14 -8t-10.5 5.5t-5.5 11.5z" />
<glyph unicode="&#x1fa;" horiz-adv-x="743" d="M59 12q1 18 12 19q17 1 28.5 3.5t28.5 9.5t33 24.5t31 44.5l332 585q10 18 26 18q12 0 14.5 -4t3.5 -21l43 -626q2 -21 11 -27.5t46 -6.5q10 0 14 -0.5t7 -3.5t3 -9q0 -18 -18 -18q-17 0 -52 1.5t-53 1.5q-19 0 -58 -1.5t-57 -1.5q-15 0 -15 12q0 19 23 19q67 0 67 32 l-11 166h-228l-72 -126q-14 -26 -14 -38q0 -27 42 -34q16 -2 16 -12q0 -19 -18 -19q-15 0 -46 1.5t-47 1.5q-13 0 -40.5 -1.5t-39.5 -1.5t-12 12zM307 260h209l-23 327zM477 784q0 43 36.5 75.5t80.5 32.5q36 0 55.5 -20.5t19.5 -46.5q0 -42 -36.5 -75.5t-81.5 -33.5 q-30 0 -52 17.5t-22 50.5zM502 931q2 6 12 13l165 116q17 11 28 11q14 0 22 -9.5t6 -23.5q-3 -17 -25 -28l-180 -93q-11 -6 -15 -5q-5 1 -9.5 7t-3.5 12zM515 781q0 -35 44 -35q20 0 34.5 8t21.5 20t11 24t4 20l1 8q0 36 -44 36q-32 0 -50 -20t-20 -40z" />
<glyph unicode="&#x1fb;" d="M108 144q0 109 73 203.5t156 94.5q57 0 83 -59q8 39 40 39q27 0 27 -26q0 -7 -4 -21l-68 -272q-7 -28 -7 -51q0 -41 26 -41q37 0 67 119q4 16 7 19.5t12 3.5q15 0 15 -10q-12 -60 -30 -98q-27 -56 -73 -56q-29 0 -52 17.5t-31 52.5q-57 -70 -120 -70q-55 0 -88 44.5 t-33 110.5zM176 100q0 -33 12 -61t43 -28q37 0 77.5 41.5t47.5 71.5l47 189l3 13q0 35 -19 64.5t-50 29.5q-30 0 -61.5 -32t-50.5 -79q-15 -35 -32 -104.5t-17 -104.5zM315 597q0 43 36.5 75.5t80.5 32.5q36 0 55.5 -20.5t19.5 -46.5q0 -42 -36.5 -75.5t-81.5 -33.5 q-30 0 -52 17.5t-22 50.5zM340 744q2 6 12 13l165 116q17 11 28 11q14 0 22 -9.5t6 -23.5q-3 -17 -25 -28l-180 -93q-11 -6 -15 -5q-5 1 -9.5 7t-3.5 12zM353 594q0 -35 44 -35q20 0 34.5 8t21.5 20t11 24t4 20l1 8q0 36 -44 36q-32 0 -50 -20.5t-20 -40.5z" />
<glyph unicode="&#x1fc;" horiz-adv-x="883" d="M59 13q0 11 5 14t15 4q36 3 62 20t52 62l312 538q-8 1 -29 1h-20q-10 0 -14.5 0.5t-8 3t-3.5 8.5q0 13 6 16t22 3h466q12 0 16.5 -1t6.5 -6.5t1 -17.5l-23 -177q-1 -8 -1.5 -11.5t-2.5 -6.5t-5 -4t-8 -1q-16 0 -16 12l2 13l6 69q5 60 -30 82q-27 18 -91 18h-90 q-27 0 -35 -5t-14 -31l-67 -272h76q58 0 79.5 19.5t35.5 76.5q4 14 7 17.5t12 3.5q15 0 15 -11q0 -7 -2 -13l-55 -221q-2 -9 -5 -13.5t-5.5 -5.5t-8.5 -1q-15 0 -15 12q0 5 5.5 27t5.5 37q0 22 -13 31.5t-58 9.5h-82l-63 -250q0 -1 -2 -9.5t-2 -12.5t1 -6t8 -3t22 -1h91 q53 0 88.5 11t61.5 38.5t41.5 56.5t38.5 84q2 4 4.5 11t4 10.5t4 7.5t6 6t8.5 2q15 0 15 -11q-3 -10 -4 -12l-89 -219q-5 -11 -9 -13.5t-19 -2.5h-404q-10 0 -14 0.5t-7.5 3t-3.5 8.5q0 19 23 19q36 0 46 6.5t16 31.5l61 244h-146l-124 -213q-13 -23 -13 -36q0 -30 41 -33 q16 -2 16 -12q0 -19 -18 -19q-15 0 -46 1.5t-47 1.5q-13 0 -40.5 -1.5t-39.5 -1.5t-12 13zM360 344h135l68 268q2 6 2 17q0 20 -28 20zM564 766q2 6 12 13l165 116q17 11 28 11q14 0 22 -9.5t6 -23.5q-3 -17 -25 -28l-180 -93q-11 -6 -15 -5q-5 1 -9.5 7t-3.5 12z" />
<glyph unicode="&#x1fd;" horiz-adv-x="716" d="M92 100q0 20 8 46t31.5 62t59.5 70.5t99 71.5t144 65q6 27 32 27q24 0 24 -23q0 -5 -6 -29q66 52 135 52q44 0 72 -24t28 -61q0 -8 -2 -18t-8.5 -26.5t-23.5 -32.5t-43 -27q-54 -22 -146 -22h-52q-14 -61 -14 -98q0 -47 20 -84.5t63 -37.5q34 0 76.5 22.5t80.5 76.5 q9 10 13 10q6 0 11 -6t5 -10q0 -6 -14.5 -24t-37.5 -38.5t-60 -36.5t-75 -16q-42 0 -70 22t-41 49q-11 -47 -18 -59t-25 -12q-24 0 -24 23q0 6 9 41l-1 1q-59 -65 -115 -65t-95.5 30.5t-39.5 80.5zM165 73q0 -33 20.5 -47.5t44.5 -14.5q43 0 85 50t51 84l61 244 q-125 -54 -193.5 -146.5t-68.5 -169.5zM430 522q0 5 10 15l142 142q17 17 31 17q10 0 19 -7.5t9 -20.5q0 -19 -20 -32l-161 -123q-9 -8 -14 -8t-10.5 5.5t-5.5 11.5zM450 253h30q201 0 201 106q0 26 -16.5 43.5t-46.5 17.5q-9 0 -20 -2t-32.5 -11.5t-41 -26t-40 -49.5 t-34.5 -78z" />
<glyph unicode="&#x1fe;" horiz-adv-x="767" d="M116 -48q0 4 21 28l68 79q-57 71 -57 177q0 113 59.5 222.5t156 178t196.5 68.5q96 0 156 -63l79 92q7 9 15 9q4 0 8 -3.5t4 -8.5q0 -3 -10 -16l-80 -92q56 -67 56 -179q0 -117 -60.5 -226t-155.5 -174.5t-194 -65.5q-91 0 -157 62q-19 -23 -35 -41t-25 -28t-10 -11 q-19 -20 -23 -20t-8 3.5t-4 8.5zM221 194q0 -52 17 -97l448 512q-44 74 -132 74q-58 0 -118.5 -36.5t-105.5 -99.5q-54 -78 -81.5 -184t-27.5 -169zM251 73q43 -73 133 -73q59 0 119 35.5t103 96.5q56 78 83 185.5t27 169.5q0 54 -17 98zM506 766q2 6 12 13l165 116 q17 11 28 11q14 0 22 -9.5t6 -23.5q-3 -17 -25 -28l-180 -93q-11 -6 -15 -5q-5 1 -9.5 7t-3.5 12z" />
<glyph unicode="&#x1ff;" d="M68 -97q0 5 8 14l82 112q-42 47 -42 121q0 108 77 200.5t171 92.5q45 0 81 -26l81 111q8 10 14 10q10 0 10 -10q0 -4 -8 -15l-81 -111q41 -47 41 -121q0 -111 -77.5 -202t-169.5 -91q-46 0 -81 26q-25 -33 -43.5 -59t-28.5 -40q-19 -22 -23 -22q-11 0 -11 10zM175 121 q0 -35 8 -57l240 325q-21 32 -60 32q-54 0 -99 -52.5t-67 -120.5t-22 -127zM195 42q23 -32 61 -32q55 0 100 53t66.5 121t21.5 127q0 32 -9 56zM328 522q0 5 10 15l142 142q17 17 31 17q10 0 19 -7.5t9 -20.5q0 -19 -20 -32l-161 -123q-9 -8 -14 -8t-10.5 5.5t-5.5 11.5z " />
<glyph unicode="&#x200;" horiz-adv-x="743" d="M59 12q1 18 12 19q17 1 28.5 3.5t28.5 9.5t33 24.5t31 44.5l332 585q10 18 26 18q12 0 14.5 -4t3.5 -21l43 -626q2 -21 11 -27.5t46 -6.5q10 0 14 -0.5t7 -3.5t3 -9q0 -18 -18 -18q-17 0 -52 1.5t-53 1.5q-19 0 -58 -1.5t-57 -1.5q-15 0 -15 12q0 19 23 19q67 0 67 32 l-11 166h-228l-72 -126q-14 -26 -14 -38q0 -27 42 -34q16 -2 16 -12q0 -19 -18 -19q-15 0 -46 1.5t-47 1.5q-13 0 -40.5 -1.5t-39.5 -1.5t-12 12zM307 260h209l-23 327zM420 909q14 27 43 27q20 0 22 -23l15 -138q1 -12 0 -14q-8 -15 -25 -15q-5 0 -9 9l-45 124q-7 19 -1 30 zM573 909q14 27 43 27q20 0 22 -23l15 -138q1 -12 0 -14q-3 -7 -11.5 -11t-13.5 -4t-9 9l-45 124q-7 19 -1 30z" />
<glyph unicode="&#x201;" d="M108 144q0 109 73 203.5t156 94.5q57 0 83 -59q8 39 40 39q27 0 27 -26q0 -7 -4 -21l-68 -272q-7 -28 -7 -51q0 -41 26 -41q37 0 67 119q4 16 7 19.5t12 3.5q15 0 15 -10q-12 -60 -30 -98q-27 -56 -73 -56q-29 0 -52 17.5t-31 52.5q-57 -70 -120 -70q-55 0 -88 44.5 t-33 110.5zM176 100q0 -33 12 -61t43 -28q37 0 77.5 41.5t47.5 71.5l47 189l3 13q0 35 -19 64.5t-50 29.5q-30 0 -61.5 -32t-50.5 -79q-15 -35 -32 -104.5t-17 -104.5zM270 669q13 27 42 27q21 0 23 -23l15 -138q1 -11 0 -14q-8 -15 -26 -15q-5 0 -8 9l-45 124q-7 19 -1 30z M423 669q13 27 42 27q21 0 23 -23l15 -138q1 -11 0 -14q-3 -7 -12 -11t-14 -4t-8 9l-45 124q-7 19 -1 30z" />
<glyph unicode="&#x204;" horiz-adv-x="678" d="M62 12q0 13 6 16t21 3q49 0 62.5 7.5t19.5 34.5l134 536l4 23q0 6 -2 9t-15.5 5.5t-40.5 2.5q-12 0 -16.5 0.5t-7.5 3.5t-3 9q0 12 6 15t21 3h467q10 0 13 -0.5t8 -3t3.5 -7.5t-0.5 -15l-23 -177q-1 -10 -2 -14t-4.5 -6t-10.5 -2q-15 0 -15 12q0 7 2 17q5 40 5 64 q0 56 -27.5 78.5t-105.5 22.5h-125q-26 0 -34 -5t-14 -29l-61 -246h81q59 0 81.5 19t37.5 74q6 22 11 23q3 1 8 1q16 0 16 -12q-2 -10 -3 -13l-55 -220q-3 -13 -6 -16.5t-12 -3.5q-16 0 -16 12l2 11q9 33 9 51q0 23 -14 33t-61 10h-87l-69 -275q0 -1 -2 -9.5t-2 -12.5t1 -6 t8 -3t22 -1h122q47 0 82 9t58.5 22t44 41.5t34 55.5t33.5 75q7 17 10 20.5t11 3.5q15 0 15 -11q-3 -10 -4 -12l-89 -219q-5 -11 -9 -13.5t-19 -2.5h-479q-10 0 -14 0.5t-7.5 3t-3.5 8.5zM413 909q14 27 43 27q20 0 22 -23l15 -138q1 -12 0 -14q-3 -7 -11.5 -11t-13.5 -4 t-9 9l-45 124q-7 19 -1 30zM566 909q14 27 43 27q20 0 22 -23l15 -138q1 -12 0 -14q-8 -15 -25 -15q-5 0 -9 9l-45 124q-7 19 -1 30z" />
<glyph unicode="&#x205;" horiz-adv-x="460" d="M114 164q0 123 80 200.5t168 77.5q46 0 73.5 -24.5t27.5 -60.5q0 -5 -0.5 -10.5t-4.5 -19.5t-11.5 -26t-24 -25.5t-38.5 -22.5q-56 -22 -145 -22h-39q-17 -66 -17 -110q0 -25 5 -47t23 -42.5t48 -20.5q17 0 38.5 3.5t65 28t76.5 66.5q9 11 13 11q6 0 11 -6t5 -10 q0 -10 -24.5 -36t-76.5 -52.5t-110 -26.5q-68 0 -105.5 51.5t-37.5 123.5zM206 253h21q15 0 27 0.5t38.5 3t46.5 9.5t41.5 18t33 30.5t11.5 44.5q0 26 -17 43.5t-46 17.5q-7 0 -16 -1.5t-30.5 -10.5t-39.5 -25t-38 -50t-32 -80zM244 669q13 27 42 27q21 0 23 -23l15 -138 q1 -11 0 -14q-8 -15 -26 -15q-5 0 -8 9l-45 124q-7 19 -1 30zM397 669q13 27 42 27q21 0 23 -23l15 -138q1 -11 0 -14q-3 -7 -12 -11t-14 -4t-8 9l-45 124q-7 19 -1 30z" />
<glyph unicode="&#x208;" horiz-adv-x="386" d="M57 13q0 12 6 15t24 3q49 0 63.5 7.5t20.5 33.5l136 544q3 9 3 19q0 11 -15 14t-48 3q-12 0 -16.5 0.5t-7.5 3.5t-3 9q0 18 19 18q21 0 63 -1.5t62 -1.5q21 0 62 1.5t61 1.5q14 0 14 -12q0 -13 -6.5 -16t-24.5 -3q-49 0 -63 -7.5t-20 -33.5l-135 -540l-4 -22q0 -7 2 -10 t16.5 -5.5t43.5 -2.5q12 0 16.5 -0.5t8 -3t3.5 -8.5q0 -19 -20 -19t-61.5 1.5t-62.5 1.5t-62 -1.5t-61 -1.5q-14 0 -14 13zM266 909q14 27 43 27q20 0 22 -23l15 -138q1 -12 0 -14q-8 -15 -25 -15q-5 0 -9 9l-45 124q-7 19 -1 30zM419 909q14 27 43 27q20 0 22 -23l15 -138 q1 -12 0 -14q-3 -7 -11.5 -11t-13.5 -4t-9 9l-45 124q-7 19 -1 30z" />
</font>
</defs>
</svg>
